<svg xmlns="http://www.w3.org/2000/svg" xmlns:xlink="http://www.w3.org/1999/xlink" width="64.364mm" height="59.563mm" viewBox="4037.6 3039 253.4 234.5"><title></title><style type="text/css">
*[layerid="1"] {stroke:#000000;fill:#000000;}
*[layerid="2"] {stroke:#000000;fill:#000000;}
*[layerid="3"] {stroke:#000000;fill:#000000;}
*[layerid="4"] {stroke:#000000;fill:#000000;}
*[layerid="5"] {stroke:#000000;fill:#000000;}
*[layerid="6"] {stroke:#000000;fill:#000000;}
*[layerid="7"] {stroke:#000000;fill:#000000;}
*[layerid="8"] {stroke:#000000;fill:#000000;}
*[layerid="9"] {stroke:#000000;fill:#000000;}
*[layerid="10"] {stroke:#000000;fill:#000000;}
*[layerid="11"] {stroke:#000000;fill:#000000;}
*[layerid="12"] {stroke:#000000;fill:#000000;}
*[layerid="13"] {stroke:#000000;fill:#000000;}
*[layerid="14"] {stroke:#000000;fill:#000000;}
*[layerid="15"] {stroke:#000000;fill:#000000;}
*[layerid="19"] {stroke:#000000;fill:#000000;}
*[layerid="21"] {stroke:#000000;fill:#000000;}
*[layerid="22"] {stroke:#000000;fill:#000000;}
*[layerid="23"] {stroke:#000000;fill:#000000;}
*[layerid="24"] {stroke:#000000;fill:#000000;}
*[layerid="25"] {stroke:#000000;fill:#000000;}
*[layerid="26"] {stroke:#000000;fill:#000000;}
*[layerid="27"] {stroke:#000000;fill:#000000;}
*[layerid="28"] {stroke:#000000;fill:#000000;}
*[layerid="29"] {stroke:#000000;fill:#000000;}
*[layerid="30"] {stroke:#000000;fill:#000000;}
*[layerid="31"] {stroke:#000000;fill:#000000;}
*[layerid="32"] {stroke:#000000;fill:#000000;}
*[layerid="33"] {stroke:#000000;fill:#000000;}
*[layerid="34"] {stroke:#000000;fill:#000000;}
*[layerid="35"] {stroke:#000000;fill:#000000;}
*[layerid="36"] {stroke:#000000;fill:#000000;}
*[layerid="37"] {stroke:#000000;fill:#000000;}
*[layerid="38"] {stroke:#000000;fill:#000000;}
*[layerid="39"] {stroke:#000000;fill:#000000;}
*[layerid="40"] {stroke:#000000;fill:#000000;}
*[layerid="41"] {stroke:#000000;fill:#000000;}
*[layerid="42"] {stroke:#000000;fill:#000000;}
*[layerid="43"] {stroke:#000000;fill:#000000;}
*[layerid="44"] {stroke:#000000;fill:#000000;}
*[layerid="45"] {stroke:#000000;fill:#000000;}
*[layerid="46"] {stroke:#000000;fill:#000000;}
*[layerid="47"] {stroke:#000000;fill:#000000;}
*[layerid="48"] {stroke:#000000;fill:#000000;}
*[layerid="49"] {stroke:#000000;fill:#000000;}
*[layerid="50"] {stroke:#000000;fill:#000000;}
*[layerid="51"] {stroke:#000000;fill:#000000;}
*[layerid="52"] {stroke:#000000;fill:#000000;}
*[layerid="99"] {stroke:#000000;fill:#000000;}
*[layerid="100"] {stroke:#000000;fill:#000000;}
*[layerid="101"] {stroke:#000000;fill:#000000;}
*[layerid="Hole"] {stroke:#000000;fill:#000000;}
*[layerid="DRCError"] {stroke:#000000;fill:#000000;}
*[fill="none"] {fill: none;}
*[stroke="none"] {stroke: none;}
path, polyline, polygon, line {stroke-linecap:round;}
g[c_partid="part_pad"][layerid="1"] ellipse:not([c_etype="pad_outer"]) {fill:#000000;}
g[c_partid="part_pad"][layerid="1"] polygon:not([c_etype="pad_outer"]) {fill:#000000;}
g[c_partid="part_pad"][layerid="1"] polyline:not([c_etype="pad_outer"]) {stroke:#000000;}
g[c_partid="part_pad"][layerid="2"] ellipse:not([c_etype="pad_outer"]) {fill:#000000;}
g[c_partid="part_pad"][layerid="2"] polygon:not([c_etype="pad_outer"]) {fill:#000000;}
g[c_partid="part_pad"][layerid="2"] polyline:not([c_etype="pad_outer"]) {stroke:#000000;}
g[c_partid="part_pad"][layerid="11"] ellipse:not([c_etype="pad_outer"]) {fill:#000000;}
g[c_partid="part_pad"][layerid="11"] polygon:not([c_etype="pad_outer"]) {fill:#000000;}
g[c_partid="part_pad"][layerid="11"] polyline:not([c_etype="pad_outer"]) {stroke:#000000;}
g[c_partid="part_pad"][layerid="11"] circle {fill:#FFFFFF;}
g[c_partid="part_pad"][layerid="11"] > polyline:nth-of-type(2) {stroke:#FFFFFF;}
g[c_partid="part_pad"][layerid="11"][c_shape="ELLIPSE"]  polyline:nth-last-of-type(1) {stroke:#FFFFFF;}
g[c_partid="part_pad"][layerid="11"][c_shape="RECT"]  polyline:nth-last-of-type(1) {stroke:#FFFFFF;}
g[c_partid="part_pad"][layerid="11"][c_shape="POLYGON"]  polyline:nth-last-of-type(1) {stroke:#FFFFFF;}
g[c_partid="part_via"] > * + circle, #gCurParts g[c_partid="part_via"] > * + circle {fill:#FFFFFF;}
g[c_partid="part_pad"] > polygon[c_etype="pad_outer"], #gCurParts g[c_partid="part_pad"] > polygon[c_etype="pad_outer"] {stroke-linejoin: round;stroke-miterlimit: 100;}
g[c_partid="part_hole"] > circle {fill: #FFFFFF;}path, polyline, polygon {stroke-linejoin:round;}
rect, circle, ellipse, polyline, line, polygon, path {shape-rendering:crispEdges;}
</style>
<rect x="4037.6" y="3039" width="253.4" height="234.5" fill="#FFFFFF" stroke="none"/><polyline points="4139 3059.5 4139 3065 4122 3082" stroke-width="1"  stroke-linecap="round" fill="none" layerid="1" net="VCC5VDC" id="gge2088" locked="0" /><polyline points="4062 3122 4099 3122 4106 3115 4108 3115 4115.5 3107.5 4132.5 3107.5 4132.5 3087.5 4138.5 3087.5 4157 3069 4163.5 3069 4167 3065.5 4222 3065.5 4222 3060" stroke-width="1"  stroke-linecap="round" fill="none" layerid="1" net="J1_5" id="gge2085" locked="0" /><polyline points="4194.5 3227 4194.5 3197 4220 3171.5 4220 3141 4223.5 3137.5" stroke-width="1"  stroke-linecap="round" fill="none" layerid="1" net="J1_10" id="gge2082" locked="0" /><polyline points="4224 3116.5 4224 3121.5 4214.5 3131 4214.5 3168.5 4184.5 3198.5 4184.5 3227" stroke-width="1"  stroke-linecap="round" fill="none" layerid="1" net="J1_11" id="gge2079" locked="0" /><polyline points="4225 3095 4222.5 3095 4218 3099.5 4218 3118.5 4207.5 3129 4207.5 3165 4174.5 3198 4174.5 3227" stroke-width="1"  stroke-linecap="round" fill="none" layerid="1" net="J1_9" id="gge2076" locked="0" /><polyline points="4085 3059.5 4092 3052.5 4129.5 3052.5 4136.5 3059.5 4139 3059.5" stroke-width="1"  stroke-linecap="round" fill="none" layerid="1" net="VCC5VDC" id="gge2073" locked="0" /><polyline points="4193.5 3138 4125 3206.5 4066.5 3206.5 4062 3202" stroke-width="1"  stroke-linecap="round" fill="none" layerid="1" net="J1_13" id="gge2070" locked="0" /><polyline points="4152.5 3116.5 4140.5 3116.5 4140.5 3088 4148 3088 4165.5 3070.5 4170 3070.5 4172.5 3068 4232 3068 4232 3060" stroke-width="1"  stroke-linecap="round" fill="none" layerid="1" net="H2_6" id="gge2067" locked="0" /><polyline points="4153.5 3138 4155 3138 4184.5 3108.5 4213 3108.5 4213 3080 4252.5 3080 4252.5 3060.5 4252 3060" stroke-width="1"  stroke-linecap="round" fill="none" layerid="1" net="H2_8" id="gge2064" locked="0" /><polyline points="4152.5 3096 4177 3071.5 4240.5 3071.5 4240.5 3061.5 4242 3060" stroke-width="1"  stroke-linecap="round" fill="none" layerid="1" net="H2_7" id="gge2058" locked="0" /><polyline points="4264 3116.5 4264 3096 4265 3095" stroke-width="1"  stroke-linecap="round" fill="none" layerid="1" net="VCC3.3VDC" id="gge2055" locked="0" /><polyline points="4263.5 3137.5 4263.5 3117 4264 3116.5" stroke-width="1"  stroke-linecap="round" fill="none" layerid="1" net="VCC3.3VDC" id="gge2052" locked="0" /><polyline points="4254.3425 3175.4207 4254.3425 3146.6575 4263.5 3137.5" stroke-width="1"  stroke-linecap="round" fill="none" layerid="1" net="VCC3.3VDC" id="gge2049" locked="0" /><polyline points="4099.5 3248 4099.5 3234.5 4122 3212" stroke-width="1"  stroke-linecap="round" fill="none" layerid="1" net="VCC3.3VDC" id="gge2043" locked="0" /><polyline points="4233.6575 3232.9207 4218.5782 3248 4109.5 3248" stroke-width="1"  stroke-linecap="round" fill="none" layerid="1" net="GND" id="gge2040" locked="0" /><polyline points="4254.3425 3175.4207 4254.3425 3231.9207 4253.3425 3232.9207" stroke-width="1"  stroke-linecap="round" fill="none" layerid="1" net="VCC3.3VDC" id="gge2037" locked="0" /><polyline points="4233.6575 3232.9207 4233.6575 3176.4207 4234.6575 3175.4207" stroke-width="1"  stroke-linecap="round" fill="none" layerid="1" net="GND" id="gge2034" locked="0" /><polyline points="4122 3092 4095 3065 4095 3059.5" stroke-width="1"  stroke-linecap="round" fill="none" layerid="1" net="GND" id="gge2022" locked="0" /><polyline points="4122 3092 4082 3092 4062 3112" stroke-width="1"  stroke-linecap="round" fill="none" layerid="1" net="GND" id="gge2019" locked="0" /><polyline points="4149 3059.5 4149 3065 4122 3092" stroke-width="1"  stroke-linecap="round" fill="none" layerid="1" net="GND" id="gge2016" locked="0" /><g c_partid="part_pad" c_etype="pinpart" c_origin="4085,3059.5" layerid="11" number="1" net="VCC5VDC" plated ="Y"  id="gge42" locked="0" c_rotation="0" c_width="4.7" c_height="4.7" title="VCC5VDC" c_shape="ELLIPSE" pasteexpansion="0" solderexpansion="0.2"><ellipse c_etype="pad_shell" cx="4085" cy="3059.5" rx="2.35" ry="2.35" layerid="11" stroke-width="0"/><circle c_etype="pad_hole" cx="4085" cy="3059.5" r="1.4" layerid="11" stroke-width="0"/></g><g c_partid="part_pad" c_etype="pinpart" c_origin="4095,3059.5" layerid="11" number="2" net="GND" plated ="Y"  id="gge57" locked="0" c_rotation="0" c_width="4.7" c_height="4.7" title="GND" c_shape="ELLIPSE" pasteexpansion="0" solderexpansion="0.2"><ellipse c_etype="pad_shell" cx="4095" cy="3059.5" rx="2.35" ry="2.35" layerid="11" stroke-width="0"/><circle c_etype="pad_hole" cx="4095" cy="3059.5" r="1.4" layerid="11" stroke-width="0"/></g><g c_partid="part_pad" c_etype="pinpart" c_origin="4099.5,3248" layerid="11" number="1" net="VCC3.3VDC" plated ="Y"  id="gge111" locked="0" c_rotation="0" c_width="4.7" c_height="4.7" title="VCC3.3VDC" c_shape="ELLIPSE" pasteexpansion="0" solderexpansion="0.2"><ellipse c_etype="pad_shell" cx="4099.5" cy="3248" rx="2.35" ry="2.35" layerid="11" stroke-width="0"/><circle c_etype="pad_hole" cx="4099.5" cy="3248" r="1.4" layerid="11" stroke-width="0"/></g><g c_partid="part_pad" c_etype="pinpart" c_origin="4109.5,3248" layerid="11" number="2" net="GND" plated ="Y"  id="gge126" locked="0" c_rotation="0" c_width="4.7" c_height="4.7" title="GND" c_shape="ELLIPSE" pasteexpansion="0" solderexpansion="0.2"><ellipse c_etype="pad_shell" cx="4109.5" cy="3248" rx="2.35" ry="2.35" layerid="11" stroke-width="0"/><circle c_etype="pad_hole" cx="4109.5" cy="3248" r="1.4" layerid="11" stroke-width="0"/></g><g c_partid="part_pad" c_etype="pinpart" c_origin="4139,3059.5" layerid="11" number="1" net="VCC5VDC" plated ="Y"  id="gge180" locked="0" c_rotation="270" c_width="6.2" c_height="6.2" title="VCC5VDC" c_shape="RECT" pasteexpansion="0" solderexpansion="0.2"><polygon  c_etype="pad_shell" points="4142.1 3056.4 4142.1 3062.6 4135.9 3062.6 4135.9 3056.4" layerid="11" stroke-width="0" /><circle c_etype="pad_hole" cx="4139" cy="3059.5" r="1.75" layerid="11" stroke-width="0"/></g><g c_partid="part_pad" c_etype="pinpart" c_origin="4149,3059.5" layerid="11" number="2" net="GND" plated ="Y"  id="gge195" locked="0" c_rotation="270" c_width="6.2" c_height="6.2" title="GND" c_shape="ELLIPSE" pasteexpansion="0" solderexpansion="0.2"><ellipse c_etype="pad_shell" cx="4149" cy="3059.5" rx="3.1" ry="3.1" layerid="11" stroke-width="0"/><circle c_etype="pad_hole" cx="4149" cy="3059.5" r="1.75" layerid="11" stroke-width="0"/></g><g c_partid="part_pad" c_etype="pinpart" c_origin="4182,3060" layerid="11" number="1" net="H2_1" plated ="Y"  id="gge270" locked="0" c_rotation="0" c_width="6.2" c_height="6.2" title="H2_1" c_shape="RECT" pasteexpansion="0" solderexpansion="0.2"><polygon  c_etype="pad_shell" points="4178.9 3056.9 4185.1 3056.9 4185.1 3063.1 4178.9 3063.1" layerid="11" stroke-width="0" /><circle c_etype="pad_hole" cx="4182" cy="3060" r="1.75" layerid="11" stroke-width="0"/></g><g c_partid="part_pad" c_etype="pinpart" c_origin="4192,3060" layerid="11" number="2" net="H2_2" plated ="Y"  id="gge285" locked="0" c_rotation="0" c_width="6.2" c_height="6.2" title="H2_2" c_shape="ELLIPSE" pasteexpansion="0" solderexpansion="0.2"><ellipse c_etype="pad_shell" cx="4192" cy="3060" rx="3.1" ry="3.1" layerid="11" stroke-width="0"/><circle c_etype="pad_hole" cx="4192" cy="3060" r="1.75" layerid="11" stroke-width="0"/></g><g c_partid="part_pad" c_etype="pinpart" c_origin="4202,3060" layerid="11" number="3" net="H2_3" plated ="Y"  id="gge300" locked="0" c_rotation="0" c_width="6.2" c_height="6.2" title="H2_3" c_shape="ELLIPSE" pasteexpansion="0" solderexpansion="0.2"><ellipse c_etype="pad_shell" cx="4202" cy="3060" rx="3.1" ry="3.1" layerid="11" stroke-width="0"/><circle c_etype="pad_hole" cx="4202" cy="3060" r="1.75" layerid="11" stroke-width="0"/></g><g c_partid="part_pad" c_etype="pinpart" c_origin="4212,3060" layerid="11" number="4" net="J1_6" plated ="Y"  id="gge315" locked="0" c_rotation="0" c_width="6.2" c_height="6.2" title="J1_6" c_shape="ELLIPSE" pasteexpansion="0" solderexpansion="0.2"><ellipse c_etype="pad_shell" cx="4212" cy="3060" rx="3.1" ry="3.1" layerid="11" stroke-width="0"/><circle c_etype="pad_hole" cx="4212" cy="3060" r="1.75" layerid="11" stroke-width="0"/></g><g c_partid="part_pad" c_etype="pinpart" c_origin="4222,3060" layerid="11" number="5" net="J1_5" plated ="Y"  id="gge330" locked="0" c_rotation="0" c_width="6.2" c_height="6.2" title="J1_5" c_shape="ELLIPSE" pasteexpansion="0" solderexpansion="0.2"><ellipse c_etype="pad_shell" cx="4222" cy="3060" rx="3.1" ry="3.1" layerid="11" stroke-width="0"/><circle c_etype="pad_hole" cx="4222" cy="3060" r="1.75" layerid="11" stroke-width="0"/></g><g c_partid="part_pad" c_etype="pinpart" c_origin="4232,3060" layerid="11" number="6" net="H2_6" plated ="Y"  id="gge345" locked="0" c_rotation="0" c_width="6.2" c_height="6.2" title="H2_6" c_shape="ELLIPSE" pasteexpansion="0" solderexpansion="0.2"><ellipse c_etype="pad_shell" cx="4232" cy="3060" rx="3.1" ry="3.1" layerid="11" stroke-width="0"/><circle c_etype="pad_hole" cx="4232" cy="3060" r="1.75" layerid="11" stroke-width="0"/></g><g c_partid="part_pad" c_etype="pinpart" c_origin="4242,3060" layerid="11" number="7" net="H2_7" plated ="Y"  id="gge360" locked="0" c_rotation="0" c_width="6.2" c_height="6.2" title="H2_7" c_shape="ELLIPSE" pasteexpansion="0" solderexpansion="0.2"><ellipse c_etype="pad_shell" cx="4242" cy="3060" rx="3.1" ry="3.1" layerid="11" stroke-width="0"/><circle c_etype="pad_hole" cx="4242" cy="3060" r="1.75" layerid="11" stroke-width="0"/></g><g c_partid="part_pad" c_etype="pinpart" c_origin="4252,3060" layerid="11" number="8" net="H2_8" plated ="Y"  id="gge375" locked="0" c_rotation="0" c_width="6.2" c_height="6.2" title="H2_8" c_shape="ELLIPSE" pasteexpansion="0" solderexpansion="0.2"><ellipse c_etype="pad_shell" cx="4252" cy="3060" rx="3.1" ry="3.1" layerid="11" stroke-width="0"/><circle c_etype="pad_hole" cx="4252" cy="3060" r="1.75" layerid="11" stroke-width="0"/></g><g c_partid="part_pad" c_etype="pinpart" c_origin="4062,3082" layerid="11" number="1" net="J1_1" plated ="Y"  id="gge510" locked="0" c_rotation="0" c_width="6" c_height="6" title="J1_1" c_shape="ELLIPSE" pasteexpansion="0" solderexpansion="0.2"><ellipse c_etype="pad_shell" cx="4062" cy="3082" rx="3" ry="3" layerid="11" stroke-width="0"/><circle c_etype="pad_hole" cx="4062" cy="3082" r="1.8" layerid="11" stroke-width="0"/></g><g c_partid="part_pad" c_etype="pinpart" c_origin="4062,3092" layerid="11" number="2" net="J1_2" plated ="Y"  id="gge525" locked="0" c_rotation="0" c_width="6" c_height="6" title="J1_2" c_shape="ELLIPSE" pasteexpansion="0" solderexpansion="0.2"><ellipse c_etype="pad_shell" cx="4062" cy="3092" rx="3" ry="3" layerid="11" stroke-width="0"/><circle c_etype="pad_hole" cx="4062" cy="3092" r="1.8" layerid="11" stroke-width="0"/></g><g c_partid="part_pad" c_etype="pinpart" c_origin="4062,3102" layerid="11" number="3" net="J1_3" plated ="Y"  id="gge540" locked="0" c_rotation="0" c_width="6" c_height="6" title="J1_3" c_shape="ELLIPSE" pasteexpansion="0" solderexpansion="0.2"><ellipse c_etype="pad_shell" cx="4062" cy="3102" rx="3" ry="3" layerid="11" stroke-width="0"/><circle c_etype="pad_hole" cx="4062" cy="3102" r="1.8" layerid="11" stroke-width="0"/></g><g c_partid="part_pad" c_etype="pinpart" c_origin="4062,3112" layerid="11" number="4" net="GND" plated ="Y"  id="gge555" locked="0" c_rotation="0" c_width="6" c_height="6" title="GND" c_shape="ELLIPSE" pasteexpansion="0" solderexpansion="0.2"><ellipse c_etype="pad_shell" cx="4062" cy="3112" rx="3" ry="3" layerid="11" stroke-width="0"/><circle c_etype="pad_hole" cx="4062" cy="3112" r="1.8" layerid="11" stroke-width="0"/></g><g c_partid="part_pad" c_etype="pinpart" c_origin="4062,3122" layerid="11" number="5" net="J1_5" plated ="Y"  id="gge570" locked="0" c_rotation="0" c_width="6" c_height="6" title="J1_5" c_shape="ELLIPSE" pasteexpansion="0" solderexpansion="0.2"><ellipse c_etype="pad_shell" cx="4062" cy="3122" rx="3" ry="3" layerid="11" stroke-width="0"/><circle c_etype="pad_hole" cx="4062" cy="3122" r="1.8" layerid="11" stroke-width="0"/></g><g c_partid="part_pad" c_etype="pinpart" c_origin="4062,3132" layerid="11" number="6" net="J1_6" plated ="Y"  id="gge585" locked="0" c_rotation="0" c_width="6" c_height="6" title="J1_6" c_shape="ELLIPSE" pasteexpansion="0" solderexpansion="0.2"><ellipse c_etype="pad_shell" cx="4062" cy="3132" rx="3" ry="3" layerid="11" stroke-width="0"/><circle c_etype="pad_hole" cx="4062" cy="3132" r="1.8" layerid="11" stroke-width="0"/></g><g c_partid="part_pad" c_etype="pinpart" c_origin="4062,3142" layerid="11" number="7" net="J1_7" plated ="Y"  id="gge600" locked="0" c_rotation="0" c_width="6" c_height="6" title="J1_7" c_shape="ELLIPSE" pasteexpansion="0" solderexpansion="0.2"><ellipse c_etype="pad_shell" cx="4062" cy="3142" rx="3" ry="3" layerid="11" stroke-width="0"/><circle c_etype="pad_hole" cx="4062" cy="3142" r="1.8" layerid="11" stroke-width="0"/></g><g c_partid="part_pad" c_etype="pinpart" c_origin="4062,3152" layerid="11" number="8" net="J1_8" plated ="Y"  id="gge615" locked="0" c_rotation="180" c_width="6" c_height="6" title="J1_8" c_shape="ELLIPSE" pasteexpansion="0" solderexpansion="0.2"><ellipse c_etype="pad_shell" cx="4062" cy="3152" rx="3" ry="3" layerid="11" stroke-width="0"/><circle c_etype="pad_hole" cx="4062" cy="3152" r="1.8" layerid="11" stroke-width="0"/></g><g c_partid="part_pad" c_etype="pinpart" c_origin="4062,3162" layerid="11" number="9" net="J1_9" plated ="Y"  id="gge630" locked="0" c_rotation="180" c_width="6" c_height="6" title="J1_9" c_shape="ELLIPSE" pasteexpansion="0" solderexpansion="0.2"><ellipse c_etype="pad_shell" cx="4062" cy="3162" rx="3" ry="3" layerid="11" stroke-width="0"/><circle c_etype="pad_hole" cx="4062" cy="3162" r="1.8" layerid="11" stroke-width="0"/></g><g c_partid="part_pad" c_etype="pinpart" c_origin="4062,3172" layerid="11" number="10" net="J1_10" plated ="Y"  id="gge645" locked="0" c_rotation="180" c_width="6" c_height="6" title="J1_10" c_shape="ELLIPSE" pasteexpansion="0" solderexpansion="0.2"><ellipse c_etype="pad_shell" cx="4062" cy="3172" rx="3" ry="3" layerid="11" stroke-width="0"/><circle c_etype="pad_hole" cx="4062" cy="3172" r="1.8" layerid="11" stroke-width="0"/></g><g c_partid="part_pad" c_etype="pinpart" c_origin="4062,3182" layerid="11" number="11" net="J1_11" plated ="Y"  id="gge660" locked="0" c_rotation="180" c_width="6" c_height="6" title="J1_11" c_shape="ELLIPSE" pasteexpansion="0" solderexpansion="0.2"><ellipse c_etype="pad_shell" cx="4062" cy="3182" rx="3" ry="3" layerid="11" stroke-width="0"/><circle c_etype="pad_hole" cx="4062" cy="3182" r="1.8" layerid="11" stroke-width="0"/></g><g c_partid="part_pad" c_etype="pinpart" c_origin="4062,3192" layerid="11" number="12" net="J1_12" plated ="Y"  id="gge675" locked="0" c_rotation="180" c_width="6" c_height="6" title="J1_12" c_shape="ELLIPSE" pasteexpansion="0" solderexpansion="0.2"><ellipse c_etype="pad_shell" cx="4062" cy="3192" rx="3" ry="3" layerid="11" stroke-width="0"/><circle c_etype="pad_hole" cx="4062" cy="3192" r="1.8" layerid="11" stroke-width="0"/></g><g c_partid="part_pad" c_etype="pinpart" c_origin="4062,3202" layerid="11" number="13" net="J1_13" plated ="Y"  id="gge690" locked="0" c_rotation="180" c_width="6" c_height="6" title="J1_13" c_shape="ELLIPSE" pasteexpansion="0" solderexpansion="0.2"><ellipse c_etype="pad_shell" cx="4062" cy="3202" rx="3" ry="3" layerid="11" stroke-width="0"/><circle c_etype="pad_hole" cx="4062" cy="3202" r="1.8" layerid="11" stroke-width="0"/></g><g c_partid="part_pad" c_etype="pinpart" c_origin="4062,3212" layerid="11" number="14" net="J1_14" plated ="Y"  id="gge705" locked="0" c_rotation="180" c_width="6" c_height="6" title="J1_14" c_shape="ELLIPSE" pasteexpansion="0" solderexpansion="0.2"><ellipse c_etype="pad_shell" cx="4062" cy="3212" rx="3" ry="3" layerid="11" stroke-width="0"/><circle c_etype="pad_hole" cx="4062" cy="3212" r="1.8" layerid="11" stroke-width="0"/></g><g c_partid="part_pad" c_etype="pinpart" c_origin="4062,3222" layerid="11" number="15" net="J1_15" plated ="Y"  id="gge720" locked="0" c_rotation="180" c_width="6" c_height="6" title="J1_15" c_shape="ELLIPSE" pasteexpansion="0" solderexpansion="0.2"><ellipse c_etype="pad_shell" cx="4062" cy="3222" rx="3" ry="3" layerid="11" stroke-width="0"/><circle c_etype="pad_hole" cx="4062" cy="3222" r="1.8" layerid="11" stroke-width="0"/></g><g c_partid="part_pad" c_etype="pinpart" c_origin="4122,3222" layerid="11" number="16" net="J1_16" plated ="Y"  id="gge735" locked="0" c_rotation="180" c_width="6" c_height="6" title="J1_16" c_shape="ELLIPSE" pasteexpansion="0" solderexpansion="0.2"><ellipse c_etype="pad_shell" cx="4122" cy="3222" rx="3" ry="3" layerid="11" stroke-width="0"/><circle c_etype="pad_hole" cx="4122" cy="3222" r="1.8" layerid="11" stroke-width="0"/></g><g c_partid="part_pad" c_etype="pinpart" c_origin="4122,3212" layerid="11" number="17" net="VCC3.3VDC" plated ="Y"  id="gge750" locked="0" c_rotation="180" c_width="6" c_height="6" title="VCC3.3VDC" c_shape="ELLIPSE" pasteexpansion="0" solderexpansion="0.2"><ellipse c_etype="pad_shell" cx="4122" cy="3212" rx="3" ry="3" layerid="11" stroke-width="0"/><circle c_etype="pad_hole" cx="4122" cy="3212" r="1.8" layerid="11" stroke-width="0"/></g><g c_partid="part_pad" c_etype="pinpart" c_origin="4122,3202" layerid="11" number="18" net="J1_18" plated ="Y"  id="gge765" locked="0" c_rotation="180" c_width="6" c_height="6" title="J1_18" c_shape="ELLIPSE" pasteexpansion="0" solderexpansion="0.2"><ellipse c_etype="pad_shell" cx="4122" cy="3202" rx="3" ry="3" layerid="11" stroke-width="0"/><circle c_etype="pad_hole" cx="4122" cy="3202" r="1.8" layerid="11" stroke-width="0"/></g><g c_partid="part_pad" c_etype="pinpart" c_origin="4122,3192" layerid="11" number="19" net="J1_19" plated ="Y"  id="gge780" locked="0" c_rotation="180" c_width="6" c_height="6" title="J1_19" c_shape="ELLIPSE" pasteexpansion="0" solderexpansion="0.2"><ellipse c_etype="pad_shell" cx="4122" cy="3192" rx="3" ry="3" layerid="11" stroke-width="0"/><circle c_etype="pad_hole" cx="4122" cy="3192" r="1.8" layerid="11" stroke-width="0"/></g><g c_partid="part_pad" c_etype="pinpart" c_origin="4122,3182" layerid="11" number="20" net="J1_20" plated ="Y"  id="gge795" locked="0" c_rotation="180" c_width="6" c_height="6" title="J1_20" c_shape="ELLIPSE" pasteexpansion="0" solderexpansion="0.2"><ellipse c_etype="pad_shell" cx="4122" cy="3182" rx="3" ry="3" layerid="11" stroke-width="0"/><circle c_etype="pad_hole" cx="4122" cy="3182" r="1.8" layerid="11" stroke-width="0"/></g><g c_partid="part_pad" c_etype="pinpart" c_origin="4122,3172" layerid="11" number="21" net="J1_21" plated ="Y"  id="gge810" locked="0" c_rotation="180" c_width="6" c_height="6" title="J1_21" c_shape="ELLIPSE" pasteexpansion="0" solderexpansion="0.2"><ellipse c_etype="pad_shell" cx="4122" cy="3172" rx="3" ry="3" layerid="11" stroke-width="0"/><circle c_etype="pad_hole" cx="4122" cy="3172" r="1.8" layerid="11" stroke-width="0"/></g><g c_partid="part_pad" c_etype="pinpart" c_origin="4122,3162" layerid="11" number="22" net="J1_22" plated ="Y"  id="gge825" locked="0" c_rotation="180" c_width="6" c_height="6" title="J1_22" c_shape="ELLIPSE" pasteexpansion="0" solderexpansion="0.2"><ellipse c_etype="pad_shell" cx="4122" cy="3162" rx="3" ry="3" layerid="11" stroke-width="0"/><circle c_etype="pad_hole" cx="4122" cy="3162" r="1.8" layerid="11" stroke-width="0"/></g><g c_partid="part_pad" c_etype="pinpart" c_origin="4122,3152" layerid="11" number="23" net="J1_23" plated ="Y"  id="gge840" locked="0" c_rotation="180" c_width="6" c_height="6" title="J1_23" c_shape="ELLIPSE" pasteexpansion="0" solderexpansion="0.2"><ellipse c_etype="pad_shell" cx="4122" cy="3152" rx="3" ry="3" layerid="11" stroke-width="0"/><circle c_etype="pad_hole" cx="4122" cy="3152" r="1.8" layerid="11" stroke-width="0"/></g><g c_partid="part_pad" c_etype="pinpart" c_origin="4122,3142" layerid="11" number="24" net="J1_24" plated ="Y"  id="gge855" locked="0" c_rotation="180" c_width="6" c_height="6" title="J1_24" c_shape="ELLIPSE" pasteexpansion="0" solderexpansion="0.2"><ellipse c_etype="pad_shell" cx="4122" cy="3142" rx="3" ry="3" layerid="11" stroke-width="0"/><circle c_etype="pad_hole" cx="4122" cy="3142" r="1.8" layerid="11" stroke-width="0"/></g><g c_partid="part_pad" c_etype="pinpart" c_origin="4122,3132" layerid="11" number="25" net="J1_25" plated ="Y"  id="gge870" locked="0" c_rotation="180" c_width="6" c_height="6" title="J1_25" c_shape="ELLIPSE" pasteexpansion="0" solderexpansion="0.2"><ellipse c_etype="pad_shell" cx="4122" cy="3132" rx="3" ry="3" layerid="11" stroke-width="0"/><circle c_etype="pad_hole" cx="4122" cy="3132" r="1.8" layerid="11" stroke-width="0"/></g><g c_partid="part_pad" c_etype="pinpart" c_origin="4122,3122" layerid="11" number="26" net="J1_26" plated ="Y"  id="gge885" locked="0" c_rotation="180" c_width="6" c_height="6" title="J1_26" c_shape="ELLIPSE" pasteexpansion="0" solderexpansion="0.2"><ellipse c_etype="pad_shell" cx="4122" cy="3122" rx="3" ry="3" layerid="11" stroke-width="0"/><circle c_etype="pad_hole" cx="4122" cy="3122" r="1.8" layerid="11" stroke-width="0"/></g><g c_partid="part_pad" c_etype="pinpart" c_origin="4122,3112" layerid="11" number="27" net="J1_27" plated ="Y"  id="gge900" locked="0" c_rotation="180" c_width="6" c_height="6" title="J1_27" c_shape="ELLIPSE" pasteexpansion="0" solderexpansion="0.2"><ellipse c_etype="pad_shell" cx="4122" cy="3112" rx="3" ry="3" layerid="11" stroke-width="0"/><circle c_etype="pad_hole" cx="4122" cy="3112" r="1.8" layerid="11" stroke-width="0"/></g><g c_partid="part_pad" c_etype="pinpart" c_origin="4122,3102" layerid="11" number="28" net="J1_28" plated ="Y"  id="gge915" locked="0" c_rotation="180" c_width="6" c_height="6" title="J1_28" c_shape="ELLIPSE" pasteexpansion="0" solderexpansion="0.2"><ellipse c_etype="pad_shell" cx="4122" cy="3102" rx="3" ry="3" layerid="11" stroke-width="0"/><circle c_etype="pad_hole" cx="4122" cy="3102" r="1.8" layerid="11" stroke-width="0"/></g><g c_partid="part_pad" c_etype="pinpart" c_origin="4122,3092" layerid="11" number="29" net="GND" plated ="Y"  id="gge930" locked="0" c_rotation="180" c_width="6" c_height="6" title="GND" c_shape="ELLIPSE" pasteexpansion="0" solderexpansion="0.2"><ellipse c_etype="pad_shell" cx="4122" cy="3092" rx="3" ry="3" layerid="11" stroke-width="0"/><circle c_etype="pad_hole" cx="4122" cy="3092" r="1.8" layerid="11" stroke-width="0"/></g><g c_partid="part_pad" c_etype="pinpart" c_origin="4122,3082" layerid="11" number="30" net="VCC5VDC" plated ="Y"  id="gge945" locked="0" c_rotation="180" c_width="6" c_height="6" title="VCC5VDC" c_shape="ELLIPSE" pasteexpansion="0" solderexpansion="0.2"><ellipse c_etype="pad_shell" cx="4122" cy="3082" rx="3" ry="3" layerid="11" stroke-width="0"/><circle c_etype="pad_hole" cx="4122" cy="3082" r="1.8" layerid="11" stroke-width="0"/></g><g c_partid="part_pad" c_etype="pinpart" c_origin="4174.5,3237" layerid="11" number="1" net="P1_1" plated ="Y"  id="gge1044" locked="0" c_rotation="0" c_width="6" c_height="6" title="P1_1" c_shape="ELLIPSE" pasteexpansion="0" solderexpansion="0.2"><ellipse c_etype="pad_shell" cx="4174.5" cy="3237" rx="3" ry="3" layerid="11" stroke-width="0"/><circle c_etype="pad_hole" cx="4174.5" cy="3237" r="2.165" layerid="11" stroke-width="0"/></g><g c_partid="part_pad" c_etype="pinpart" c_origin="4174.5,3227" layerid="11" number="2" net="J1_9" plated ="Y"  id="gge1059" locked="0" c_rotation="0" c_width="6" c_height="6" title="J1_9" c_shape="ELLIPSE" pasteexpansion="0" solderexpansion="0.2"><ellipse c_etype="pad_shell" cx="4174.5" cy="3227" rx="3" ry="3" layerid="11" stroke-width="0"/><circle c_etype="pad_hole" cx="4174.5" cy="3227" r="2.165" layerid="11" stroke-width="0"/></g><g c_partid="part_pad" c_etype="pinpart" c_origin="4184.5,3237" layerid="11" number="3" net="P1_3" plated ="Y"  id="gge1074" locked="0" c_rotation="0" c_width="6" c_height="6" title="P1_3" c_shape="ELLIPSE" pasteexpansion="0" solderexpansion="0.2"><ellipse c_etype="pad_shell" cx="4184.5" cy="3237" rx="3" ry="3" layerid="11" stroke-width="0"/><circle c_etype="pad_hole" cx="4184.5" cy="3237" r="2.165" layerid="11" stroke-width="0"/></g><g c_partid="part_pad" c_etype="pinpart" c_origin="4184.5,3227" layerid="11" number="4" net="J1_11" plated ="Y"  id="gge1089" locked="0" c_rotation="0" c_width="6" c_height="6" title="J1_11" c_shape="ELLIPSE" pasteexpansion="0" solderexpansion="0.2"><ellipse c_etype="pad_shell" cx="4184.5" cy="3227" rx="3" ry="3" layerid="11" stroke-width="0"/><circle c_etype="pad_hole" cx="4184.5" cy="3227" r="2.165" layerid="11" stroke-width="0"/></g><g c_partid="part_pad" c_etype="pinpart" c_origin="4194.5,3237" layerid="11" number="5" net="P1_5" plated ="Y"  id="gge1104" locked="0" c_rotation="0" c_width="6" c_height="6" title="P1_5" c_shape="ELLIPSE" pasteexpansion="0" solderexpansion="0.2"><ellipse c_etype="pad_shell" cx="4194.5" cy="3237" rx="3" ry="3" layerid="11" stroke-width="0"/><circle c_etype="pad_hole" cx="4194.5" cy="3237" r="2.165" layerid="11" stroke-width="0"/></g><g c_partid="part_pad" c_etype="pinpart" c_origin="4194.5,3227" layerid="11" number="6" net="J1_10" plated ="Y"  id="gge1119" locked="0" c_rotation="0" c_width="6" c_height="6" title="J1_10" c_shape="ELLIPSE" pasteexpansion="0" solderexpansion="0.2"><ellipse c_etype="pad_shell" cx="4194.5" cy="3227" rx="3" ry="3" layerid="11" stroke-width="0"/><circle c_etype="pad_hole" cx="4194.5" cy="3227" r="2.165" layerid="11" stroke-width="0"/></g><g c_partid="part_pad" c_etype="pinpart" c_origin="4225,3095" layerid="11" number="1" net="J1_9" plated ="Y"  id="gge1188" locked="0" c_rotation="0" c_width="7.4" c_height="7.4" title="J1_9" c_shape="ELLIPSE" pasteexpansion="0" solderexpansion="0.2"><ellipse c_etype="pad_shell" cx="4225" cy="3095" rx="3.7" ry="3.7" layerid="11" stroke-width="0"/><circle c_etype="pad_hole" cx="4225" cy="3095" r="1.77" layerid="11" stroke-width="0"/></g><g c_partid="part_pad" c_etype="pinpart" c_origin="4265,3095" layerid="11" number="2" net="VCC3.3VDC" plated ="Y"  id="gge1203" locked="0" c_rotation="0" c_width="7.4" c_height="7.4" title="VCC3.3VDC" c_shape="ELLIPSE" pasteexpansion="0" solderexpansion="0.2"><ellipse c_etype="pad_shell" cx="4265" cy="3095" rx="3.7" ry="3.7" layerid="11" stroke-width="0"/><circle c_etype="pad_hole" cx="4265" cy="3095" r="1.77" layerid="11" stroke-width="0"/></g><g c_partid="part_pad" c_etype="pinpart" c_origin="4224,3116.5" layerid="11" number="1" net="J1_11" plated ="Y"  id="gge1272" locked="0" c_rotation="0" c_width="7.4" c_height="7.4" title="J1_11" c_shape="ELLIPSE" pasteexpansion="0" solderexpansion="0.2"><ellipse c_etype="pad_shell" cx="4224" cy="3116.5" rx="3.7" ry="3.7" layerid="11" stroke-width="0"/><circle c_etype="pad_hole" cx="4224" cy="3116.5" r="1.77" layerid="11" stroke-width="0"/></g><g c_partid="part_pad" c_etype="pinpart" c_origin="4264,3116.5" layerid="11" number="2" net="VCC3.3VDC" plated ="Y"  id="gge1287" locked="0" c_rotation="0" c_width="7.4" c_height="7.4" title="VCC3.3VDC" c_shape="ELLIPSE" pasteexpansion="0" solderexpansion="0.2"><ellipse c_etype="pad_shell" cx="4264" cy="3116.5" rx="3.7" ry="3.7" layerid="11" stroke-width="0"/><circle c_etype="pad_hole" cx="4264" cy="3116.5" r="1.77" layerid="11" stroke-width="0"/></g><g c_partid="part_pad" c_etype="pinpart" c_origin="4223.5,3137.5" layerid="11" number="1" net="J1_10" plated ="Y"  id="gge1356" locked="0" c_rotation="0" c_width="7.4" c_height="7.4" title="J1_10" c_shape="ELLIPSE" pasteexpansion="0" solderexpansion="0.2"><ellipse c_etype="pad_shell" cx="4223.5" cy="3137.5" rx="3.7" ry="3.7" layerid="11" stroke-width="0"/><circle c_etype="pad_hole" cx="4223.5" cy="3137.5" r="1.77" layerid="11" stroke-width="0"/></g><g c_partid="part_pad" c_etype="pinpart" c_origin="4263.5,3137.5" layerid="11" number="2" net="VCC3.3VDC" plated ="Y"  id="gge1371" locked="0" c_rotation="0" c_width="7.4" c_height="7.4" title="VCC3.3VDC" c_shape="ELLIPSE" pasteexpansion="0" solderexpansion="0.2"><ellipse c_etype="pad_shell" cx="4263.5" cy="3137.5" rx="3.7" ry="3.7" layerid="11" stroke-width="0"/><circle c_etype="pad_hole" cx="4263.5" cy="3137.5" r="1.77" layerid="11" stroke-width="0"/></g><g c_partid="part_pad" c_etype="pinpart" c_origin="4152.5,3096" layerid="11" number="1" net="H2_7" plated ="Y"  id="gge1440" locked="0" c_rotation="0" c_width="7.4" c_height="7.4" title="H2_7" c_shape="ELLIPSE" pasteexpansion="0" solderexpansion="0.2"><ellipse c_etype="pad_shell" cx="4152.5" cy="3096" rx="3.7" ry="3.7" layerid="11" stroke-width="0"/><circle c_etype="pad_hole" cx="4152.5" cy="3096" r="1.77" layerid="11" stroke-width="0"/></g><g c_partid="part_pad" c_etype="pinpart" c_origin="4192.5,3096" layerid="11" number="2" net="J1_14" plated ="Y"  id="gge1455" locked="0" c_rotation="0" c_width="7.4" c_height="7.4" title="J1_14" c_shape="ELLIPSE" pasteexpansion="0" solderexpansion="0.2"><ellipse c_etype="pad_shell" cx="4192.5" cy="3096" rx="3.7" ry="3.7" layerid="11" stroke-width="0"/><circle c_etype="pad_hole" cx="4192.5" cy="3096" r="1.77" layerid="11" stroke-width="0"/></g><g c_partid="part_pad" c_etype="pinpart" c_origin="4152.5,3116.5" layerid="11" number="1" net="H2_6" plated ="Y"  id="gge1524" locked="0" c_rotation="0" c_width="7.4" c_height="7.4" title="H2_6" c_shape="ELLIPSE" pasteexpansion="0" solderexpansion="0.2"><ellipse c_etype="pad_shell" cx="4152.5" cy="3116.5" rx="3.7" ry="3.7" layerid="11" stroke-width="0"/><circle c_etype="pad_hole" cx="4152.5" cy="3116.5" r="1.77" layerid="11" stroke-width="0"/></g><g c_partid="part_pad" c_etype="pinpart" c_origin="4192.5,3116.5" layerid="11" number="2" net="J1_15" plated ="Y"  id="gge1539" locked="0" c_rotation="0" c_width="7.4" c_height="7.4" title="J1_15" c_shape="ELLIPSE" pasteexpansion="0" solderexpansion="0.2"><ellipse c_etype="pad_shell" cx="4192.5" cy="3116.5" rx="3.7" ry="3.7" layerid="11" stroke-width="0"/><circle c_etype="pad_hole" cx="4192.5" cy="3116.5" r="1.77" layerid="11" stroke-width="0"/></g><g c_partid="part_pad" c_etype="pinpart" c_origin="4153.5,3138" layerid="11" number="1" net="H2_8" plated ="Y"  id="gge1608" locked="0" c_rotation="0" c_width="7.4" c_height="7.4" title="H2_8" c_shape="ELLIPSE" pasteexpansion="0" solderexpansion="0.2"><ellipse c_etype="pad_shell" cx="4153.5" cy="3138" rx="3.7" ry="3.7" layerid="11" stroke-width="0"/><circle c_etype="pad_hole" cx="4153.5" cy="3138" r="1.77" layerid="11" stroke-width="0"/></g><g c_partid="part_pad" c_etype="pinpart" c_origin="4193.5,3138" layerid="11" number="2" net="J1_13" plated ="Y"  id="gge1623" locked="0" c_rotation="0" c_width="7.4" c_height="7.4" title="J1_13" c_shape="ELLIPSE" pasteexpansion="0" solderexpansion="0.2"><ellipse c_etype="pad_shell" cx="4193.5" cy="3138" rx="3.7" ry="3.7" layerid="11" stroke-width="0"/><circle c_etype="pad_hole" cx="4193.5" cy="3138" r="1.77" layerid="11" stroke-width="0"/></g><g c_partid="part_pad" c_etype="pinpart" c_origin="4243.501,3223.079" layerid="11" number="2" net="J1_21" plated ="Y"  id="gge1689" locked="0" c_rotation="0" c_width="6" c_height="6" title="J1_21" c_shape="ELLIPSE" pasteexpansion="0" solderexpansion="0.2"><ellipse c_etype="pad_shell" cx="4243.501" cy="3223.079" rx="3" ry="3" layerid="11" stroke-width="0"/><circle c_etype="pad_hole" cx="4243.5005" cy="3223.0782" r="1.378" layerid="11" stroke-width="0"/></g><g c_partid="part_pad" c_etype="pinpart" c_origin="4253.343,3232.921" layerid="11" number="1" net="VCC3.3VDC" plated ="Y"  id="gge1704" locked="0" c_rotation="0" c_width="6" c_height="6" title="VCC3.3VDC" c_shape="ELLIPSE" pasteexpansion="0" solderexpansion="0.2"><ellipse c_etype="pad_shell" cx="4253.343" cy="3232.921" rx="3" ry="3" layerid="11" stroke-width="0"/><circle c_etype="pad_hole" cx="4253.3425" cy="3232.9208" r="1.378" layerid="11" stroke-width="0"/></g><g c_partid="part_pad" c_etype="pinpart" c_origin="4233.658,3232.921" layerid="11" number="3" net="GND" plated ="Y"  id="gge1719" locked="0" c_rotation="0" c_width="6" c_height="6" title="GND" c_shape="ELLIPSE" pasteexpansion="0" solderexpansion="0.2"><ellipse c_etype="pad_shell" cx="4233.658" cy="3232.921" rx="3" ry="3" layerid="11" stroke-width="0"/><circle c_etype="pad_hole" cx="4233.6575" cy="3232.9208" r="1.378" layerid="11" stroke-width="0"/></g><g c_partid="part_pad" c_etype="pinpart" c_origin="4244.501,3165.579" layerid="11" number="2" net="J1_19" plated ="Y"  id="gge1785" locked="0" c_rotation="0" c_width="6" c_height="6" title="J1_19" c_shape="ELLIPSE" pasteexpansion="0" solderexpansion="0.2"><ellipse c_etype="pad_shell" cx="4244.501" cy="3165.579" rx="3" ry="3" layerid="11" stroke-width="0"/><circle c_etype="pad_hole" cx="4244.5005" cy="3165.5782" r="1.378" layerid="11" stroke-width="0"/></g><g c_partid="part_pad" c_etype="pinpart" c_origin="4254.343,3175.421" layerid="11" number="1" net="VCC3.3VDC" plated ="Y"  id="gge1800" locked="0" c_rotation="0" c_width="6" c_height="6" title="VCC3.3VDC" c_shape="ELLIPSE" pasteexpansion="0" solderexpansion="0.2"><ellipse c_etype="pad_shell" cx="4254.343" cy="3175.421" rx="3" ry="3" layerid="11" stroke-width="0"/><circle c_etype="pad_hole" cx="4254.3425" cy="3175.4208" r="1.378" layerid="11" stroke-width="0"/></g><g c_partid="part_pad" c_etype="pinpart" c_origin="4234.658,3175.421" layerid="11" number="3" net="GND" plated ="Y"  id="gge1815" locked="0" c_rotation="0" c_width="6" c_height="6" title="GND" c_shape="ELLIPSE" pasteexpansion="0" solderexpansion="0.2"><ellipse c_etype="pad_shell" cx="4234.658" cy="3175.421" rx="3" ry="3" layerid="11" stroke-width="0"/><circle c_etype="pad_hole" cx="4234.6575" cy="3175.4208" r="1.378" layerid="11" stroke-width="0"/></g><g c_partid="part_hole" c_etype="pinpart" c_shapetype="group" c_origin="4059,3252.5" layerid="11" id="gge1938" locked="0" ><circle cx="4059" cy="3252.5" r="4"  stroke-width="1" fill-opacity="0" /></g><g c_partid="part_hole" c_etype="pinpart" c_shapetype="group" c_origin="4271.5,3255" layerid="11" id="gge1953" locked="0" ><circle cx="4271.5" cy="3255" r="4"  stroke-width="1" fill-opacity="0" /></g><g c_partid="part_hole" c_etype="pinpart" c_shapetype="group" c_origin="4057,3058" layerid="11" id="gge1968" locked="0" ><circle cx="4057" cy="3058" r="4"  stroke-width="1" fill-opacity="0" /></g><g c_partid="part_hole" c_etype="pinpart" c_shapetype="group" c_origin="4271,3058" layerid="11" id="gge1998" locked="0" ><circle cx="4271" cy="3058" r="4"  stroke-width="1" fill-opacity="0" /></g><polyline points="4099.99 3054.51 4079.99 3054.51 4079.99 3064.51 4099.99 3064.51 4099.99 3054.51" stroke-width="0.79"  stroke-linecap="round" fill="none" layerid="3" net="" id="gge21" locked="0" /><polyline points="4114.49 3243.01 4094.49 3243.01 4094.49 3253.01 4114.49 3253.01 4114.49 3243.01" stroke-width="0.79"  stroke-linecap="round" fill="none" layerid="3" net="" id="gge90" locked="0" /><polyline points="4154 3054.5 4154 3064.4 4134 3064.4 4134 3054.5 4154 3054.5" stroke-width="0.8"  stroke-linecap="round" fill="none" layerid="3" net="" id="gge159" locked="0" /><polyline points="4257 3055 4257 3065 4177 3065 4177 3055 4184.5 3055" stroke-width="0.8"  stroke-linecap="round" fill="none" layerid="3" net="" id="gge228" locked="0" /><polyline points="4257 3055 4184.5 3055" stroke-width="0.79921"  stroke-linecap="round" fill="none" layerid="3" net="" id="gge231" locked="0" /><polyline points="4056.567 3066.961 4127.433 3066.961 4127.433 3237.04 4056.567 3237.04 4056.567 3066.961" stroke-width="1"  stroke-linecap="round" fill="none" layerid="3" net="" id="gge411" locked="0" /><polyline points="4215.7 3214.267 4215.7 3249.7" stroke-width="1"  stroke-linecap="round" fill="none" layerid="3" net="" id="gge978" locked="0" /><polyline points="4210.2 3219.1 4210.2 3244.966" stroke-width="1"  stroke-linecap="round" fill="none" layerid="3" net="" id="gge981" locked="0" /><polyline points="4153.51 3214.2 4215.72 3214.2" stroke-width="1"  stroke-linecap="round" fill="none" layerid="3" net="" id="gge984" locked="0" /><polyline points="4153.4 3249.633 4153.4 3214.2" stroke-width="1"  stroke-linecap="round" fill="none" layerid="3" net="" id="gge987" locked="0" /><polyline points="4159 3244.9 4159 3219.034" stroke-width="1"  stroke-linecap="round" fill="none" layerid="3" net="" id="gge990" locked="0" /><polyline points="4153.5 3249.7 4215.689 3249.7" stroke-width="1"  stroke-linecap="round" fill="none" layerid="3" net="" id="gge993" locked="0" /><polyline points="4159.034 3219 4210.209 3219" stroke-width="1"  stroke-linecap="round" fill="none" layerid="3" net="" id="gge996" locked="0" /><polyline points="4162.7 3244.9 4165.6 3242 4168.5 3244.9 4168.5 3245" stroke-width="1"  stroke-linecap="round" fill="none" layerid="3" net="" id="gge999" locked="0" /><polyline points="4179.7 3240.9 4179.7 3249.4" stroke-width="1"  stroke-linecap="round" fill="none" layerid="3" net="" id="gge1002" locked="0" /><polyline points="4179.7 3240.9 4190.1 3240.9 4190.1 3249.7 4200 3249.7" stroke-width="1"  stroke-linecap="round" fill="none" layerid="3" net="" id="gge1005" locked="0" /><polyline points="4159.2 3245 4159 3245 4179.5 3245 4179.6 3244.9" stroke-width="1"  stroke-linecap="round" fill="none" layerid="3" net="" id="gge1008" locked="0" /><polyline points="4190.1 3244.9 4190.3 3245 4210 3245 4210.1 3244.9" stroke-width="1"  stroke-linecap="round" fill="none" layerid="3" net="" id="gge1011" locked="0" /><polyline points="4232.6 3099.7 4232.6 3090.3" stroke-width="1"  stroke-linecap="round" fill="none" layerid="3" net="" id="gge1152" locked="0" /><polyline points="4232.6 3090.3 4257.4 3090.3" stroke-width="1"  stroke-linecap="round" fill="none" layerid="3" net="" id="gge1155" locked="0" /><polyline points="4257.4 3090.3 4257.4 3099.7" stroke-width="1"  stroke-linecap="round" fill="none" layerid="3" net="" id="gge1158" locked="0" /><polyline points="4257.4 3099.7 4232.6 3099.7" stroke-width="1"  stroke-linecap="round" fill="none" layerid="3" net="" id="gge1161" locked="0" /><polyline points="4231.6 3121.2 4231.6 3111.8" stroke-width="1"  stroke-linecap="round" fill="none" layerid="3" net="" id="gge1236" locked="0" /><polyline points="4231.6 3111.8 4256.4 3111.8" stroke-width="1"  stroke-linecap="round" fill="none" layerid="3" net="" id="gge1239" locked="0" /><polyline points="4256.4 3111.8 4256.4 3121.2" stroke-width="1"  stroke-linecap="round" fill="none" layerid="3" net="" id="gge1242" locked="0" /><polyline points="4256.4 3121.2 4231.6 3121.2" stroke-width="1"  stroke-linecap="round" fill="none" layerid="3" net="" id="gge1245" locked="0" /><polyline points="4231.1 3142.2 4231.1 3132.8" stroke-width="1"  stroke-linecap="round" fill="none" layerid="3" net="" id="gge1320" locked="0" /><polyline points="4231.1 3132.8 4255.9 3132.8" stroke-width="1"  stroke-linecap="round" fill="none" layerid="3" net="" id="gge1323" locked="0" /><polyline points="4255.9 3132.8 4255.9 3142.2" stroke-width="1"  stroke-linecap="round" fill="none" layerid="3" net="" id="gge1326" locked="0" /><polyline points="4255.9 3142.2 4231.1 3142.2" stroke-width="1"  stroke-linecap="round" fill="none" layerid="3" net="" id="gge1329" locked="0" /><polyline points="4160.1 3100.7 4160.1 3091.3" stroke-width="1"  stroke-linecap="round" fill="none" layerid="3" net="" id="gge1404" locked="0" /><polyline points="4160.1 3091.3 4184.9 3091.3" stroke-width="1"  stroke-linecap="round" fill="none" layerid="3" net="" id="gge1407" locked="0" /><polyline points="4184.9 3091.3 4184.9 3100.7" stroke-width="1"  stroke-linecap="round" fill="none" layerid="3" net="" id="gge1410" locked="0" /><polyline points="4184.9 3100.7 4160.1 3100.7" stroke-width="1"  stroke-linecap="round" fill="none" layerid="3" net="" id="gge1413" locked="0" /><polyline points="4160.1 3121.2 4160.1 3111.8" stroke-width="1"  stroke-linecap="round" fill="none" layerid="3" net="" id="gge1488" locked="0" /><polyline points="4160.1 3111.8 4184.9 3111.8" stroke-width="1"  stroke-linecap="round" fill="none" layerid="3" net="" id="gge1491" locked="0" /><polyline points="4184.9 3111.8 4184.9 3121.2" stroke-width="1"  stroke-linecap="round" fill="none" layerid="3" net="" id="gge1494" locked="0" /><polyline points="4184.9 3121.2 4160.1 3121.2" stroke-width="1"  stroke-linecap="round" fill="none" layerid="3" net="" id="gge1497" locked="0" /><polyline points="4161.1 3142.7 4161.1 3133.3" stroke-width="1"  stroke-linecap="round" fill="none" layerid="3" net="" id="gge1572" locked="0" /><polyline points="4161.1 3133.3 4185.9 3133.3" stroke-width="1"  stroke-linecap="round" fill="none" layerid="3" net="" id="gge1575" locked="0" /><polyline points="4185.9 3133.3 4185.9 3142.7" stroke-width="1"  stroke-linecap="round" fill="none" layerid="3" net="" id="gge1578" locked="0" /><polyline points="4185.9 3142.7 4161.1 3142.7" stroke-width="1"  stroke-linecap="round" fill="none" layerid="3" net="" id="gge1581" locked="0" /><polyline points="4224.5 3213.8307 4224.5 3250.8307 4262 3250.8307 4262 3213.3307 4260.5 3213.3307 4260.5 3215.3307 4227 3215.3307 4227 3213.8307 4224.5 3213.8307" stroke-width="1"  stroke-linecap="round" fill="none" layerid="3" net="" id="gge1674" locked="0" /><polyline points="4248.8286 3234.2989 4238.1575 3234.2989" stroke-width="1"  stroke-linecap="round" fill="none" layerid="3" net="" id="gge1677" locked="0" /><polyline points="4225.5 3156.3307 4225.5 3193.3307 4263 3193.3307 4263 3155.8307 4261.5 3155.8307 4261.5 3157.8307 4228 3157.8307 4228 3156.3307 4225.5 3156.3307" stroke-width="1"  stroke-linecap="round" fill="none" layerid="3" net="" id="gge1770" locked="0" /><polyline points="4249.8286 3176.7989 4239.1575 3176.7989" stroke-width="1"  stroke-linecap="round" fill="none" layerid="3" net="" id="gge1773" locked="0" /><g c_partid="part_pcbtext" c_etype="" c_origin="4089.1,3045.2" c_rotation="0" c_mirror="0" id="gge9" locked="0" layerid="3" c_shapetype="group" display="none"><path c_fontsize="4.5" c_fontfamily="" c_text="1u" d="M 4089.1 3041.48 L 4089.51 3041.27 L 4090.12 3040.66 L 4090.12 3044.95 M 4091.47 3042.09 L 4091.47 3044.14 L 4091.68 3044.75 L 4092.09 3044.95 L 4092.7 3044.95 L 4093.11 3044.75 L 4093.72 3044.14 M 4093.72 3042.09 L 4093.72 3044.95" fill="none"  stroke-width="0.6" c_note="note_name" /></g><g c_partid="part_pcbtext" c_etype="" c_origin="4067.5,3062" c_rotation="0" c_mirror="0" id="gge15" locked="0" layerid="3" c_shapetype="group" ><path c_fontsize="4.5" c_fontfamily="" c_text="C2" d="M 4070.57 3058.48 L 4070.36 3058.07 L 4069.95 3057.66 L 4069.55 3057.46 L 4068.73 3057.46 L 4068.32 3057.66 L 4067.91 3058.07 L 4067.7 3058.48 L 4067.5 3059.1 L 4067.5 3060.12 L 4067.7 3060.73 L 4067.91 3061.14 L 4068.32 3061.55 L 4068.73 3061.75 L 4069.55 3061.75 L 4069.95 3061.55 L 4070.36 3061.14 L 4070.57 3060.73 M 4072.12 3058.48 L 4072.12 3058.28 L 4072.33 3057.87 L 4072.53 3057.66 L 4072.94 3057.46 L 4073.76 3057.46 L 4074.17 3057.66 L 4074.37 3057.87 L 4074.58 3058.28 L 4074.58 3058.69 L 4074.37 3059.1 L 4073.96 3059.71 L 4071.92 3061.75 L 4074.78 3061.75" fill="none"  stroke-width="0.6" c_note="note_pre" /></g><g c_partid="part_pcbtext" c_etype="" c_origin="4103.6,3233.7" c_rotation="0" c_mirror="0" id="gge78" locked="0" layerid="3" c_shapetype="group" display="none"><path c_fontsize="4.5" c_fontfamily="" c_text="1u" d="M 4103.6 3229.98 L 4104.01 3229.77 L 4104.62 3229.16 L 4104.62 3233.45 M 4105.97 3230.59 L 4105.97 3232.64 L 4106.18 3233.25 L 4106.59 3233.45 L 4107.2 3233.45 L 4107.61 3233.25 L 4108.22 3232.64 M 4108.22 3230.59 L 4108.22 3233.45" fill="none"  stroke-width="0.6" c_note="note_name" /></g><g c_partid="part_pcbtext" c_etype="" c_origin="4103.6,3240.7" c_rotation="0" c_mirror="0" id="gge84" locked="0" layerid="3" c_shapetype="group" ><path c_fontsize="4.5" c_fontfamily="" c_text="C3" d="M 4106.67 3237.18 L 4106.46 3236.77 L 4106.05 3236.36 L 4105.65 3236.16 L 4104.83 3236.16 L 4104.42 3236.36 L 4104.01 3236.77 L 4103.8 3237.18 L 4103.6 3237.8 L 4103.6 3238.82 L 4103.8 3239.43 L 4104.01 3239.84 L 4104.42 3240.25 L 4104.83 3240.45 L 4105.65 3240.45 L 4106.05 3240.25 L 4106.46 3239.84 L 4106.67 3239.43 M 4108.43 3236.16 L 4110.68 3236.16 L 4109.45 3237.8 L 4110.06 3237.8 L 4110.47 3238 L 4110.68 3238.2 L 4110.88 3238.82 L 4110.88 3239.23 L 4110.68 3239.84 L 4110.27 3240.25 L 4109.65 3240.45 L 4109.04 3240.45 L 4108.43 3240.25 L 4108.22 3240.05 L 4108.02 3239.64" fill="none"  stroke-width="0.6" c_note="note_pre" /></g><g c_partid="part_pcbtext" c_etype="" c_origin="4143,3046.5" c_rotation="0" c_mirror="0" id="gge147" locked="0" layerid="3" c_shapetype="group" display="none"><path c_fontsize="4.5" c_fontfamily="" c_text="Power Input" d="M 4143 3041.96 L 4143 3046.25 M 4143 3041.96 L 4144.84 3041.96 L 4145.45 3042.16 L 4145.66 3042.37 L 4145.86 3042.78 L 4145.86 3043.39 L 4145.66 3043.8 L 4145.45 3044 L 4144.84 3044.21 L 4143 3044.21 M 4148.24 3043.39 L 4147.83 3043.6 L 4147.42 3044 L 4147.21 3044.62 L 4147.21 3045.03 L 4147.42 3045.64 L 4147.83 3046.05 L 4148.24 3046.25 L 4148.85 3046.25 L 4149.26 3046.05 L 4149.67 3045.64 L 4149.87 3045.03 L 4149.87 3044.62 L 4149.67 3044 L 4149.26 3043.6 L 4148.85 3043.39 L 4148.24 3043.39 M 4151.22 3043.39 L 4152.04 3046.25 M 4152.86 3043.39 L 4152.04 3046.25 M 4152.86 3043.39 L 4153.68 3046.25 M 4154.5 3043.39 L 4153.68 3046.25 M 4155.85 3044.62 L 4158.3 3044.62 L 4158.3 3044.21 L 4158.1 3043.8 L 4157.89 3043.6 L 4157.48 3043.39 L 4156.87 3043.39 L 4156.46 3043.6 L 4156.05 3044 L 4155.85 3044.62 L 4155.85 3045.03 L 4156.05 3045.64 L 4156.46 3046.05 L 4156.87 3046.25 L 4157.48 3046.25 L 4157.89 3046.05 L 4158.3 3045.64 M 4159.65 3043.39 L 4159.65 3046.25 M 4159.65 3044.62 L 4159.85 3044 L 4160.26 3043.6 L 4160.67 3043.39 L 4161.29 3043.39 M 4165.79 3041.96 L 4165.79 3046.25 M 4167.14 3043.39 L 4167.14 3046.25 M 4167.14 3044.21 L 4167.75 3043.6 L 4168.16 3043.39 L 4168.77 3043.39 L 4169.18 3043.6 L 4169.39 3044.21 L 4169.39 3046.25 M 4170.74 3043.39 L 4170.74 3047.69 M 4170.74 3044 L 4171.15 3043.6 L 4171.55 3043.39 L 4172.17 3043.39 L 4172.58 3043.6 L 4172.99 3044 L 4173.19 3044.62 L 4173.19 3045.03 L 4172.99 3045.64 L 4172.58 3046.05 L 4172.17 3046.25 L 4171.55 3046.25 L 4171.15 3046.05 L 4170.74 3045.64 M 4174.54 3043.39 L 4174.54 3045.44 L 4174.75 3046.05 L 4175.15 3046.25 L 4175.77 3046.25 L 4176.18 3046.05 L 4176.79 3045.44 M 4176.79 3043.39 L 4176.79 3046.25 M 4178.75 3041.96 L 4178.75 3045.44 L 4178.96 3046.05 L 4179.37 3046.25 L 4179.78 3046.25 M 4178.14 3043.39 L 4179.57 3043.39" fill="none"  stroke-width="0.6" c_note="note_name" /></g><g c_partid="part_pcbtext" c_etype="" c_origin="4160.5,3062" c_rotation="0" c_mirror="0" id="gge153" locked="0" layerid="3" c_shapetype="group" ><path c_fontsize="4.5" c_fontfamily="" c_text="H1" d="M 4160.5 3057.46 L 4160.5 3061.75 M 4163.36 3057.46 L 4163.36 3061.75 M 4160.5 3059.5 L 4163.36 3059.5 M 4164.71 3058.28 L 4165.12 3058.07 L 4165.74 3057.46 L 4165.74 3061.75" fill="none"  stroke-width="0.6" c_note="note_pre" /></g><g c_partid="part_pcbtext" c_etype="" c_origin="4216,3047" c_rotation="0" c_mirror="0" id="gge216" locked="0" layerid="3" c_shapetype="group" display="none"><path c_fontsize="4.5" c_fontfamily="" c_text="Led Interface" d="M 4216 3042.46 L 4216 3046.75 M 4216 3046.75 L 4218.45 3046.75 M 4219.8 3045.12 L 4222.26 3045.12 L 4222.26 3044.71 L 4222.05 3044.3 L 4221.85 3044.1 L 4221.44 3043.89 L 4220.83 3043.89 L 4220.42 3044.1 L 4220.01 3044.5 L 4219.8 3045.12 L 4219.8 3045.53 L 4220.01 3046.14 L 4220.42 3046.55 L 4220.83 3046.75 L 4221.44 3046.75 L 4221.85 3046.55 L 4222.26 3046.14 M 4226.06 3042.46 L 4226.06 3046.75 M 4226.06 3044.5 L 4225.65 3044.1 L 4225.25 3043.89 L 4224.63 3043.89 L 4224.22 3044.1 L 4223.81 3044.5 L 4223.61 3045.12 L 4223.61 3045.53 L 4223.81 3046.14 L 4224.22 3046.55 L 4224.63 3046.75 L 4225.25 3046.75 L 4225.65 3046.55 L 4226.06 3046.14 M 4230.56 3042.46 L 4230.56 3046.75 M 4231.91 3043.89 L 4231.91 3046.75 M 4231.91 3044.71 L 4232.53 3044.1 L 4232.94 3043.89 L 4233.55 3043.89 L 4233.96 3044.1 L 4234.16 3044.71 L 4234.16 3046.75 M 4236.13 3042.46 L 4236.13 3045.94 L 4236.33 3046.55 L 4236.74 3046.75 L 4237.15 3046.75 M 4235.51 3043.89 L 4236.95 3043.89 M 4238.5 3045.12 L 4240.95 3045.12 L 4240.95 3044.71 L 4240.75 3044.3 L 4240.55 3044.1 L 4240.14 3043.89 L 4239.52 3043.89 L 4239.11 3044.1 L 4238.7 3044.5 L 4238.5 3045.12 L 4238.5 3045.53 L 4238.7 3046.14 L 4239.11 3046.55 L 4239.52 3046.75 L 4240.14 3046.75 L 4240.55 3046.55 L 4240.95 3046.14 M 4242.3 3043.89 L 4242.3 3046.75 M 4242.3 3045.12 L 4242.51 3044.5 L 4242.92 3044.1 L 4243.33 3043.89 L 4243.94 3043.89 M 4246.93 3042.46 L 4246.52 3042.46 L 4246.11 3042.66 L 4245.9 3043.28 L 4245.9 3046.75 M 4245.29 3043.89 L 4246.72 3043.89 M 4250.73 3043.89 L 4250.73 3046.75 M 4250.73 3044.5 L 4250.32 3044.1 L 4249.91 3043.89 L 4249.3 3043.89 L 4248.89 3044.1 L 4248.48 3044.5 L 4248.28 3045.12 L 4248.28 3045.53 L 4248.48 3046.14 L 4248.89 3046.55 L 4249.3 3046.75 L 4249.91 3046.75 L 4250.32 3046.55 L 4250.73 3046.14 M 4254.54 3044.5 L 4254.13 3044.1 L 4253.72 3043.89 L 4253.1 3043.89 L 4252.7 3044.1 L 4252.29 3044.5 L 4252.08 3045.12 L 4252.08 3045.53 L 4252.29 3046.14 L 4252.7 3046.55 L 4253.1 3046.75 L 4253.72 3046.75 L 4254.13 3046.55 L 4254.54 3046.14 M 4255.89 3045.12 L 4258.34 3045.12 L 4258.34 3044.71 L 4258.14 3044.3 L 4257.93 3044.1 L 4257.52 3043.89 L 4256.91 3043.89 L 4256.5 3044.1 L 4256.09 3044.5 L 4255.89 3045.12 L 4255.89 3045.53 L 4256.09 3046.14 L 4256.5 3046.55 L 4256.91 3046.75 L 4257.52 3046.75 L 4257.93 3046.55 L 4258.34 3046.14" fill="none"  stroke-width="0.6" c_note="note_name" /></g><g c_partid="part_pcbtext" c_etype="" c_origin="4247,3073" c_rotation="0" c_mirror="0" id="gge222" locked="0" layerid="3" c_shapetype="group" ><path c_fontsize="4.5" c_fontfamily="" c_text="H2" d="M 4247 3068.46 L 4247 3072.75 M 4249.86 3068.46 L 4249.86 3072.75 M 4247 3070.5 L 4249.86 3070.5 M 4251.42 3069.48 L 4251.42 3069.28 L 4251.62 3068.87 L 4251.83 3068.66 L 4252.24 3068.46 L 4253.05 3068.46 L 4253.46 3068.66 L 4253.67 3068.87 L 4253.87 3069.28 L 4253.87 3069.69 L 4253.67 3070.1 L 4253.26 3070.71 L 4251.21 3072.75 L 4254.08 3072.75" fill="none"  stroke-width="0.6" c_note="note_pre" /></g><g c_partid="part_pcbtext" c_etype="" c_origin="4091,3058" c_rotation="0" c_mirror="0" id="gge396" locked="0" layerid="3" c_shapetype="group" display="none"><path c_fontsize="4.5" c_fontfamily="" c_text="Arduino_Nano_Header" d="M 4092.64 3053.46 L 4091 3057.75 M 4092.64 3053.46 L 4094.27 3057.75 M 4091.61 3056.32 L 4093.66 3056.32 M 4095.62 3054.89 L 4095.62 3057.75 M 4095.62 3056.12 L 4095.83 3055.5 L 4096.24 3055.1 L 4096.65 3054.89 L 4097.26 3054.89 M 4101.06 3053.46 L 4101.06 3057.75 M 4101.06 3055.5 L 4100.65 3055.1 L 4100.25 3054.89 L 4099.63 3054.89 L 4099.22 3055.1 L 4098.81 3055.5 L 4098.61 3056.12 L 4098.61 3056.53 L 4098.81 3057.14 L 4099.22 3057.55 L 4099.63 3057.75 L 4100.25 3057.75 L 4100.65 3057.55 L 4101.06 3057.14 M 4102.41 3054.89 L 4102.41 3056.94 L 4102.62 3057.55 L 4103.03 3057.75 L 4103.64 3057.75 L 4104.05 3057.55 L 4104.66 3056.94 M 4104.66 3054.89 L 4104.66 3057.75 M 4106.01 3053.46 L 4106.22 3053.66 L 4106.42 3053.46 L 4106.22 3053.25 L 4106.01 3053.46 M 4106.22 3054.89 L 4106.22 3057.75 M 4107.77 3054.89 L 4107.77 3057.75 M 4107.77 3055.71 L 4108.39 3055.1 L 4108.8 3054.89 L 4109.41 3054.89 L 4109.82 3055.1 L 4110.02 3055.71 L 4110.02 3057.75 M 4112.4 3054.89 L 4111.99 3055.1 L 4111.58 3055.5 L 4111.37 3056.12 L 4111.37 3056.53 L 4111.58 3057.14 L 4111.99 3057.55 L 4112.4 3057.75 L 4113.01 3057.75 L 4113.42 3057.55 L 4113.83 3057.14 L 4114.03 3056.53 L 4114.03 3056.12 L 4113.83 3055.5 L 4113.42 3055.1 L 4113.01 3054.89 L 4112.4 3054.89 M 4115.38 3059.19 L 4119.06 3059.19 M 4120.41 3053.46 L 4120.41 3057.75 M 4120.41 3053.46 L 4123.28 3057.75 M 4123.28 3053.46 L 4123.28 3057.75 M 4127.08 3054.89 L 4127.08 3057.75 M 4127.08 3055.5 L 4126.67 3055.1 L 4126.26 3054.89 L 4125.65 3054.89 L 4125.24 3055.1 L 4124.83 3055.5 L 4124.63 3056.12 L 4124.63 3056.53 L 4124.83 3057.14 L 4125.24 3057.55 L 4125.65 3057.75 L 4126.26 3057.75 L 4126.67 3057.55 L 4127.08 3057.14 M 4128.43 3054.89 L 4128.43 3057.75 M 4128.43 3055.71 L 4129.05 3055.1 L 4129.45 3054.89 L 4130.07 3054.89 L 4130.48 3055.1 L 4130.68 3055.71 L 4130.68 3057.75 M 4133.05 3054.89 L 4132.65 3055.1 L 4132.24 3055.5 L 4132.03 3056.12 L 4132.03 3056.53 L 4132.24 3057.14 L 4132.65 3057.55 L 4133.05 3057.75 L 4133.67 3057.75 L 4134.08 3057.55 L 4134.49 3057.14 L 4134.69 3056.53 L 4134.69 3056.12 L 4134.49 3055.5 L 4134.08 3055.1 L 4133.67 3054.89 L 4133.05 3054.89 M 4136.04 3059.19 L 4139.72 3059.19 M 4141.07 3053.46 L 4141.07 3057.75 M 4143.94 3053.46 L 4143.94 3057.75 M 4141.07 3055.5 L 4143.94 3055.5 M 4145.29 3056.12 L 4147.74 3056.12 L 4147.74 3055.71 L 4147.54 3055.3 L 4147.33 3055.1 L 4146.92 3054.89 L 4146.31 3054.89 L 4145.9 3055.1 L 4145.49 3055.5 L 4145.29 3056.12 L 4145.29 3056.53 L 4145.49 3057.14 L 4145.9 3057.55 L 4146.31 3057.75 L 4146.92 3057.75 L 4147.33 3057.55 L 4147.74 3057.14 M 4151.55 3054.89 L 4151.55 3057.75 M 4151.55 3055.5 L 4151.14 3055.1 L 4150.73 3054.89 L 4150.11 3054.89 L 4149.7 3055.1 L 4149.3 3055.5 L 4149.09 3056.12 L 4149.09 3056.53 L 4149.3 3057.14 L 4149.7 3057.55 L 4150.11 3057.75 L 4150.73 3057.75 L 4151.14 3057.55 L 4151.55 3057.14 M 4155.35 3053.46 L 4155.35 3057.75 M 4155.35 3055.5 L 4154.94 3055.1 L 4154.53 3054.89 L 4153.92 3054.89 L 4153.51 3055.1 L 4153.1 3055.5 L 4152.9 3056.12 L 4152.9 3056.53 L 4153.1 3057.14 L 4153.51 3057.55 L 4153.92 3057.75 L 4154.53 3057.75 L 4154.94 3057.55 L 4155.35 3057.14 M 4156.7 3056.12 L 4159.15 3056.12 L 4159.15 3055.71 L 4158.95 3055.3 L 4158.75 3055.1 L 4158.34 3054.89 L 4157.72 3054.89 L 4157.31 3055.1 L 4156.9 3055.5 L 4156.7 3056.12 L 4156.7 3056.53 L 4156.9 3057.14 L 4157.31 3057.55 L 4157.72 3057.75 L 4158.34 3057.75 L 4158.75 3057.55 L 4159.15 3057.14 M 4160.5 3054.89 L 4160.5 3057.75 M 4160.5 3056.12 L 4160.71 3055.5 L 4161.12 3055.1 L 4161.53 3054.89 L 4162.14 3054.89" fill="none"  stroke-width="0.6" c_note="note_name" /></g><g c_partid="part_pcbtext" c_etype="" c_origin="4135,3080.5" c_rotation="0" c_mirror="0" id="gge402" locked="0" layerid="3" c_shapetype="group" ><path c_fontsize="4.5" c_fontfamily="" c_text="J1" d="M 4137.05 3075.96 L 4137.05 3079.23 L 4136.84 3079.85 L 4136.64 3080.05 L 4136.23 3080.25 L 4135.82 3080.25 L 4135.41 3080.05 L 4135.2 3079.85 L 4135 3079.23 L 4135 3078.82 M 4138.4 3076.78 L 4138.8 3076.57 L 4139.42 3075.96 L 4139.42 3080.25" fill="none"  stroke-width="0.6" c_note="note_pre" /></g><g c_partid="part_pcbtext" c_etype="" c_origin="4184.5,3205" c_rotation="0" c_mirror="0" id="gge966" locked="0" layerid="3" c_shapetype="group" display="none"><path c_fontsize="4.5" c_fontfamily="" c_text="Switch Inputs" d="M 4187.36 3201.07 L 4186.95 3200.66 L 4186.34 3200.46 L 4185.52 3200.46 L 4184.91 3200.66 L 4184.5 3201.07 L 4184.5 3201.48 L 4184.7 3201.89 L 4184.91 3202.1 L 4185.32 3202.3 L 4186.55 3202.71 L 4186.95 3202.91 L 4187.16 3203.12 L 4187.36 3203.53 L 4187.36 3204.14 L 4186.95 3204.55 L 4186.34 3204.75 L 4185.52 3204.75 L 4184.91 3204.55 L 4184.5 3204.14 M 4188.71 3201.89 L 4189.53 3204.75 M 4190.35 3201.89 L 4189.53 3204.75 M 4190.35 3201.89 L 4191.17 3204.75 M 4191.99 3201.89 L 4191.17 3204.75 M 4193.34 3200.46 L 4193.54 3200.66 L 4193.75 3200.46 L 4193.54 3200.25 L 4193.34 3200.46 M 4193.54 3201.89 L 4193.54 3204.75 M 4195.71 3200.46 L 4195.71 3203.94 L 4195.91 3204.55 L 4196.32 3204.75 L 4196.73 3204.75 M 4195.1 3201.89 L 4196.53 3201.89 M 4200.54 3202.5 L 4200.13 3202.1 L 4199.72 3201.89 L 4199.1 3201.89 L 4198.7 3202.1 L 4198.29 3202.5 L 4198.08 3203.12 L 4198.08 3203.53 L 4198.29 3204.14 L 4198.7 3204.55 L 4199.1 3204.75 L 4199.72 3204.75 L 4200.13 3204.55 L 4200.54 3204.14 M 4201.89 3200.46 L 4201.89 3204.75 M 4201.89 3202.71 L 4202.5 3202.1 L 4202.91 3201.89 L 4203.52 3201.89 L 4203.93 3202.1 L 4204.14 3202.71 L 4204.14 3204.75 M 4208.64 3200.46 L 4208.64 3204.75 M 4209.99 3201.89 L 4209.99 3204.75 M 4209.99 3202.71 L 4210.6 3202.1 L 4211.01 3201.89 L 4211.62 3201.89 L 4212.03 3202.1 L 4212.24 3202.71 L 4212.24 3204.75 M 4213.59 3201.89 L 4213.59 3206.19 M 4213.59 3202.5 L 4214 3202.1 L 4214.4 3201.89 L 4215.02 3201.89 L 4215.43 3202.1 L 4215.84 3202.5 L 4216.04 3203.12 L 4216.04 3203.53 L 4215.84 3204.14 L 4215.43 3204.55 L 4215.02 3204.75 L 4214.4 3204.75 L 4214 3204.55 L 4213.59 3204.14 M 4217.39 3201.89 L 4217.39 3203.94 L 4217.6 3204.55 L 4218 3204.75 L 4218.62 3204.75 L 4219.03 3204.55 L 4219.64 3203.94 M 4219.64 3201.89 L 4219.64 3204.75 M 4221.6 3200.46 L 4221.6 3203.94 L 4221.81 3204.55 L 4222.22 3204.75 L 4222.63 3204.75 M 4220.99 3201.89 L 4222.42 3201.89 M 4226.23 3202.5 L 4226.02 3202.1 L 4225.41 3201.89 L 4224.8 3201.89 L 4224.18 3202.1 L 4223.98 3202.5 L 4224.18 3202.91 L 4224.59 3203.12 L 4225.61 3203.32 L 4226.02 3203.53 L 4226.23 3203.94 L 4226.23 3204.14 L 4226.02 3204.55 L 4225.41 3204.75 L 4224.8 3204.75 L 4224.18 3204.55 L 4223.98 3204.14" fill="none"  stroke-width="0.6" c_note="note_name" /></g><g c_partid="part_pcbtext" c_etype="" c_origin="4184.5,3212" c_rotation="0" c_mirror="0" id="gge972" locked="0" layerid="3" c_shapetype="group" ><path c_fontsize="4.5" c_fontfamily="" c_text="P1" d="M 4184.5 3207.46 L 4184.5 3211.75 M 4184.5 3207.46 L 4186.34 3207.46 L 4186.95 3207.66 L 4187.16 3207.87 L 4187.36 3208.28 L 4187.36 3208.89 L 4187.16 3209.3 L 4186.95 3209.5 L 4186.34 3209.71 L 4184.5 3209.71 M 4188.71 3208.28 L 4189.12 3208.07 L 4189.74 3207.46 L 4189.74 3211.75" fill="none"  stroke-width="0.6" c_note="note_pre" /></g><g c_partid="part_pcbtext" c_etype="" c_origin="4245,3082" c_rotation="0" c_mirror="0" id="gge1140" locked="0" layerid="3" c_shapetype="group" display="none"><path c_fontsize="4.5" c_fontfamily="" c_text="1k" d="M 4245 3078.28 L 4245.41 3078.07 L 4246.02 3077.46 L 4246.02 3081.75 M 4247.37 3077.46 L 4247.37 3081.75 M 4249.42 3078.89 L 4247.37 3080.94 M 4248.19 3080.12 L 4249.62 3081.75" fill="none"  stroke-width="0.6" c_note="note_name" /></g><g c_partid="part_pcbtext" c_etype="" c_origin="4245,3089" c_rotation="0" c_mirror="0" id="gge1146" locked="0" layerid="3" c_shapetype="group" ><path c_fontsize="4.5" c_fontfamily="" c_text="R1" d="M 4245 3084.46 L 4245 3088.75 M 4245 3084.46 L 4246.84 3084.46 L 4247.45 3084.66 L 4247.66 3084.87 L 4247.86 3085.28 L 4247.86 3085.69 L 4247.66 3086.1 L 4247.45 3086.3 L 4246.84 3086.5 L 4245 3086.5 M 4246.43 3086.5 L 4247.86 3088.75 M 4249.21 3085.28 L 4249.62 3085.07 L 4250.24 3084.46 L 4250.24 3088.75" fill="none"  stroke-width="0.6" c_note="note_pre" /></g><g c_partid="part_pcbtext" c_etype="" c_origin="4244,3103.5" c_rotation="0" c_mirror="0" id="gge1224" locked="0" layerid="3" c_shapetype="group" display="none"><path c_fontsize="4.5" c_fontfamily="" c_text="1k" d="M 4244 3099.78 L 4244.41 3099.57 L 4245.02 3098.96 L 4245.02 3103.25 M 4246.37 3098.96 L 4246.37 3103.25 M 4248.42 3100.39 L 4246.37 3102.44 M 4247.19 3101.62 L 4248.62 3103.25" fill="none"  stroke-width="0.6" c_note="note_name" /></g><g c_partid="part_pcbtext" c_etype="" c_origin="4244,3110.5" c_rotation="0" c_mirror="0" id="gge1230" locked="0" layerid="3" c_shapetype="group" ><path c_fontsize="4.5" c_fontfamily="" c_text="R2" d="M 4244 3105.96 L 4244 3110.25 M 4244 3105.96 L 4245.84 3105.96 L 4246.45 3106.16 L 4246.66 3106.37 L 4246.86 3106.78 L 4246.86 3107.19 L 4246.66 3107.6 L 4246.45 3107.8 L 4245.84 3108 L 4244 3108 M 4245.43 3108 L 4246.86 3110.25 M 4248.42 3106.98 L 4248.42 3106.78 L 4248.62 3106.37 L 4248.83 3106.16 L 4249.24 3105.96 L 4250.05 3105.96 L 4250.46 3106.16 L 4250.67 3106.37 L 4250.87 3106.78 L 4250.87 3107.19 L 4250.67 3107.6 L 4250.26 3108.21 L 4248.21 3110.25 L 4251.08 3110.25" fill="none"  stroke-width="0.6" c_note="note_pre" /></g><g c_partid="part_pcbtext" c_etype="" c_origin="4243.5,3124.5" c_rotation="0" c_mirror="0" id="gge1308" locked="0" layerid="3" c_shapetype="group" display="none"><path c_fontsize="4.5" c_fontfamily="" c_text="1k" d="M 4243.5 3120.78 L 4243.91 3120.57 L 4244.52 3119.96 L 4244.52 3124.25 M 4245.87 3119.96 L 4245.87 3124.25 M 4247.92 3121.39 L 4245.87 3123.44 M 4246.69 3122.62 L 4248.12 3124.25" fill="none"  stroke-width="0.6" c_note="note_name" /></g><g c_partid="part_pcbtext" c_etype="" c_origin="4243.5,3131.5" c_rotation="0" c_mirror="0" id="gge1314" locked="0" layerid="3" c_shapetype="group" ><path c_fontsize="4.5" c_fontfamily="" c_text="R3" d="M 4243.5 3126.96 L 4243.5 3131.25 M 4243.5 3126.96 L 4245.34 3126.96 L 4245.95 3127.16 L 4246.16 3127.37 L 4246.36 3127.78 L 4246.36 3128.19 L 4246.16 3128.6 L 4245.95 3128.8 L 4245.34 3129 L 4243.5 3129 M 4244.93 3129 L 4246.36 3131.25 M 4248.12 3126.96 L 4250.37 3126.96 L 4249.15 3128.6 L 4249.76 3128.6 L 4250.17 3128.8 L 4250.37 3129 L 4250.58 3129.62 L 4250.58 3130.03 L 4250.37 3130.64 L 4249.96 3131.05 L 4249.35 3131.25 L 4248.74 3131.25 L 4248.12 3131.05 L 4247.92 3130.85 L 4247.71 3130.44" fill="none"  stroke-width="0.6" c_note="note_pre" /></g><g c_partid="part_pcbtext" c_etype="" c_origin="4172.5,3083" c_rotation="0" c_mirror="0" id="gge1392" locked="0" layerid="3" c_shapetype="group" display="none"><path c_fontsize="4.5" c_fontfamily="" c_text=".330K" d="M 4172.7 3081.73 L 4172.5 3081.94 L 4172.7 3082.14 L 4172.91 3081.94 L 4172.7 3081.73 M 4174.67 3078.46 L 4176.92 3078.46 L 4175.69 3080.1 L 4176.3 3080.1 L 4176.71 3080.3 L 4176.92 3080.5 L 4177.12 3081.12 L 4177.12 3081.53 L 4176.92 3082.14 L 4176.51 3082.55 L 4175.9 3082.75 L 4175.28 3082.75 L 4174.67 3082.55 L 4174.46 3082.35 L 4174.26 3081.94 M 4178.88 3078.46 L 4181.13 3078.46 L 4179.9 3080.1 L 4180.52 3080.1 L 4180.93 3080.3 L 4181.13 3080.5 L 4181.34 3081.12 L 4181.34 3081.53 L 4181.13 3082.14 L 4180.72 3082.55 L 4180.11 3082.75 L 4179.5 3082.75 L 4178.88 3082.55 L 4178.68 3082.35 L 4178.47 3081.94 M 4183.91 3078.46 L 4183.3 3078.66 L 4182.89 3079.28 L 4182.69 3080.3 L 4182.69 3080.91 L 4182.89 3081.94 L 4183.3 3082.55 L 4183.91 3082.75 L 4184.32 3082.75 L 4184.94 3082.55 L 4185.35 3081.94 L 4185.55 3080.91 L 4185.55 3080.3 L 4185.35 3079.28 L 4184.94 3078.66 L 4184.32 3078.46 L 4183.91 3078.46 M 4186.9 3078.46 L 4186.9 3082.75 M 4189.76 3078.46 L 4186.9 3081.32 M 4187.92 3080.3 L 4189.76 3082.75" fill="none"  stroke-width="0.6" c_note="note_name" /></g><g c_partid="part_pcbtext" c_etype="" c_origin="4172.5,3090" c_rotation="0" c_mirror="0" id="gge1398" locked="0" layerid="3" c_shapetype="group" ><path c_fontsize="4.5" c_fontfamily="" c_text="R4" d="M 4172.5 3085.46 L 4172.5 3089.75 M 4172.5 3085.46 L 4174.34 3085.46 L 4174.95 3085.66 L 4175.16 3085.87 L 4175.36 3086.28 L 4175.36 3086.69 L 4175.16 3087.1 L 4174.95 3087.3 L 4174.34 3087.5 L 4172.5 3087.5 M 4173.93 3087.5 L 4175.36 3089.75 M 4178.76 3085.46 L 4176.71 3088.32 L 4179.78 3088.32 M 4178.76 3085.46 L 4178.76 3089.75" fill="none"  stroke-width="0.6" c_note="note_pre" /></g><g c_partid="part_pcbtext" c_etype="" c_origin="4172.5,3103.5" c_rotation="0" c_mirror="0" id="gge1476" locked="0" layerid="3" c_shapetype="group" display="none"><path c_fontsize="4.5" c_fontfamily="" c_text=".330K" d="M 4172.7 3102.23 L 4172.5 3102.44 L 4172.7 3102.64 L 4172.91 3102.44 L 4172.7 3102.23 M 4174.67 3098.96 L 4176.92 3098.96 L 4175.69 3100.6 L 4176.3 3100.6 L 4176.71 3100.8 L 4176.92 3101 L 4177.12 3101.62 L 4177.12 3102.03 L 4176.92 3102.64 L 4176.51 3103.05 L 4175.9 3103.25 L 4175.28 3103.25 L 4174.67 3103.05 L 4174.46 3102.85 L 4174.26 3102.44 M 4178.88 3098.96 L 4181.13 3098.96 L 4179.9 3100.6 L 4180.52 3100.6 L 4180.93 3100.8 L 4181.13 3101 L 4181.34 3101.62 L 4181.34 3102.03 L 4181.13 3102.64 L 4180.72 3103.05 L 4180.11 3103.25 L 4179.5 3103.25 L 4178.88 3103.05 L 4178.68 3102.85 L 4178.47 3102.44 M 4183.91 3098.96 L 4183.3 3099.16 L 4182.89 3099.78 L 4182.69 3100.8 L 4182.69 3101.41 L 4182.89 3102.44 L 4183.3 3103.05 L 4183.91 3103.25 L 4184.32 3103.25 L 4184.94 3103.05 L 4185.35 3102.44 L 4185.55 3101.41 L 4185.55 3100.8 L 4185.35 3099.78 L 4184.94 3099.16 L 4184.32 3098.96 L 4183.91 3098.96 M 4186.9 3098.96 L 4186.9 3103.25 M 4189.76 3098.96 L 4186.9 3101.82 M 4187.92 3100.8 L 4189.76 3103.25" fill="none"  stroke-width="0.6" c_note="note_name" /></g><g c_partid="part_pcbtext" c_etype="" c_origin="4172.5,3110.5" c_rotation="0" c_mirror="0" id="gge1482" locked="0" layerid="3" c_shapetype="group" ><path c_fontsize="4.5" c_fontfamily="" c_text="R5" d="M 4172.5 3105.96 L 4172.5 3110.25 M 4172.5 3105.96 L 4174.34 3105.96 L 4174.95 3106.16 L 4175.16 3106.37 L 4175.36 3106.78 L 4175.36 3107.19 L 4175.16 3107.6 L 4174.95 3107.8 L 4174.34 3108 L 4172.5 3108 M 4173.93 3108 L 4175.36 3110.25 M 4179.17 3105.96 L 4177.12 3105.96 L 4176.92 3107.8 L 4177.12 3107.6 L 4177.74 3107.39 L 4178.35 3107.39 L 4178.96 3107.6 L 4179.37 3108 L 4179.58 3108.62 L 4179.58 3109.03 L 4179.37 3109.64 L 4178.96 3110.05 L 4178.35 3110.25 L 4177.74 3110.25 L 4177.12 3110.05 L 4176.92 3109.85 L 4176.71 3109.44" fill="none"  stroke-width="0.6" c_note="note_pre" /></g><g c_partid="part_pcbtext" c_etype="" c_origin="4173.5,3125" c_rotation="0" c_mirror="0" id="gge1560" locked="0" layerid="3" c_shapetype="group" display="none"><path c_fontsize="4.5" c_fontfamily="" c_text=".330K" d="M 4173.7 3123.73 L 4173.5 3123.94 L 4173.7 3124.14 L 4173.91 3123.94 L 4173.7 3123.73 M 4175.67 3120.46 L 4177.92 3120.46 L 4176.69 3122.1 L 4177.3 3122.1 L 4177.71 3122.3 L 4177.92 3122.5 L 4178.12 3123.12 L 4178.12 3123.53 L 4177.92 3124.14 L 4177.51 3124.55 L 4176.9 3124.75 L 4176.28 3124.75 L 4175.67 3124.55 L 4175.46 3124.35 L 4175.26 3123.94 M 4179.88 3120.46 L 4182.13 3120.46 L 4180.9 3122.1 L 4181.52 3122.1 L 4181.93 3122.3 L 4182.13 3122.5 L 4182.34 3123.12 L 4182.34 3123.53 L 4182.13 3124.14 L 4181.72 3124.55 L 4181.11 3124.75 L 4180.5 3124.75 L 4179.88 3124.55 L 4179.68 3124.35 L 4179.47 3123.94 M 4184.91 3120.46 L 4184.3 3120.66 L 4183.89 3121.28 L 4183.69 3122.3 L 4183.69 3122.91 L 4183.89 3123.94 L 4184.3 3124.55 L 4184.91 3124.75 L 4185.32 3124.75 L 4185.94 3124.55 L 4186.35 3123.94 L 4186.55 3122.91 L 4186.55 3122.3 L 4186.35 3121.28 L 4185.94 3120.66 L 4185.32 3120.46 L 4184.91 3120.46 M 4187.9 3120.46 L 4187.9 3124.75 M 4190.76 3120.46 L 4187.9 3123.32 M 4188.92 3122.3 L 4190.76 3124.75" fill="none"  stroke-width="0.6" c_note="note_name" /></g><g c_partid="part_pcbtext" c_etype="" c_origin="4173.5,3132" c_rotation="0" c_mirror="0" id="gge1566" locked="0" layerid="3" c_shapetype="group" ><path c_fontsize="4.5" c_fontfamily="" c_text="R7" d="M 4173.5 3127.46 L 4173.5 3131.75 M 4173.5 3127.46 L 4175.34 3127.46 L 4175.95 3127.66 L 4176.16 3127.87 L 4176.36 3128.28 L 4176.36 3128.69 L 4176.16 3129.1 L 4175.95 3129.3 L 4175.34 3129.5 L 4173.5 3129.5 M 4174.93 3129.5 L 4176.36 3131.75 M 4180.58 3127.46 L 4178.53 3131.75 M 4177.71 3127.46 L 4180.58 3127.46" fill="none"  stroke-width="0.6" c_note="note_pre" /></g><g c_partid="part_pcbtext" c_etype="" c_origin="4243.158,3205.911" c_rotation="0" c_mirror="0" id="gge1644" locked="0" layerid="3" c_shapetype="group" display="none"><path c_fontsize="4.5" c_fontfamily="" c_text="On Time Control 100K" d="M 4244.3875 3201.3707 L 4243.9775 3201.5707 L 4243.5675 3201.9807 L 4243.3575 3202.3907 L 4243.1575 3203.0107 L 4243.1575 3204.0307 L 4243.3575 3204.6407 L 4243.5675 3205.0507 L 4243.9775 3205.4607 L 4244.3875 3205.6607 L 4245.2075 3205.6607 L 4245.6075 3205.4607 L 4246.0175 3205.0507 L 4246.2275 3204.6407 L 4246.4275 3204.0307 L 4246.4275 3203.0107 L 4246.2275 3202.3907 L 4246.0175 3201.9807 L 4245.6075 3201.5707 L 4245.2075 3201.3707 L 4244.3875 3201.3707 M 4247.7775 3202.8007 L 4247.7775 3205.6607 M 4247.7775 3203.6207 L 4248.3975 3203.0107 L 4248.8075 3202.8007 L 4249.4175 3202.8007 L 4249.8275 3203.0107 L 4250.0275 3203.6207 L 4250.0275 3205.6607 M 4255.9575 3201.3707 L 4255.9575 3205.6607 M 4254.5275 3201.3707 L 4257.3975 3201.3707 M 4258.7475 3201.3707 L 4258.9475 3201.5707 L 4259.1575 3201.3707 L 4258.9475 3201.1607 L 4258.7475 3201.3707 M 4258.9475 3202.8007 L 4258.9475 3205.6607 M 4260.5075 3202.8007 L 4260.5075 3205.6607 M 4260.5075 3203.6207 L 4261.1175 3203.0107 L 4261.5275 3202.8007 L 4262.1375 3202.8007 L 4262.5475 3203.0107 L 4262.7575 3203.6207 L 4262.7575 3205.6607 M 4262.7575 3203.6207 L 4263.3675 3203.0107 L 4263.7775 3202.8007 L 4264.3875 3202.8007 L 4264.7975 3203.0107 L 4265.0075 3203.6207 L 4265.0075 3205.6607 M 4266.3575 3204.0307 L 4268.8075 3204.0307 L 4268.8075 3203.6207 L 4268.6075 3203.2107 L 4268.3975 3203.0107 L 4267.9875 3202.8007 L 4267.3775 3202.8007 L 4266.9675 3203.0107 L 4266.5575 3203.4107 L 4266.3575 3204.0307 L 4266.3575 3204.4407 L 4266.5575 3205.0507 L 4266.9675 3205.4607 L 4267.3775 3205.6607 L 4267.9875 3205.6607 L 4268.3975 3205.4607 L 4268.8075 3205.0507 M 4276.3775 3202.3907 L 4276.1675 3201.9807 L 4275.7575 3201.5707 L 4275.3575 3201.3707 L 4274.5375 3201.3707 L 4274.1275 3201.5707 L 4273.7175 3201.9807 L 4273.5075 3202.3907 L 4273.3075 3203.0107 L 4273.3075 3204.0307 L 4273.5075 3204.6407 L 4273.7175 3205.0507 L 4274.1275 3205.4607 L 4274.5375 3205.6607 L 4275.3575 3205.6607 L 4275.7575 3205.4607 L 4276.1675 3205.0507 L 4276.3775 3204.6407 M 4278.7475 3202.8007 L 4278.3375 3203.0107 L 4277.9275 3203.4107 L 4277.7275 3204.0307 L 4277.7275 3204.4407 L 4277.9275 3205.0507 L 4278.3375 3205.4607 L 4278.7475 3205.6607 L 4279.3575 3205.6607 L 4279.7675 3205.4607 L 4280.1775 3205.0507 L 4280.3875 3204.4407 L 4280.3875 3204.0307 L 4280.1775 3203.4107 L 4279.7675 3203.0107 L 4279.3575 3202.8007 L 4278.7475 3202.8007 M 4281.7375 3202.8007 L 4281.7375 3205.6607 M 4281.7375 3203.6207 L 4282.3475 3203.0107 L 4282.7575 3202.8007 L 4283.3675 3202.8007 L 4283.7775 3203.0107 L 4283.9875 3203.6207 L 4283.9875 3205.6607 M 4285.9475 3201.3707 L 4285.9475 3204.8507 L 4286.1575 3205.4607 L 4286.5575 3205.6607 L 4286.9675 3205.6607 M 4285.3375 3202.8007 L 4286.7675 3202.8007 M 4288.3175 3202.8007 L 4288.3175 3205.6607 M 4288.3175 3204.0307 L 4288.5275 3203.4107 L 4288.9375 3203.0107 L 4289.3475 3202.8007 L 4289.9575 3202.8007 M 4292.3275 3202.8007 L 4291.9175 3203.0107 L 4291.5075 3203.4107 L 4291.3075 3204.0307 L 4291.3075 3204.4407 L 4291.5075 3205.0507 L 4291.9175 3205.4607 L 4292.3275 3205.6607 L 4292.9475 3205.6607 L 4293.3575 3205.4607 L 4293.7575 3205.0507 L 4293.9675 3204.4407 L 4293.9675 3204.0307 L 4293.7575 3203.4107 L 4293.3575 3203.0107 L 4292.9475 3202.8007 L 4292.3275 3202.8007 M 4295.3175 3201.3707 L 4295.3175 3205.6607 M 4299.8175 3202.1907 L 4300.2275 3201.9807 L 4300.8375 3201.3707 L 4300.8375 3205.6607 M 4303.4175 3201.3707 L 4302.8075 3201.5707 L 4302.3975 3202.1907 L 4302.1875 3203.2107 L 4302.1875 3203.8207 L 4302.3975 3204.8507 L 4302.8075 3205.4607 L 4303.4175 3205.6607 L 4303.8275 3205.6607 L 4304.4375 3205.4607 L 4304.8475 3204.8507 L 4305.0575 3203.8207 L 4305.0575 3203.2107 L 4304.8475 3202.1907 L 4304.4375 3201.5707 L 4303.8275 3201.3707 L 4303.4175 3201.3707 M 4307.6275 3201.3707 L 4307.0175 3201.5707 L 4306.6075 3202.1907 L 4306.4075 3203.2107 L 4306.4075 3203.8207 L 4306.6075 3204.8507 L 4307.0175 3205.4607 L 4307.6275 3205.6607 L 4308.0375 3205.6607 L 4308.6575 3205.4607 L 4309.0575 3204.8507 L 4309.2675 3203.8207 L 4309.2675 3203.2107 L 4309.0575 3202.1907 L 4308.6575 3201.5707 L 4308.0375 3201.3707 L 4307.6275 3201.3707 M 4310.6175 3201.3707 L 4310.6175 3205.6607 M 4313.4775 3201.3707 L 4310.6175 3204.2307 M 4311.6375 3203.2107 L 4313.4775 3205.6607" fill="none"  stroke-width="0.6" c_note="note_name" /></g><g c_partid="part_pcbtext" c_etype="" c_origin="4243.158,3212.911" c_rotation="0" c_mirror="0" id="gge1650" locked="0" layerid="3" c_shapetype="group" ><path c_fontsize="4.5" c_fontfamily="" c_text="RP1" d="M 4243.1575 3208.3707 L 4243.1575 3212.6607 M 4243.1575 3208.3707 L 4244.9975 3208.3707 L 4245.6075 3208.5707 L 4245.8175 3208.7807 L 4246.0175 3209.1907 L 4246.0175 3209.6007 L 4245.8175 3210.0107 L 4245.6075 3210.2107 L 4244.9975 3210.4107 L 4243.1575 3210.4107 M 4244.5875 3210.4107 L 4246.0175 3212.6607 M 4247.3675 3208.3707 L 4247.3675 3212.6607 M 4247.3675 3208.3707 L 4249.2075 3208.3707 L 4249.8275 3208.5707 L 4250.0275 3208.7807 L 4250.2375 3209.1907 L 4250.2375 3209.8007 L 4250.0275 3210.2107 L 4249.8275 3210.4107 L 4249.2075 3210.6207 L 4247.3675 3210.6207 M 4251.5875 3209.1907 L 4251.9975 3208.9807 L 4252.6075 3208.3707 L 4252.6075 3212.6607" fill="none"  stroke-width="0.6" c_note="note_pre" /></g><g c_partid="part_pcbtext" c_etype="" c_origin="4244.158,3148.411" c_rotation="0" c_mirror="0" id="gge1740" locked="0" layerid="3" c_shapetype="group" display="none"><path c_fontsize="4.5" c_fontfamily="" c_text="Off Time Control 100K" d="M 4245.3875 3143.8707 L 4244.9775 3144.0707 L 4244.5675 3144.4807 L 4244.3575 3144.8907 L 4244.1575 3145.5107 L 4244.1575 3146.5307 L 4244.3575 3147.1407 L 4244.5675 3147.5507 L 4244.9775 3147.9607 L 4245.3875 3148.1607 L 4246.2075 3148.1607 L 4246.6075 3147.9607 L 4247.0175 3147.5507 L 4247.2275 3147.1407 L 4247.4275 3146.5307 L 4247.4275 3145.5107 L 4247.2275 3144.8907 L 4247.0175 3144.4807 L 4246.6075 3144.0707 L 4246.2075 3143.8707 L 4245.3875 3143.8707 M 4250.4175 3143.8707 L 4250.0075 3143.8707 L 4249.5975 3144.0707 L 4249.3975 3144.6907 L 4249.3975 3148.1607 M 4248.7775 3145.3007 L 4250.2075 3145.3007 M 4253.4075 3143.8707 L 4252.9975 3143.8707 L 4252.5875 3144.0707 L 4252.3775 3144.6907 L 4252.3775 3148.1607 M 4251.7675 3145.3007 L 4253.1975 3145.3007 M 4259.3375 3143.8707 L 4259.3375 3148.1607 M 4257.9075 3143.8707 L 4260.7675 3143.8707 M 4262.1175 3143.8707 L 4262.3175 3144.0707 L 4262.5275 3143.8707 L 4262.3175 3143.6607 L 4262.1175 3143.8707 M 4262.3175 3145.3007 L 4262.3175 3148.1607 M 4263.8775 3145.3007 L 4263.8775 3148.1607 M 4263.8775 3146.1207 L 4264.4875 3145.5107 L 4264.8975 3145.3007 L 4265.5075 3145.3007 L 4265.9175 3145.5107 L 4266.1275 3146.1207 L 4266.1275 3148.1607 M 4266.1275 3146.1207 L 4266.7375 3145.5107 L 4267.1475 3145.3007 L 4267.7575 3145.3007 L 4268.1675 3145.5107 L 4268.3775 3146.1207 L 4268.3775 3148.1607 M 4269.7275 3146.5307 L 4272.1775 3146.5307 L 4272.1775 3146.1207 L 4271.9775 3145.7107 L 4271.7675 3145.5107 L 4271.3575 3145.3007 L 4270.7475 3145.3007 L 4270.3375 3145.5107 L 4269.9275 3145.9107 L 4269.7275 3146.5307 L 4269.7275 3146.9407 L 4269.9275 3147.5507 L 4270.3375 3147.9607 L 4270.7475 3148.1607 L 4271.3575 3148.1607 L 4271.7675 3147.9607 L 4272.1775 3147.5507 M 4279.7475 3144.8907 L 4279.5475 3144.4807 L 4279.1375 3144.0707 L 4278.7275 3143.8707 L 4277.9075 3143.8707 L 4277.4975 3144.0707 L 4277.0875 3144.4807 L 4276.8875 3144.8907 L 4276.6775 3145.5107 L 4276.6775 3146.5307 L 4276.8875 3147.1407 L 4277.0875 3147.5507 L 4277.4975 3147.9607 L 4277.9075 3148.1607 L 4278.7275 3148.1607 L 4279.1375 3147.9607 L 4279.5475 3147.5507 L 4279.7475 3147.1407 M 4282.1175 3145.3007 L 4281.7075 3145.5107 L 4281.3075 3145.9107 L 4281.0975 3146.5307 L 4281.0975 3146.9407 L 4281.3075 3147.5507 L 4281.7075 3147.9607 L 4282.1175 3148.1607 L 4282.7375 3148.1607 L 4283.1475 3147.9607 L 4283.5575 3147.5507 L 4283.7575 3146.9407 L 4283.7575 3146.5307 L 4283.5575 3145.9107 L 4283.1475 3145.5107 L 4282.7375 3145.3007 L 4282.1175 3145.3007 M 4285.1075 3145.3007 L 4285.1075 3148.1607 M 4285.1075 3146.1207 L 4285.7175 3145.5107 L 4286.1275 3145.3007 L 4286.7475 3145.3007 L 4287.1575 3145.5107 L 4287.3575 3146.1207 L 4287.3575 3148.1607 M 4289.3175 3143.8707 L 4289.3175 3147.3507 L 4289.5275 3147.9607 L 4289.9375 3148.1607 L 4290.3475 3148.1607 M 4288.7075 3145.3007 L 4290.1375 3145.3007 M 4291.6975 3145.3007 L 4291.6975 3148.1607 M 4291.6975 3146.5307 L 4291.8975 3145.9107 L 4292.3075 3145.5107 L 4292.7175 3145.3007 L 4293.3275 3145.3007 M 4295.7075 3145.3007 L 4295.2975 3145.5107 L 4294.8875 3145.9107 L 4294.6775 3146.5307 L 4294.6775 3146.9407 L 4294.8875 3147.5507 L 4295.2975 3147.9607 L 4295.7075 3148.1607 L 4296.3175 3148.1607 L 4296.7275 3147.9607 L 4297.1375 3147.5507 L 4297.3375 3146.9407 L 4297.3375 3146.5307 L 4297.1375 3145.9107 L 4296.7275 3145.5107 L 4296.3175 3145.3007 L 4295.7075 3145.3007 M 4298.6875 3143.8707 L 4298.6875 3148.1607 M 4303.1875 3144.6907 L 4303.5975 3144.4807 L 4304.2075 3143.8707 L 4304.2075 3148.1607 M 4306.7875 3143.8707 L 4306.1775 3144.0707 L 4305.7675 3144.6907 L 4305.5575 3145.7107 L 4305.5575 3146.3207 L 4305.7675 3147.3507 L 4306.1775 3147.9607 L 4306.7875 3148.1607 L 4307.1975 3148.1607 L 4307.8075 3147.9607 L 4308.2175 3147.3507 L 4308.4275 3146.3207 L 4308.4275 3145.7107 L 4308.2175 3144.6907 L 4307.8075 3144.0707 L 4307.1975 3143.8707 L 4306.7875 3143.8707 M 4311.0075 3143.8707 L 4310.3875 3144.0707 L 4309.9775 3144.6907 L 4309.7775 3145.7107 L 4309.7775 3146.3207 L 4309.9775 3147.3507 L 4310.3875 3147.9607 L 4311.0075 3148.1607 L 4311.4075 3148.1607 L 4312.0275 3147.9607 L 4312.4375 3147.3507 L 4312.6375 3146.3207 L 4312.6375 3145.7107 L 4312.4375 3144.6907 L 4312.0275 3144.0707 L 4311.4075 3143.8707 L 4311.0075 3143.8707 M 4313.9875 3143.8707 L 4313.9875 3148.1607 M 4316.8575 3143.8707 L 4313.9875 3146.7307 M 4315.0075 3145.7107 L 4316.8575 3148.1607" fill="none"  stroke-width="0.6" c_note="note_name" /></g><g c_partid="part_pcbtext" c_etype="" c_origin="4244.158,3155.411" c_rotation="0" c_mirror="0" id="gge1746" locked="0" layerid="3" c_shapetype="group" ><path c_fontsize="4.5" c_fontfamily="" c_text="RP2" d="M 4244.1575 3150.8707 L 4244.1575 3155.1607 M 4244.1575 3150.8707 L 4245.9975 3150.8707 L 4246.6075 3151.0707 L 4246.8175 3151.2807 L 4247.0175 3151.6907 L 4247.0175 3152.1007 L 4246.8175 3152.5107 L 4246.6075 3152.7107 L 4245.9975 3152.9107 L 4244.1575 3152.9107 M 4245.5875 3152.9107 L 4247.0175 3155.1607 M 4248.3675 3150.8707 L 4248.3675 3155.1607 M 4248.3675 3150.8707 L 4250.2075 3150.8707 L 4250.8275 3151.0707 L 4251.0275 3151.2807 L 4251.2375 3151.6907 L 4251.2375 3152.3007 L 4251.0275 3152.7107 L 4250.8275 3152.9107 L 4250.2075 3153.1207 L 4248.3675 3153.1207 M 4252.7875 3151.8907 L 4252.7875 3151.6907 L 4252.9975 3151.2807 L 4253.1975 3151.0707 L 4253.6075 3150.8707 L 4254.4275 3150.8707 L 4254.8375 3151.0707 L 4255.0375 3151.2807 L 4255.2475 3151.6907 L 4255.2475 3152.1007 L 4255.0375 3152.5107 L 4254.6275 3153.1207 L 4252.5875 3155.1607 L 4255.4475 3155.1607" fill="none"  stroke-width="0.6" c_note="note_pre" /></g><path d="M 4243.4975 3228.9689 A 5.32868 5.32868 0 1 0 4243.5975 3228.9689" locked="0"  fill="none" stroke-width="1" c_helper_type="arc2" net="" layerid="3" id="gge1680" /><path d="M 4244.4975 3171.4689 A 5.32868 5.32868 0 1 0 4244.5975 3171.4689" locked="0"  fill="none" stroke-width="1" c_helper_type="arc2" net="" layerid="3" id="gge1776" /><circle cx="4067" cy="3076.5" r="2.5" stroke-width="1" fill="none" layerid="3" id="gge408" locked="0"  /><polyline points="4047.559 3048.977 4281 3049 4281 3263.5 4048 3263 4047.559 3048.977" stroke-width="1"  stroke-linecap="round" fill="none" layerid="10" net="" id="gge1923" locked="0" /></svg>