<svg xmlns="http://www.w3.org/2000/svg" xmlns:xlink="http://www.w3.org/1999/xlink" width="65.659mm" height="60.325mm" viewBox="4036 3032 258.5 237.5"><title></title><style type="text/css">
*[layerid="1"] {stroke:#000000;fill:#000000;}
*[layerid="2"] {stroke:#000000;fill:#000000;}
*[layerid="3"] {stroke:#000000;fill:#000000;}
*[layerid="4"] {stroke:#000000;fill:#000000;}
*[layerid="5"] {stroke:#000000;fill:#000000;}
*[layerid="6"] {stroke:#000000;fill:#000000;}
*[layerid="7"] {stroke:#000000;fill:#000000;}
*[layerid="8"] {stroke:#000000;fill:#000000;}
*[layerid="9"] {stroke:#000000;fill:#000000;}
*[layerid="10"] {stroke:#000000;fill:#000000;}
*[layerid="11"] {stroke:#000000;fill:#000000;}
*[layerid="12"] {stroke:#000000;fill:#000000;}
*[layerid="13"] {stroke:#000000;fill:#000000;}
*[layerid="14"] {stroke:#000000;fill:#000000;}
*[layerid="15"] {stroke:#000000;fill:#000000;}
*[layerid="19"] {stroke:#000000;fill:#000000;}
*[layerid="21"] {stroke:#000000;fill:#000000;}
*[layerid="22"] {stroke:#000000;fill:#000000;}
*[layerid="23"] {stroke:#000000;fill:#000000;}
*[layerid="24"] {stroke:#000000;fill:#000000;}
*[layerid="25"] {stroke:#000000;fill:#000000;}
*[layerid="26"] {stroke:#000000;fill:#000000;}
*[layerid="27"] {stroke:#000000;fill:#000000;}
*[layerid="28"] {stroke:#000000;fill:#000000;}
*[layerid="29"] {stroke:#000000;fill:#000000;}
*[layerid="30"] {stroke:#000000;fill:#000000;}
*[layerid="31"] {stroke:#000000;fill:#000000;}
*[layerid="32"] {stroke:#000000;fill:#000000;}
*[layerid="33"] {stroke:#000000;fill:#000000;}
*[layerid="34"] {stroke:#000000;fill:#000000;}
*[layerid="35"] {stroke:#000000;fill:#000000;}
*[layerid="36"] {stroke:#000000;fill:#000000;}
*[layerid="37"] {stroke:#000000;fill:#000000;}
*[layerid="38"] {stroke:#000000;fill:#000000;}
*[layerid="39"] {stroke:#000000;fill:#000000;}
*[layerid="40"] {stroke:#000000;fill:#000000;}
*[layerid="41"] {stroke:#000000;fill:#000000;}
*[layerid="42"] {stroke:#000000;fill:#000000;}
*[layerid="43"] {stroke:#000000;fill:#000000;}
*[layerid="44"] {stroke:#000000;fill:#000000;}
*[layerid="45"] {stroke:#000000;fill:#000000;}
*[layerid="46"] {stroke:#000000;fill:#000000;}
*[layerid="47"] {stroke:#000000;fill:#000000;}
*[layerid="48"] {stroke:#000000;fill:#000000;}
*[layerid="49"] {stroke:#000000;fill:#000000;}
*[layerid="50"] {stroke:#000000;fill:#000000;}
*[layerid="51"] {stroke:#000000;fill:#000000;}
*[layerid="52"] {stroke:#000000;fill:#000000;}
*[layerid="99"] {stroke:#000000;fill:#000000;}
*[layerid="100"] {stroke:#000000;fill:#000000;}
*[layerid="101"] {stroke:#000000;fill:#000000;}
*[layerid="Hole"] {stroke:#000000;fill:#000000;}
*[layerid="DRCError"] {stroke:#000000;fill:#000000;}
*[fill="none"] {fill: none;}
*[stroke="none"] {stroke: none;}
path, polyline, polygon, line {stroke-linecap:round;}
g[c_partid="part_pad"][layerid="1"] ellipse:not([c_etype="pad_outer"]) {fill:#000000;}
g[c_partid="part_pad"][layerid="1"] polygon:not([c_etype="pad_outer"]) {fill:#000000;}
g[c_partid="part_pad"][layerid="1"] polyline:not([c_etype="pad_outer"]) {stroke:#000000;}
g[c_partid="part_pad"][layerid="2"] ellipse:not([c_etype="pad_outer"]) {fill:#000000;}
g[c_partid="part_pad"][layerid="2"] polygon:not([c_etype="pad_outer"]) {fill:#000000;}
g[c_partid="part_pad"][layerid="2"] polyline:not([c_etype="pad_outer"]) {stroke:#000000;}
g[c_partid="part_pad"][layerid="11"] ellipse:not([c_etype="pad_outer"]) {fill:#000000;}
g[c_partid="part_pad"][layerid="11"] polygon:not([c_etype="pad_outer"]) {fill:#000000;}
g[c_partid="part_pad"][layerid="11"] polyline:not([c_etype="pad_outer"]) {stroke:#000000;}
g[c_partid="part_pad"][layerid="11"] circle {fill:#FFFFFF;}
g[c_partid="part_pad"][layerid="11"] > polyline:nth-of-type(2) {stroke:#FFFFFF;}
g[c_partid="part_pad"][layerid="11"][c_shape="ELLIPSE"]  polyline:nth-last-of-type(1) {stroke:#FFFFFF;}
g[c_partid="part_pad"][layerid="11"][c_shape="RECT"]  polyline:nth-last-of-type(1) {stroke:#FFFFFF;}
g[c_partid="part_pad"][layerid="11"][c_shape="POLYGON"]  polyline:nth-last-of-type(1) {stroke:#FFFFFF;}
g[c_partid="part_via"] > * + circle, #gCurParts g[c_partid="part_via"] > * + circle {fill:#FFFFFF;}
g[c_partid="part_pad"] > polygon[c_etype="pad_outer"], #gCurParts g[c_partid="part_pad"] > polygon[c_etype="pad_outer"] {stroke-linejoin: round;stroke-miterlimit: 100;}
g[c_partid="part_hole"] > circle {fill: #FFFFFF;}path, polyline, polygon {stroke-linejoin:round;}
rect, circle, ellipse, polyline, line, polygon, path {shape-rendering:crispEdges;}
</style>
<rect x="4036" y="3032" width="258.5" height="237.5" fill="#FFFFFF" stroke="none"/><g c_partid="part_pad" c_etype="pinpart" c_origin="4141.5,3084.5" layerid="11" number="1" net="VCC5VDC" plated ="Y"  id="gge42" locked="0" c_rotation="90" c_width="4.7" c_height="4.7" title="VCC5VDC" c_shape="ELLIPSE" pasteexpansion="0" solderexpansion="0.2"><ellipse c_etype="pad_shell" cx="4141.5" cy="3084.5" rx="2.35" ry="2.35" layerid="11" stroke-width="0.2" fill-opacity="0"/><circle c_etype="pad_hole" cx="4141.5" cy="3084.5" r="1.4" layerid="11" stroke-width="0.2" fill-opacity="0"/></g><g c_partid="part_pad" c_etype="pinpart" c_origin="4141.5,3074.5" layerid="11" number="2" net="GND" plated ="Y"  id="gge57" locked="0" c_rotation="90" c_width="4.7" c_height="4.7" title="GND" c_shape="ELLIPSE" pasteexpansion="0" solderexpansion="0.2"><ellipse c_etype="pad_shell" cx="4141.5" cy="3074.5" rx="2.35" ry="2.35" layerid="11" stroke-width="0.2" fill-opacity="0"/><circle c_etype="pad_hole" cx="4141.5" cy="3074.5" r="1.4" layerid="11" stroke-width="0.2" fill-opacity="0"/></g><g c_partid="part_pad" c_etype="pinpart" c_origin="4086,3249" layerid="11" number="1" net="VCC5VDC" plated ="Y"  id="gge111" locked="0" c_rotation="0" c_width="4.7" c_height="4.7" title="VCC5VDC" c_shape="ELLIPSE" pasteexpansion="0" solderexpansion="0.2"><ellipse c_etype="pad_shell" cx="4086" cy="3249" rx="2.35" ry="2.35" layerid="11" stroke-width="0.2" fill-opacity="0"/><circle c_etype="pad_hole" cx="4086" cy="3249" r="1.4" layerid="11" stroke-width="0.2" fill-opacity="0"/></g><g c_partid="part_pad" c_etype="pinpart" c_origin="4096,3249" layerid="11" number="2" net="GND" plated ="Y"  id="gge126" locked="0" c_rotation="0" c_width="4.7" c_height="4.7" title="GND" c_shape="ELLIPSE" pasteexpansion="0" solderexpansion="0.2"><ellipse c_etype="pad_shell" cx="4096" cy="3249" rx="2.35" ry="2.35" layerid="11" stroke-width="0.2" fill-opacity="0"/><circle c_etype="pad_hole" cx="4096" cy="3249" r="1.4" layerid="11" stroke-width="0.2" fill-opacity="0"/></g><g c_partid="part_pad" c_etype="pinpart" c_origin="4158,3060.5" layerid="11" number="1" net="J1_30" plated ="Y"  id="gge180" locked="0" c_rotation="270" c_width="6.2" c_height="6.2" title="J1_30" c_shape="RECT" pasteexpansion="0" solderexpansion="0.2"><polygon  c_etype="pad_shell" points="4161.1 3057.4 4161.1 3063.6 4154.9 3063.6 4154.9 3057.4" layerid="11" stroke-width="0.2" fill-opacity="0" /><circle c_etype="pad_hole" cx="4158" cy="3060.5" r="1.75" layerid="11" stroke-width="0.2" fill-opacity="0"/></g><g c_partid="part_pad" c_etype="pinpart" c_origin="4168,3060.5" layerid="11" number="2" net="GND" plated ="Y"  id="gge195" locked="0" c_rotation="270" c_width="6.2" c_height="6.2" title="GND" c_shape="ELLIPSE" pasteexpansion="0" solderexpansion="0.2"><ellipse c_etype="pad_shell" cx="4168" cy="3060.5" rx="3.1" ry="3.1" layerid="11" stroke-width="0.2" fill-opacity="0"/><circle c_etype="pad_hole" cx="4168" cy="3060.5" r="1.75" layerid="11" stroke-width="0.2" fill-opacity="0"/></g><g c_partid="part_pad" c_etype="pinpart" c_origin="4187.5,3060" layerid="11" number="1" net="VCC5VDC" plated ="Y"  id="gge270" locked="0" c_rotation="0" c_width="6.2" c_height="6.2" title="VCC5VDC" c_shape="RECT" pasteexpansion="0" solderexpansion="0.2"><polygon  c_etype="pad_shell" points="4184.4 3056.9 4190.6 3056.9 4190.6 3063.1 4184.4 3063.1" layerid="11" stroke-width="0.2" fill-opacity="0" /><circle c_etype="pad_hole" cx="4187.5" cy="3060" r="1.75" layerid="11" stroke-width="0.2" fill-opacity="0"/></g><g c_partid="part_pad" c_etype="pinpart" c_origin="4197.5,3060" layerid="11" number="2" net="GND" plated ="Y"  id="gge285" locked="0" c_rotation="0" c_width="6.2" c_height="6.2" title="GND" c_shape="ELLIPSE" pasteexpansion="0" solderexpansion="0.2"><ellipse c_etype="pad_shell" cx="4197.5" cy="3060" rx="3.1" ry="3.1" layerid="11" stroke-width="0.2" fill-opacity="0"/><circle c_etype="pad_hole" cx="4197.5" cy="3060" r="1.75" layerid="11" stroke-width="0.2" fill-opacity="0"/></g><g c_partid="part_pad" c_etype="pinpart" c_origin="4207.5,3060" layerid="11" number="3" net="J1_7" plated ="Y"  id="gge300" locked="0" c_rotation="0" c_width="6.2" c_height="6.2" title="J1_7" c_shape="ELLIPSE" pasteexpansion="0" solderexpansion="0.2"><ellipse c_etype="pad_shell" cx="4207.5" cy="3060" rx="3.1" ry="3.1" layerid="11" stroke-width="0.2" fill-opacity="0"/><circle c_etype="pad_hole" cx="4207.5" cy="3060" r="1.75" layerid="11" stroke-width="0.2" fill-opacity="0"/></g><g c_partid="part_pad" c_etype="pinpart" c_origin="4217.5,3060" layerid="11" number="4" net="J1_6" plated ="Y"  id="gge315" locked="0" c_rotation="0" c_width="6.2" c_height="6.2" title="J1_6" c_shape="ELLIPSE" pasteexpansion="0" solderexpansion="0.2"><ellipse c_etype="pad_shell" cx="4217.5" cy="3060" rx="3.1" ry="3.1" layerid="11" stroke-width="0.2" fill-opacity="0"/><circle c_etype="pad_hole" cx="4217.5" cy="3060" r="1.75" layerid="11" stroke-width="0.2" fill-opacity="0"/></g><g c_partid="part_pad" c_etype="pinpart" c_origin="4227.5,3060" layerid="11" number="5" net="J1_5" plated ="Y"  id="gge330" locked="0" c_rotation="0" c_width="6.2" c_height="6.2" title="J1_5" c_shape="ELLIPSE" pasteexpansion="0" solderexpansion="0.2"><ellipse c_etype="pad_shell" cx="4227.5" cy="3060" rx="3.1" ry="3.1" layerid="11" stroke-width="0.2" fill-opacity="0"/><circle c_etype="pad_hole" cx="4227.5" cy="3060" r="1.75" layerid="11" stroke-width="0.2" fill-opacity="0"/></g><g c_partid="part_pad" c_etype="pinpart" c_origin="4237.5,3060" layerid="11" number="6" net="H2_6" plated ="Y"  id="gge345" locked="0" c_rotation="0" c_width="6.2" c_height="6.2" title="H2_6" c_shape="ELLIPSE" pasteexpansion="0" solderexpansion="0.2"><ellipse c_etype="pad_shell" cx="4237.5" cy="3060" rx="3.1" ry="3.1" layerid="11" stroke-width="0.2" fill-opacity="0"/><circle c_etype="pad_hole" cx="4237.5" cy="3060" r="1.75" layerid="11" stroke-width="0.2" fill-opacity="0"/></g><g c_partid="part_pad" c_etype="pinpart" c_origin="4247.5,3060" layerid="11" number="7" net="H2_7" plated ="Y"  id="gge360" locked="0" c_rotation="0" c_width="6.2" c_height="6.2" title="H2_7" c_shape="ELLIPSE" pasteexpansion="0" solderexpansion="0.2"><ellipse c_etype="pad_shell" cx="4247.5" cy="3060" rx="3.1" ry="3.1" layerid="11" stroke-width="0.2" fill-opacity="0"/><circle c_etype="pad_hole" cx="4247.5" cy="3060" r="1.75" layerid="11" stroke-width="0.2" fill-opacity="0"/></g><g c_partid="part_pad" c_etype="pinpart" c_origin="4257.5,3060" layerid="11" number="8" net="H2_8" plated ="Y"  id="gge375" locked="0" c_rotation="0" c_width="6.2" c_height="6.2" title="H2_8" c_shape="ELLIPSE" pasteexpansion="0" solderexpansion="0.2"><ellipse c_etype="pad_shell" cx="4257.5" cy="3060" rx="3.1" ry="3.1" layerid="11" stroke-width="0.2" fill-opacity="0"/><circle c_etype="pad_hole" cx="4257.5" cy="3060" r="1.75" layerid="11" stroke-width="0.2" fill-opacity="0"/></g><g c_partid="part_pad" c_etype="pinpart" c_origin="4063,3084" layerid="11" number="1" net="J1_1" plated ="Y"  id="gge510" locked="0" c_rotation="0" c_width="6" c_height="6" title="J1_1" c_shape="ELLIPSE" pasteexpansion="0" solderexpansion="0.2"><ellipse c_etype="pad_shell" cx="4063" cy="3084" rx="3" ry="3" layerid="11" stroke-width="0.2" fill-opacity="0"/><circle c_etype="pad_hole" cx="4063" cy="3084" r="1.8" layerid="11" stroke-width="0.2" fill-opacity="0"/></g><g c_partid="part_pad" c_etype="pinpart" c_origin="4063,3094" layerid="11" number="2" net="J1_2" plated ="Y"  id="gge525" locked="0" c_rotation="0" c_width="6" c_height="6" title="J1_2" c_shape="ELLIPSE" pasteexpansion="0" solderexpansion="0.2"><ellipse c_etype="pad_shell" cx="4063" cy="3094" rx="3" ry="3" layerid="11" stroke-width="0.2" fill-opacity="0"/><circle c_etype="pad_hole" cx="4063" cy="3094" r="1.8" layerid="11" stroke-width="0.2" fill-opacity="0"/></g><g c_partid="part_pad" c_etype="pinpart" c_origin="4063,3104" layerid="11" number="3" net="J1_3" plated ="Y"  id="gge540" locked="0" c_rotation="0" c_width="6" c_height="6" title="J1_3" c_shape="ELLIPSE" pasteexpansion="0" solderexpansion="0.2"><ellipse c_etype="pad_shell" cx="4063" cy="3104" rx="3" ry="3" layerid="11" stroke-width="0.2" fill-opacity="0"/><circle c_etype="pad_hole" cx="4063" cy="3104" r="1.8" layerid="11" stroke-width="0.2" fill-opacity="0"/></g><g c_partid="part_pad" c_etype="pinpart" c_origin="4063,3114" layerid="11" number="4" net="GND" plated ="Y"  id="gge555" locked="0" c_rotation="0" c_width="6" c_height="6" title="GND" c_shape="ELLIPSE" pasteexpansion="0" solderexpansion="0.2"><ellipse c_etype="pad_shell" cx="4063" cy="3114" rx="3" ry="3" layerid="11" stroke-width="0.2" fill-opacity="0"/><circle c_etype="pad_hole" cx="4063" cy="3114" r="1.8" layerid="11" stroke-width="0.2" fill-opacity="0"/></g><g c_partid="part_pad" c_etype="pinpart" c_origin="4063,3124" layerid="11" number="5" net="J1_5" plated ="Y"  id="gge570" locked="0" c_rotation="0" c_width="6" c_height="6" title="J1_5" c_shape="ELLIPSE" pasteexpansion="0" solderexpansion="0.2"><ellipse c_etype="pad_shell" cx="4063" cy="3124" rx="3" ry="3" layerid="11" stroke-width="0.2" fill-opacity="0"/><circle c_etype="pad_hole" cx="4063" cy="3124" r="1.8" layerid="11" stroke-width="0.2" fill-opacity="0"/></g><g c_partid="part_pad" c_etype="pinpart" c_origin="4063,3134" layerid="11" number="6" net="J1_6" plated ="Y"  id="gge585" locked="0" c_rotation="0" c_width="6" c_height="6" title="J1_6" c_shape="ELLIPSE" pasteexpansion="0" solderexpansion="0.2"><ellipse c_etype="pad_shell" cx="4063" cy="3134" rx="3" ry="3" layerid="11" stroke-width="0.2" fill-opacity="0"/><circle c_etype="pad_hole" cx="4063" cy="3134" r="1.8" layerid="11" stroke-width="0.2" fill-opacity="0"/></g><g c_partid="part_pad" c_etype="pinpart" c_origin="4063,3144" layerid="11" number="7" net="J1_7" plated ="Y"  id="gge600" locked="0" c_rotation="0" c_width="6" c_height="6" title="J1_7" c_shape="ELLIPSE" pasteexpansion="0" solderexpansion="0.2"><ellipse c_etype="pad_shell" cx="4063" cy="3144" rx="3" ry="3" layerid="11" stroke-width="0.2" fill-opacity="0"/><circle c_etype="pad_hole" cx="4063" cy="3144" r="1.8" layerid="11" stroke-width="0.2" fill-opacity="0"/></g><g c_partid="part_pad" c_etype="pinpart" c_origin="4063,3154" layerid="11" number="8" net="J1_8" plated ="Y"  id="gge615" locked="0" c_rotation="180" c_width="6" c_height="6" title="J1_8" c_shape="ELLIPSE" pasteexpansion="0" solderexpansion="0.2"><ellipse c_etype="pad_shell" cx="4063" cy="3154" rx="3" ry="3" layerid="11" stroke-width="0.2" fill-opacity="0"/><circle c_etype="pad_hole" cx="4063" cy="3154" r="1.8" layerid="11" stroke-width="0.2" fill-opacity="0"/></g><g c_partid="part_pad" c_etype="pinpart" c_origin="4063,3164" layerid="11" number="9" net="J1_9" plated ="Y"  id="gge630" locked="0" c_rotation="180" c_width="6" c_height="6" title="J1_9" c_shape="ELLIPSE" pasteexpansion="0" solderexpansion="0.2"><ellipse c_etype="pad_shell" cx="4063" cy="3164" rx="3" ry="3" layerid="11" stroke-width="0.2" fill-opacity="0"/><circle c_etype="pad_hole" cx="4063" cy="3164" r="1.8" layerid="11" stroke-width="0.2" fill-opacity="0"/></g><g c_partid="part_pad" c_etype="pinpart" c_origin="4063,3174" layerid="11" number="10" net="J1_10" plated ="Y"  id="gge645" locked="0" c_rotation="180" c_width="6" c_height="6" title="J1_10" c_shape="ELLIPSE" pasteexpansion="0" solderexpansion="0.2"><ellipse c_etype="pad_shell" cx="4063" cy="3174" rx="3" ry="3" layerid="11" stroke-width="0.2" fill-opacity="0"/><circle c_etype="pad_hole" cx="4063" cy="3174" r="1.8" layerid="11" stroke-width="0.2" fill-opacity="0"/></g><g c_partid="part_pad" c_etype="pinpart" c_origin="4063,3184" layerid="11" number="11" net="J1_11" plated ="Y"  id="gge660" locked="0" c_rotation="180" c_width="6" c_height="6" title="J1_11" c_shape="ELLIPSE" pasteexpansion="0" solderexpansion="0.2"><ellipse c_etype="pad_shell" cx="4063" cy="3184" rx="3" ry="3" layerid="11" stroke-width="0.2" fill-opacity="0"/><circle c_etype="pad_hole" cx="4063" cy="3184" r="1.8" layerid="11" stroke-width="0.2" fill-opacity="0"/></g><g c_partid="part_pad" c_etype="pinpart" c_origin="4063,3194" layerid="11" number="12" net="J1_12" plated ="Y"  id="gge675" locked="0" c_rotation="180" c_width="6" c_height="6" title="J1_12" c_shape="ELLIPSE" pasteexpansion="0" solderexpansion="0.2"><ellipse c_etype="pad_shell" cx="4063" cy="3194" rx="3" ry="3" layerid="11" stroke-width="0.2" fill-opacity="0"/><circle c_etype="pad_hole" cx="4063" cy="3194" r="1.8" layerid="11" stroke-width="0.2" fill-opacity="0"/></g><g c_partid="part_pad" c_etype="pinpart" c_origin="4063,3204" layerid="11" number="13" net="J1_13" plated ="Y"  id="gge690" locked="0" c_rotation="180" c_width="6" c_height="6" title="J1_13" c_shape="ELLIPSE" pasteexpansion="0" solderexpansion="0.2"><ellipse c_etype="pad_shell" cx="4063" cy="3204" rx="3" ry="3" layerid="11" stroke-width="0.2" fill-opacity="0"/><circle c_etype="pad_hole" cx="4063" cy="3204" r="1.8" layerid="11" stroke-width="0.2" fill-opacity="0"/></g><g c_partid="part_pad" c_etype="pinpart" c_origin="4063,3214" layerid="11" number="14" net="J1_14" plated ="Y"  id="gge705" locked="0" c_rotation="180" c_width="6" c_height="6" title="J1_14" c_shape="ELLIPSE" pasteexpansion="0" solderexpansion="0.2"><ellipse c_etype="pad_shell" cx="4063" cy="3214" rx="3" ry="3" layerid="11" stroke-width="0.2" fill-opacity="0"/><circle c_etype="pad_hole" cx="4063" cy="3214" r="1.8" layerid="11" stroke-width="0.2" fill-opacity="0"/></g><g c_partid="part_pad" c_etype="pinpart" c_origin="4063,3224" layerid="11" number="15" net="J1_15" plated ="Y"  id="gge720" locked="0" c_rotation="180" c_width="6" c_height="6" title="J1_15" c_shape="ELLIPSE" pasteexpansion="0" solderexpansion="0.2"><ellipse c_etype="pad_shell" cx="4063" cy="3224" rx="3" ry="3" layerid="11" stroke-width="0.2" fill-opacity="0"/><circle c_etype="pad_hole" cx="4063" cy="3224" r="1.8" layerid="11" stroke-width="0.2" fill-opacity="0"/></g><g c_partid="part_pad" c_etype="pinpart" c_origin="4123,3224" layerid="11" number="16" net="J1_16" plated ="Y"  id="gge735" locked="0" c_rotation="180" c_width="6" c_height="6" title="J1_16" c_shape="ELLIPSE" pasteexpansion="0" solderexpansion="0.2"><ellipse c_etype="pad_shell" cx="4123" cy="3224" rx="3" ry="3" layerid="11" stroke-width="0.2" fill-opacity="0"/><circle c_etype="pad_hole" cx="4123" cy="3224" r="1.8" layerid="11" stroke-width="0.2" fill-opacity="0"/></g><g c_partid="part_pad" c_etype="pinpart" c_origin="4123,3214" layerid="11" number="17" net="J1_17" plated ="Y"  id="gge750" locked="0" c_rotation="180" c_width="6" c_height="6" title="J1_17" c_shape="ELLIPSE" pasteexpansion="0" solderexpansion="0.2"><ellipse c_etype="pad_shell" cx="4123" cy="3214" rx="3" ry="3" layerid="11" stroke-width="0.2" fill-opacity="0"/><circle c_etype="pad_hole" cx="4123" cy="3214" r="1.8" layerid="11" stroke-width="0.2" fill-opacity="0"/></g><g c_partid="part_pad" c_etype="pinpart" c_origin="4123,3204" layerid="11" number="18" net="J1_18" plated ="Y"  id="gge765" locked="0" c_rotation="180" c_width="6" c_height="6" title="J1_18" c_shape="ELLIPSE" pasteexpansion="0" solderexpansion="0.2"><ellipse c_etype="pad_shell" cx="4123" cy="3204" rx="3" ry="3" layerid="11" stroke-width="0.2" fill-opacity="0"/><circle c_etype="pad_hole" cx="4123" cy="3204" r="1.8" layerid="11" stroke-width="0.2" fill-opacity="0"/></g><g c_partid="part_pad" c_etype="pinpart" c_origin="4123,3194" layerid="11" number="19" net="J1_19" plated ="Y"  id="gge780" locked="0" c_rotation="180" c_width="6" c_height="6" title="J1_19" c_shape="ELLIPSE" pasteexpansion="0" solderexpansion="0.2"><ellipse c_etype="pad_shell" cx="4123" cy="3194" rx="3" ry="3" layerid="11" stroke-width="0.2" fill-opacity="0"/><circle c_etype="pad_hole" cx="4123" cy="3194" r="1.8" layerid="11" stroke-width="0.2" fill-opacity="0"/></g><g c_partid="part_pad" c_etype="pinpart" c_origin="4123,3184" layerid="11" number="20" net="J1_20" plated ="Y"  id="gge795" locked="0" c_rotation="180" c_width="6" c_height="6" title="J1_20" c_shape="ELLIPSE" pasteexpansion="0" solderexpansion="0.2"><ellipse c_etype="pad_shell" cx="4123" cy="3184" rx="3" ry="3" layerid="11" stroke-width="0.2" fill-opacity="0"/><circle c_etype="pad_hole" cx="4123" cy="3184" r="1.8" layerid="11" stroke-width="0.2" fill-opacity="0"/></g><g c_partid="part_pad" c_etype="pinpart" c_origin="4123,3174" layerid="11" number="21" net="J1_21" plated ="Y"  id="gge810" locked="0" c_rotation="180" c_width="6" c_height="6" title="J1_21" c_shape="ELLIPSE" pasteexpansion="0" solderexpansion="0.2"><ellipse c_etype="pad_shell" cx="4123" cy="3174" rx="3" ry="3" layerid="11" stroke-width="0.2" fill-opacity="0"/><circle c_etype="pad_hole" cx="4123" cy="3174" r="1.8" layerid="11" stroke-width="0.2" fill-opacity="0"/></g><g c_partid="part_pad" c_etype="pinpart" c_origin="4123,3164" layerid="11" number="22" net="J1_22" plated ="Y"  id="gge825" locked="0" c_rotation="180" c_width="6" c_height="6" title="J1_22" c_shape="ELLIPSE" pasteexpansion="0" solderexpansion="0.2"><ellipse c_etype="pad_shell" cx="4123" cy="3164" rx="3" ry="3" layerid="11" stroke-width="0.2" fill-opacity="0"/><circle c_etype="pad_hole" cx="4123" cy="3164" r="1.8" layerid="11" stroke-width="0.2" fill-opacity="0"/></g><g c_partid="part_pad" c_etype="pinpart" c_origin="4123,3154" layerid="11" number="23" net="J1_23" plated ="Y"  id="gge840" locked="0" c_rotation="180" c_width="6" c_height="6" title="J1_23" c_shape="ELLIPSE" pasteexpansion="0" solderexpansion="0.2"><ellipse c_etype="pad_shell" cx="4123" cy="3154" rx="3" ry="3" layerid="11" stroke-width="0.2" fill-opacity="0"/><circle c_etype="pad_hole" cx="4123" cy="3154" r="1.8" layerid="11" stroke-width="0.2" fill-opacity="0"/></g><g c_partid="part_pad" c_etype="pinpart" c_origin="4123,3144" layerid="11" number="24" net="J1_24" plated ="Y"  id="gge855" locked="0" c_rotation="180" c_width="6" c_height="6" title="J1_24" c_shape="ELLIPSE" pasteexpansion="0" solderexpansion="0.2"><ellipse c_etype="pad_shell" cx="4123" cy="3144" rx="3" ry="3" layerid="11" stroke-width="0.2" fill-opacity="0"/><circle c_etype="pad_hole" cx="4123" cy="3144" r="1.8" layerid="11" stroke-width="0.2" fill-opacity="0"/></g><g c_partid="part_pad" c_etype="pinpart" c_origin="4123,3134" layerid="11" number="25" net="J1_25" plated ="Y"  id="gge870" locked="0" c_rotation="180" c_width="6" c_height="6" title="J1_25" c_shape="ELLIPSE" pasteexpansion="0" solderexpansion="0.2"><ellipse c_etype="pad_shell" cx="4123" cy="3134" rx="3" ry="3" layerid="11" stroke-width="0.2" fill-opacity="0"/><circle c_etype="pad_hole" cx="4123" cy="3134" r="1.8" layerid="11" stroke-width="0.2" fill-opacity="0"/></g><g c_partid="part_pad" c_etype="pinpart" c_origin="4123,3124" layerid="11" number="26" net="J1_26" plated ="Y"  id="gge885" locked="0" c_rotation="180" c_width="6" c_height="6" title="J1_26" c_shape="ELLIPSE" pasteexpansion="0" solderexpansion="0.2"><ellipse c_etype="pad_shell" cx="4123" cy="3124" rx="3" ry="3" layerid="11" stroke-width="0.2" fill-opacity="0"/><circle c_etype="pad_hole" cx="4123" cy="3124" r="1.8" layerid="11" stroke-width="0.2" fill-opacity="0"/></g><g c_partid="part_pad" c_etype="pinpart" c_origin="4123,3114" layerid="11" number="27" net="VCC5VDC" plated ="Y"  id="gge900" locked="0" c_rotation="180" c_width="6" c_height="6" title="VCC5VDC" c_shape="ELLIPSE" pasteexpansion="0" solderexpansion="0.2"><ellipse c_etype="pad_shell" cx="4123" cy="3114" rx="3" ry="3" layerid="11" stroke-width="0.2" fill-opacity="0"/><circle c_etype="pad_hole" cx="4123" cy="3114" r="1.8" layerid="11" stroke-width="0.2" fill-opacity="0"/></g><g c_partid="part_pad" c_etype="pinpart" c_origin="4123,3104" layerid="11" number="28" net="J1_28" plated ="Y"  id="gge915" locked="0" c_rotation="180" c_width="6" c_height="6" title="J1_28" c_shape="ELLIPSE" pasteexpansion="0" solderexpansion="0.2"><ellipse c_etype="pad_shell" cx="4123" cy="3104" rx="3" ry="3" layerid="11" stroke-width="0.2" fill-opacity="0"/><circle c_etype="pad_hole" cx="4123" cy="3104" r="1.8" layerid="11" stroke-width="0.2" fill-opacity="0"/></g><g c_partid="part_pad" c_etype="pinpart" c_origin="4123,3094" layerid="11" number="29" net="GND" plated ="Y"  id="gge930" locked="0" c_rotation="180" c_width="6" c_height="6" title="GND" c_shape="ELLIPSE" pasteexpansion="0" solderexpansion="0.2"><ellipse c_etype="pad_shell" cx="4123" cy="3094" rx="3" ry="3" layerid="11" stroke-width="0.2" fill-opacity="0"/><circle c_etype="pad_hole" cx="4123" cy="3094" r="1.8" layerid="11" stroke-width="0.2" fill-opacity="0"/></g><g c_partid="part_pad" c_etype="pinpart" c_origin="4123,3084" layerid="11" number="30" net="J1_30" plated ="Y"  id="gge945" locked="0" c_rotation="180" c_width="6" c_height="6" title="J1_30" c_shape="ELLIPSE" pasteexpansion="0" solderexpansion="0.2"><ellipse c_etype="pad_shell" cx="4123" cy="3084" rx="3" ry="3" layerid="11" stroke-width="0.2" fill-opacity="0"/><circle c_etype="pad_hole" cx="4123" cy="3084" r="1.8" layerid="11" stroke-width="0.2" fill-opacity="0"/></g><g c_partid="part_pad" c_etype="pinpart" c_origin="4171,3226" layerid="11" number="1" net="GND" plated ="Y"  id="gge1044" locked="0" c_rotation="0" c_width="6" c_height="6" title="GND" c_shape="ELLIPSE" pasteexpansion="0" solderexpansion="0.2"><ellipse c_etype="pad_shell" cx="4171" cy="3226" rx="3" ry="3" layerid="11" stroke-width="0.2" fill-opacity="0"/><circle c_etype="pad_hole" cx="4171" cy="3226" r="2.165" layerid="11" stroke-width="0.2" fill-opacity="0"/></g><g c_partid="part_pad" c_etype="pinpart" c_origin="4171,3216" layerid="11" number="2" net="J1_9" plated ="Y"  id="gge1059" locked="0" c_rotation="0" c_width="6" c_height="6" title="J1_9" c_shape="ELLIPSE" pasteexpansion="0" solderexpansion="0.2"><ellipse c_etype="pad_shell" cx="4171" cy="3216" rx="3" ry="3" layerid="11" stroke-width="0.2" fill-opacity="0"/><circle c_etype="pad_hole" cx="4171" cy="3216" r="2.165" layerid="11" stroke-width="0.2" fill-opacity="0"/></g><g c_partid="part_pad" c_etype="pinpart" c_origin="4181,3226" layerid="11" number="3" net="GND" plated ="Y"  id="gge1074" locked="0" c_rotation="0" c_width="6" c_height="6" title="GND" c_shape="ELLIPSE" pasteexpansion="0" solderexpansion="0.2"><ellipse c_etype="pad_shell" cx="4181" cy="3226" rx="3" ry="3" layerid="11" stroke-width="0.2" fill-opacity="0"/><circle c_etype="pad_hole" cx="4181" cy="3226" r="2.165" layerid="11" stroke-width="0.2" fill-opacity="0"/></g><g c_partid="part_pad" c_etype="pinpart" c_origin="4181,3216" layerid="11" number="4" net="J1_11" plated ="Y"  id="gge1089" locked="0" c_rotation="0" c_width="6" c_height="6" title="J1_11" c_shape="ELLIPSE" pasteexpansion="0" solderexpansion="0.2"><ellipse c_etype="pad_shell" cx="4181" cy="3216" rx="3" ry="3" layerid="11" stroke-width="0.2" fill-opacity="0"/><circle c_etype="pad_hole" cx="4181" cy="3216" r="2.165" layerid="11" stroke-width="0.2" fill-opacity="0"/></g><g c_partid="part_pad" c_etype="pinpart" c_origin="4191,3226" layerid="11" number="5" net="GND" plated ="Y"  id="gge1104" locked="0" c_rotation="0" c_width="6" c_height="6" title="GND" c_shape="ELLIPSE" pasteexpansion="0" solderexpansion="0.2"><ellipse c_etype="pad_shell" cx="4191" cy="3226" rx="3" ry="3" layerid="11" stroke-width="0.2" fill-opacity="0"/><circle c_etype="pad_hole" cx="4191" cy="3226" r="2.165" layerid="11" stroke-width="0.2" fill-opacity="0"/></g><g c_partid="part_pad" c_etype="pinpart" c_origin="4191,3216" layerid="11" number="6" net="J1_10" plated ="Y"  id="gge1119" locked="0" c_rotation="0" c_width="6" c_height="6" title="J1_10" c_shape="ELLIPSE" pasteexpansion="0" solderexpansion="0.2"><ellipse c_etype="pad_shell" cx="4191" cy="3216" rx="3" ry="3" layerid="11" stroke-width="0.2" fill-opacity="0"/><circle c_etype="pad_hole" cx="4191" cy="3216" r="2.165" layerid="11" stroke-width="0.2" fill-opacity="0"/></g><g c_partid="part_pad" c_etype="pinpart" c_origin="4228,3090" layerid="11" number="1" net="J1_9" plated ="Y"  id="gge1188" locked="0" c_rotation="0" c_width="7.4" c_height="7.4" title="J1_9" c_shape="ELLIPSE" pasteexpansion="0" solderexpansion="0.2"><ellipse c_etype="pad_shell" cx="4228" cy="3090" rx="3.7" ry="3.7" layerid="11" stroke-width="0.2" fill-opacity="0"/><circle c_etype="pad_hole" cx="4228" cy="3090" r="1.77" layerid="11" stroke-width="0.2" fill-opacity="0"/></g><g c_partid="part_pad" c_etype="pinpart" c_origin="4268,3090" layerid="11" number="2" net="VCC5VDC" plated ="Y"  id="gge1203" locked="0" c_rotation="0" c_width="7.4" c_height="7.4" title="VCC5VDC" c_shape="ELLIPSE" pasteexpansion="0" solderexpansion="0.2"><ellipse c_etype="pad_shell" cx="4268" cy="3090" rx="3.7" ry="3.7" layerid="11" stroke-width="0.2" fill-opacity="0"/><circle c_etype="pad_hole" cx="4268" cy="3090" r="1.77" layerid="11" stroke-width="0.2" fill-opacity="0"/></g><g c_partid="part_pad" c_etype="pinpart" c_origin="4228.5,3109.5" layerid="11" number="1" net="J1_11" plated ="Y"  id="gge1272" locked="0" c_rotation="0" c_width="7.4" c_height="7.4" title="J1_11" c_shape="ELLIPSE" pasteexpansion="0" solderexpansion="0.2"><ellipse c_etype="pad_shell" cx="4228.5" cy="3109.5" rx="3.7" ry="3.7" layerid="11" stroke-width="0.2" fill-opacity="0"/><circle c_etype="pad_hole" cx="4228.5" cy="3109.5" r="1.77" layerid="11" stroke-width="0.2" fill-opacity="0"/></g><g c_partid="part_pad" c_etype="pinpart" c_origin="4268.5,3109.5" layerid="11" number="2" net="VCC5VDC" plated ="Y"  id="gge1287" locked="0" c_rotation="0" c_width="7.4" c_height="7.4" title="VCC5VDC" c_shape="ELLIPSE" pasteexpansion="0" solderexpansion="0.2"><ellipse c_etype="pad_shell" cx="4268.5" cy="3109.5" rx="3.7" ry="3.7" layerid="11" stroke-width="0.2" fill-opacity="0"/><circle c_etype="pad_hole" cx="4268.5" cy="3109.5" r="1.77" layerid="11" stroke-width="0.2" fill-opacity="0"/></g><g c_partid="part_pad" c_etype="pinpart" c_origin="4229,3130" layerid="11" number="1" net="J1_10" plated ="Y"  id="gge1356" locked="0" c_rotation="0" c_width="7.4" c_height="7.4" title="J1_10" c_shape="ELLIPSE" pasteexpansion="0" solderexpansion="0.2"><ellipse c_etype="pad_shell" cx="4229" cy="3130" rx="3.7" ry="3.7" layerid="11" stroke-width="0.2" fill-opacity="0"/><circle c_etype="pad_hole" cx="4229" cy="3130" r="1.77" layerid="11" stroke-width="0.2" fill-opacity="0"/></g><g c_partid="part_pad" c_etype="pinpart" c_origin="4269,3130" layerid="11" number="2" net="VCC5VDC" plated ="Y"  id="gge1371" locked="0" c_rotation="0" c_width="7.4" c_height="7.4" title="VCC5VDC" c_shape="ELLIPSE" pasteexpansion="0" solderexpansion="0.2"><ellipse c_etype="pad_shell" cx="4269" cy="3130" rx="3.7" ry="3.7" layerid="11" stroke-width="0.2" fill-opacity="0"/><circle c_etype="pad_hole" cx="4269" cy="3130" r="1.77" layerid="11" stroke-width="0.2" fill-opacity="0"/></g><g c_partid="part_pad" c_etype="pinpart" c_origin="4197.5,3089" layerid="11" number="1" net="H2_7" plated ="Y"  id="gge1440" locked="0" c_rotation="180" c_width="7.4" c_height="7.4" title="H2_7" c_shape="ELLIPSE" pasteexpansion="0" solderexpansion="0.2"><ellipse c_etype="pad_shell" cx="4197.5" cy="3089" rx="3.7" ry="3.7" layerid="11" stroke-width="0.2" fill-opacity="0"/><circle c_etype="pad_hole" cx="4197.5" cy="3089" r="1.77" layerid="11" stroke-width="0.2" fill-opacity="0"/></g><g c_partid="part_pad" c_etype="pinpart" c_origin="4157.5,3089" layerid="11" number="2" net="J1_14" plated ="Y"  id="gge1455" locked="0" c_rotation="180" c_width="7.4" c_height="7.4" title="J1_14" c_shape="ELLIPSE" pasteexpansion="0" solderexpansion="0.2"><ellipse c_etype="pad_shell" cx="4157.5" cy="3089" rx="3.7" ry="3.7" layerid="11" stroke-width="0.2" fill-opacity="0"/><circle c_etype="pad_hole" cx="4157.5" cy="3089" r="1.77" layerid="11" stroke-width="0.2" fill-opacity="0"/></g><g c_partid="part_pad" c_etype="pinpart" c_origin="4198,3110" layerid="11" number="1" net="H2_6" plated ="Y"  id="gge1524" locked="0" c_rotation="180" c_width="7.4" c_height="7.4" title="H2_6" c_shape="ELLIPSE" pasteexpansion="0" solderexpansion="0.2"><ellipse c_etype="pad_shell" cx="4198" cy="3110" rx="3.7" ry="3.7" layerid="11" stroke-width="0.2" fill-opacity="0"/><circle c_etype="pad_hole" cx="4198" cy="3110" r="1.77" layerid="11" stroke-width="0.2" fill-opacity="0"/></g><g c_partid="part_pad" c_etype="pinpart" c_origin="4158,3110" layerid="11" number="2" net="J1_15" plated ="Y"  id="gge1539" locked="0" c_rotation="180" c_width="7.4" c_height="7.4" title="J1_15" c_shape="ELLIPSE" pasteexpansion="0" solderexpansion="0.2"><ellipse c_etype="pad_shell" cx="4158" cy="3110" rx="3.7" ry="3.7" layerid="11" stroke-width="0.2" fill-opacity="0"/><circle c_etype="pad_hole" cx="4158" cy="3110" r="1.77" layerid="11" stroke-width="0.2" fill-opacity="0"/></g><g c_partid="part_pad" c_etype="pinpart" c_origin="4197,3131" layerid="11" number="1" net="H2_8" plated ="Y"  id="gge1608" locked="0" c_rotation="180" c_width="7.4" c_height="7.4" title="H2_8" c_shape="ELLIPSE" pasteexpansion="0" solderexpansion="0.2"><ellipse c_etype="pad_shell" cx="4197" cy="3131" rx="3.7" ry="3.7" layerid="11" stroke-width="0.2" fill-opacity="0"/><circle c_etype="pad_hole" cx="4197" cy="3131" r="1.77" layerid="11" stroke-width="0.2" fill-opacity="0"/></g><g c_partid="part_pad" c_etype="pinpart" c_origin="4157,3131" layerid="11" number="2" net="J1_13" plated ="Y"  id="gge1623" locked="0" c_rotation="180" c_width="7.4" c_height="7.4" title="J1_13" c_shape="ELLIPSE" pasteexpansion="0" solderexpansion="0.2"><ellipse c_etype="pad_shell" cx="4157" cy="3131" rx="3.7" ry="3.7" layerid="11" stroke-width="0.2" fill-opacity="0"/><circle c_etype="pad_hole" cx="4157" cy="3131" r="1.77" layerid="11" stroke-width="0.2" fill-opacity="0"/></g><g c_partid="part_pad" c_etype="pinpart" c_origin="4245.501,3158.079" layerid="11" number="2" net="J1_21" plated ="Y"  id="gge1689" locked="0" c_rotation="0" c_width="6" c_height="6" title="J1_21" c_shape="ELLIPSE" pasteexpansion="0" solderexpansion="0.2"><ellipse c_etype="pad_shell" cx="4245.501" cy="3158.079" rx="3" ry="3" layerid="11" stroke-width="0.2" fill-opacity="0"/><circle c_etype="pad_hole" cx="4245.5005" cy="3158.0782" r="1.378" layerid="11" stroke-width="0.2" fill-opacity="0"/></g><g c_partid="part_pad" c_etype="pinpart" c_origin="4255.343,3167.921" layerid="11" number="1" net="VCC5VDC" plated ="Y"  id="gge1704" locked="0" c_rotation="0" c_width="6" c_height="6" title="VCC5VDC" c_shape="ELLIPSE" pasteexpansion="0" solderexpansion="0.2"><ellipse c_etype="pad_shell" cx="4255.343" cy="3167.921" rx="3" ry="3" layerid="11" stroke-width="0.2" fill-opacity="0"/><circle c_etype="pad_hole" cx="4255.3425" cy="3167.9208" r="1.378" layerid="11" stroke-width="0.2" fill-opacity="0"/></g><g c_partid="part_pad" c_etype="pinpart" c_origin="4235.658,3167.921" layerid="11" number="3" net="GND" plated ="Y"  id="gge1719" locked="0" c_rotation="0" c_width="6" c_height="6" title="GND" c_shape="ELLIPSE" pasteexpansion="0" solderexpansion="0.2"><ellipse c_etype="pad_shell" cx="4235.658" cy="3167.921" rx="3" ry="3" layerid="11" stroke-width="0.2" fill-opacity="0"/><circle c_etype="pad_hole" cx="4235.6575" cy="3167.9208" r="1.378" layerid="11" stroke-width="0.2" fill-opacity="0"/></g><g c_partid="part_pad" c_etype="pinpart" c_origin="4246.501,3207.079" layerid="11" number="2" net="J1_19" plated ="Y"  id="gge1785" locked="0" c_rotation="0" c_width="6" c_height="6" title="J1_19" c_shape="ELLIPSE" pasteexpansion="0" solderexpansion="0.2"><ellipse c_etype="pad_shell" cx="4246.501" cy="3207.079" rx="3" ry="3" layerid="11" stroke-width="0.2" fill-opacity="0"/><circle c_etype="pad_hole" cx="4246.5005" cy="3207.0782" r="1.378" layerid="11" stroke-width="0.2" fill-opacity="0"/></g><g c_partid="part_pad" c_etype="pinpart" c_origin="4256.343,3216.921" layerid="11" number="1" net="VCC5VDC" plated ="Y"  id="gge1800" locked="0" c_rotation="0" c_width="6" c_height="6" title="VCC5VDC" c_shape="ELLIPSE" pasteexpansion="0" solderexpansion="0.2"><ellipse c_etype="pad_shell" cx="4256.343" cy="3216.921" rx="3" ry="3" layerid="11" stroke-width="0.2" fill-opacity="0"/><circle c_etype="pad_hole" cx="4256.3425" cy="3216.9208" r="1.378" layerid="11" stroke-width="0.2" fill-opacity="0"/></g><g c_partid="part_pad" c_etype="pinpart" c_origin="4236.658,3216.921" layerid="11" number="3" net="GND" plated ="Y"  id="gge1815" locked="0" c_rotation="0" c_width="6" c_height="6" title="GND" c_shape="ELLIPSE" pasteexpansion="0" solderexpansion="0.2"><ellipse c_etype="pad_shell" cx="4236.658" cy="3216.921" rx="3" ry="3" layerid="11" stroke-width="0.2" fill-opacity="0"/><circle c_etype="pad_hole" cx="4236.6575" cy="3216.9208" r="1.378" layerid="11" stroke-width="0.2" fill-opacity="0"/></g><g c_partid="part_hole" c_etype="pinpart" c_shapetype="group" c_origin="4273,3248.5" layerid="11" id="gge1956" locked="0" ><circle cx="4273" cy="3248.5" r="4"  stroke-width="0.2" fill-opacity="0" /></g><g c_partid="part_hole" c_etype="pinpart" c_shapetype="group" c_origin="4272,3052.5" layerid="11" id="gge1971" locked="0" ><circle cx="4272" cy="3052.5" r="4"  stroke-width="0.2" fill-opacity="0" /></g><g c_partid="part_hole" c_etype="pinpart" c_shapetype="group" c_origin="4056.5,3053.5" layerid="11" id="gge1986" locked="0" ><circle cx="4056.5" cy="3053.5" r="4"  stroke-width="0.2" fill-opacity="0" /></g><g c_partid="part_hole" c_etype="pinpart" c_shapetype="group" c_origin="4056.5,3249" layerid="11" id="gge2001" locked="0" ><circle cx="4056.5" cy="3249" r="4"  stroke-width="0.2" fill-opacity="0" /></g><polyline points="4136.51 3069.51 4136.51 3089.51 4146.51 3089.51 4146.51 3069.51 4136.51 3069.51" stroke-width="0.2"  stroke-linecap="round" fill="none" layerid="3" net="" id="gge21" locked="0" /><polyline points="4100.99 3244.01 4080.99 3244.01 4080.99 3254.01 4100.99 3254.01 4100.99 3244.01" stroke-width="0.2"  stroke-linecap="round" fill="none" layerid="3" net="" id="gge90" locked="0" /><polyline points="4173 3055.5 4173 3065.4 4153 3065.4 4153 3055.5 4173 3055.5" stroke-width="0.2"  stroke-linecap="round" fill="none" layerid="3" net="" id="gge159" locked="0" /><polyline points="4262.5 3055 4262.5 3065 4182.5 3065 4182.5 3055 4190 3055" stroke-width="0.2"  stroke-linecap="round" fill="none" layerid="3" net="" id="gge228" locked="0" /><polyline points="4262.5 3055 4190 3055" stroke-width="0.2"  stroke-linecap="round" fill="none" layerid="3" net="" id="gge231" locked="0" /><polyline points="4057.567 3068.961 4128.433 3068.961 4128.433 3239.04 4057.567 3239.04 4057.567 3068.961" stroke-width="0.2"  stroke-linecap="round" fill="none" layerid="3" net="" id="gge411" locked="0" /><polyline points="4212.2 3203.267 4212.2 3238.7" stroke-width="0.2"  stroke-linecap="round" fill="none" layerid="3" net="" id="gge978" locked="0" /><polyline points="4206.7 3208.1 4206.7 3233.966" stroke-width="0.2"  stroke-linecap="round" fill="none" layerid="3" net="" id="gge981" locked="0" /><polyline points="4150.01 3203.2 4212.22 3203.2" stroke-width="0.2"  stroke-linecap="round" fill="none" layerid="3" net="" id="gge984" locked="0" /><polyline points="4149.9 3238.633 4149.9 3203.2" stroke-width="0.2"  stroke-linecap="round" fill="none" layerid="3" net="" id="gge987" locked="0" /><polyline points="4155.5 3233.9 4155.5 3208.034" stroke-width="0.2"  stroke-linecap="round" fill="none" layerid="3" net="" id="gge990" locked="0" /><polyline points="4150 3238.7 4212.189 3238.7" stroke-width="0.2"  stroke-linecap="round" fill="none" layerid="3" net="" id="gge993" locked="0" /><polyline points="4155.534 3208 4206.709 3208" stroke-width="0.2"  stroke-linecap="round" fill="none" layerid="3" net="" id="gge996" locked="0" /><polyline points="4159.2 3233.9 4162.1 3231 4165 3233.9 4165 3234" stroke-width="0.2"  stroke-linecap="round" fill="none" layerid="3" net="" id="gge999" locked="0" /><polyline points="4176.2 3229.9 4176.2 3238.4" stroke-width="0.2"  stroke-linecap="round" fill="none" layerid="3" net="" id="gge1002" locked="0" /><polyline points="4176.2 3229.9 4186.6 3229.9 4186.6 3238.7 4196.5 3238.7" stroke-width="0.2"  stroke-linecap="round" fill="none" layerid="3" net="" id="gge1005" locked="0" /><polyline points="4155.7 3234 4155.5 3234 4176 3234 4176.1 3233.9" stroke-width="0.2"  stroke-linecap="round" fill="none" layerid="3" net="" id="gge1008" locked="0" /><polyline points="4186.6 3233.9 4186.8 3234 4206.5 3234 4206.6 3233.9" stroke-width="0.2"  stroke-linecap="round" fill="none" layerid="3" net="" id="gge1011" locked="0" /><polyline points="4235.6 3094.7 4235.6 3085.3" stroke-width="0.2"  stroke-linecap="round" fill="none" layerid="3" net="" id="gge1152" locked="0" /><polyline points="4235.6 3085.3 4260.4 3085.3" stroke-width="0.2"  stroke-linecap="round" fill="none" layerid="3" net="" id="gge1155" locked="0" /><polyline points="4260.4 3085.3 4260.4 3094.7" stroke-width="0.2"  stroke-linecap="round" fill="none" layerid="3" net="" id="gge1158" locked="0" /><polyline points="4260.4 3094.7 4235.6 3094.7" stroke-width="0.2"  stroke-linecap="round" fill="none" layerid="3" net="" id="gge1161" locked="0" /><polyline points="4236.1 3114.2 4236.1 3104.8" stroke-width="0.2"  stroke-linecap="round" fill="none" layerid="3" net="" id="gge1236" locked="0" /><polyline points="4236.1 3104.8 4260.9 3104.8" stroke-width="0.2"  stroke-linecap="round" fill="none" layerid="3" net="" id="gge1239" locked="0" /><polyline points="4260.9 3104.8 4260.9 3114.2" stroke-width="0.2"  stroke-linecap="round" fill="none" layerid="3" net="" id="gge1242" locked="0" /><polyline points="4260.9 3114.2 4236.1 3114.2" stroke-width="0.2"  stroke-linecap="round" fill="none" layerid="3" net="" id="gge1245" locked="0" /><polyline points="4236.6 3134.7 4236.6 3125.3" stroke-width="0.2"  stroke-linecap="round" fill="none" layerid="3" net="" id="gge1320" locked="0" /><polyline points="4236.6 3125.3 4261.4 3125.3" stroke-width="0.2"  stroke-linecap="round" fill="none" layerid="3" net="" id="gge1323" locked="0" /><polyline points="4261.4 3125.3 4261.4 3134.7" stroke-width="0.2"  stroke-linecap="round" fill="none" layerid="3" net="" id="gge1326" locked="0" /><polyline points="4261.4 3134.7 4236.6 3134.7" stroke-width="0.2"  stroke-linecap="round" fill="none" layerid="3" net="" id="gge1329" locked="0" /><polyline points="4189.9 3084.3 4189.9 3093.7" stroke-width="0.2"  stroke-linecap="round" fill="none" layerid="3" net="" id="gge1404" locked="0" /><polyline points="4189.9 3093.7 4165.1 3093.7" stroke-width="0.2"  stroke-linecap="round" fill="none" layerid="3" net="" id="gge1407" locked="0" /><polyline points="4165.1 3093.7 4165.1 3084.3" stroke-width="0.2"  stroke-linecap="round" fill="none" layerid="3" net="" id="gge1410" locked="0" /><polyline points="4165.1 3084.3 4189.9 3084.3" stroke-width="0.2"  stroke-linecap="round" fill="none" layerid="3" net="" id="gge1413" locked="0" /><polyline points="4190.4 3105.3 4190.4 3114.7" stroke-width="0.2"  stroke-linecap="round" fill="none" layerid="3" net="" id="gge1488" locked="0" /><polyline points="4190.4 3114.7 4165.6 3114.7" stroke-width="0.2"  stroke-linecap="round" fill="none" layerid="3" net="" id="gge1491" locked="0" /><polyline points="4165.6 3114.7 4165.6 3105.3" stroke-width="0.2"  stroke-linecap="round" fill="none" layerid="3" net="" id="gge1494" locked="0" /><polyline points="4165.6 3105.3 4190.4 3105.3" stroke-width="0.2"  stroke-linecap="round" fill="none" layerid="3" net="" id="gge1497" locked="0" /><polyline points="4189.4 3126.3 4189.4 3135.7" stroke-width="0.2"  stroke-linecap="round" fill="none" layerid="3" net="" id="gge1572" locked="0" /><polyline points="4189.4 3135.7 4164.6 3135.7" stroke-width="0.2"  stroke-linecap="round" fill="none" layerid="3" net="" id="gge1575" locked="0" /><polyline points="4164.6 3135.7 4164.6 3126.3" stroke-width="0.2"  stroke-linecap="round" fill="none" layerid="3" net="" id="gge1578" locked="0" /><polyline points="4164.6 3126.3 4189.4 3126.3" stroke-width="0.2"  stroke-linecap="round" fill="none" layerid="3" net="" id="gge1581" locked="0" /><polyline points="4226.5 3148.8307 4226.5 3185.8307 4264 3185.8307 4264 3148.3307 4262.5 3148.3307 4262.5 3150.3307 4229 3150.3307 4229 3148.8307 4226.5 3148.8307" stroke-width="0.2"  stroke-linecap="round" fill="none" layerid="3" net="" id="gge1674" locked="0" /><polyline points="4250.8286 3169.2989 4240.1575 3169.2989" stroke-width="0.2"  stroke-linecap="round" fill="none" layerid="3" net="" id="gge1677" locked="0" /><polyline points="4227.5 3197.8307 4227.5 3234.8307 4265 3234.8307 4265 3197.3307 4263.5 3197.3307 4263.5 3199.3307 4230 3199.3307 4230 3197.8307 4227.5 3197.8307" stroke-width="0.2"  stroke-linecap="round" fill="none" layerid="3" net="" id="gge1770" locked="0" /><polyline points="4251.8286 3218.2989 4241.1575 3218.2989" stroke-width="0.2"  stroke-linecap="round" fill="none" layerid="3" net="" id="gge1773" locked="0" /><g c_partid="part_pcbtext" c_etype="" c_origin="4127.2,3080.4" c_rotation="90" c_mirror="0" id="gge9" locked="0" layerid="3" c_shapetype="group" display="none"><path c_fontsize="4.5" c_fontfamily="" c_text="1u" d="M 4123.48 3080.4 L 4123.27 3079.99 L 4122.66 3079.38 L 4126.95 3079.38 M 4124.09 3078.03 L 4126.14 3078.03 L 4126.75 3077.82 L 4126.95 3077.41 L 4126.95 3076.8 L 4126.75 3076.39 L 4126.14 3075.78 M 4124.09 3075.78 L 4126.95 3075.78" fill="none"  stroke-width="0.2" c_note="note_name" /></g><g c_partid="part_pcbtext" c_etype="" c_origin="4137.5,3098.5" c_rotation="0" c_mirror="0" id="gge15" locked="0" layerid="3" c_shapetype="group" ><path c_fontsize="4.5" c_fontfamily="" c_text="C2" d="M 4140.57 3094.98 L 4140.36 3094.57 L 4139.95 3094.16 L 4139.55 3093.96 L 4138.73 3093.96 L 4138.32 3094.16 L 4137.91 3094.57 L 4137.7 3094.98 L 4137.5 3095.6 L 4137.5 3096.62 L 4137.7 3097.23 L 4137.91 3097.64 L 4138.32 3098.05 L 4138.73 3098.25 L 4139.55 3098.25 L 4139.95 3098.05 L 4140.36 3097.64 L 4140.57 3097.23 M 4142.12 3094.98 L 4142.12 3094.78 L 4142.33 3094.37 L 4142.53 3094.16 L 4142.94 3093.96 L 4143.76 3093.96 L 4144.17 3094.16 L 4144.37 3094.37 L 4144.58 3094.78 L 4144.58 3095.19 L 4144.37 3095.6 L 4143.96 3096.21 L 4141.92 3098.25 L 4144.78 3098.25" fill="none"  stroke-width="0.2" c_note="note_pre" /></g><g c_partid="part_pcbtext" c_etype="" c_origin="4090.1,3234.7" c_rotation="0" c_mirror="0" id="gge78" locked="0" layerid="3" c_shapetype="group" display="none"><path c_fontsize="4.5" c_fontfamily="" c_text="1u" d="M 4090.1 3230.98 L 4090.51 3230.77 L 4091.12 3230.16 L 4091.12 3234.45 M 4092.47 3231.59 L 4092.47 3233.64 L 4092.68 3234.25 L 4093.09 3234.45 L 4093.7 3234.45 L 4094.11 3234.25 L 4094.72 3233.64 M 4094.72 3231.59 L 4094.72 3234.45" fill="none"  stroke-width="0.2" c_note="note_name" /></g><g c_partid="part_pcbtext" c_etype="" c_origin="4090.1,3241.7" c_rotation="0" c_mirror="0" id="gge84" locked="0" layerid="3" c_shapetype="group" ><path c_fontsize="4.5" c_fontfamily="" c_text="C3" d="M 4093.17 3238.18 L 4092.96 3237.77 L 4092.55 3237.36 L 4092.15 3237.16 L 4091.33 3237.16 L 4090.92 3237.36 L 4090.51 3237.77 L 4090.3 3238.18 L 4090.1 3238.8 L 4090.1 3239.82 L 4090.3 3240.43 L 4090.51 3240.84 L 4090.92 3241.25 L 4091.33 3241.45 L 4092.15 3241.45 L 4092.55 3241.25 L 4092.96 3240.84 L 4093.17 3240.43 M 4094.93 3237.16 L 4097.18 3237.16 L 4095.95 3238.8 L 4096.56 3238.8 L 4096.97 3239 L 4097.18 3239.2 L 4097.38 3239.82 L 4097.38 3240.23 L 4097.18 3240.84 L 4096.77 3241.25 L 4096.15 3241.45 L 4095.54 3241.45 L 4094.93 3241.25 L 4094.72 3241.05 L 4094.52 3240.64" fill="none"  stroke-width="0.2" c_note="note_pre" /></g><g c_partid="part_pcbtext" c_etype="" c_origin="4162,3047.5" c_rotation="0" c_mirror="0" id="gge147" locked="0" layerid="3" c_shapetype="group" display="none"><path c_fontsize="4.5" c_fontfamily="" c_text="Power Input" d="M 4162 3042.96 L 4162 3047.25 M 4162 3042.96 L 4163.84 3042.96 L 4164.45 3043.16 L 4164.66 3043.37 L 4164.86 3043.78 L 4164.86 3044.39 L 4164.66 3044.8 L 4164.45 3045 L 4163.84 3045.21 L 4162 3045.21 M 4167.24 3044.39 L 4166.83 3044.6 L 4166.42 3045 L 4166.21 3045.62 L 4166.21 3046.03 L 4166.42 3046.64 L 4166.83 3047.05 L 4167.24 3047.25 L 4167.85 3047.25 L 4168.26 3047.05 L 4168.67 3046.64 L 4168.87 3046.03 L 4168.87 3045.62 L 4168.67 3045 L 4168.26 3044.6 L 4167.85 3044.39 L 4167.24 3044.39 M 4170.22 3044.39 L 4171.04 3047.25 M 4171.86 3044.39 L 4171.04 3047.25 M 4171.86 3044.39 L 4172.68 3047.25 M 4173.5 3044.39 L 4172.68 3047.25 M 4174.85 3045.62 L 4177.3 3045.62 L 4177.3 3045.21 L 4177.1 3044.8 L 4176.89 3044.6 L 4176.48 3044.39 L 4175.87 3044.39 L 4175.46 3044.6 L 4175.05 3045 L 4174.85 3045.62 L 4174.85 3046.03 L 4175.05 3046.64 L 4175.46 3047.05 L 4175.87 3047.25 L 4176.48 3047.25 L 4176.89 3047.05 L 4177.3 3046.64 M 4178.65 3044.39 L 4178.65 3047.25 M 4178.65 3045.62 L 4178.85 3045 L 4179.26 3044.6 L 4179.67 3044.39 L 4180.29 3044.39 M 4184.79 3042.96 L 4184.79 3047.25 M 4186.14 3044.39 L 4186.14 3047.25 M 4186.14 3045.21 L 4186.75 3044.6 L 4187.16 3044.39 L 4187.77 3044.39 L 4188.18 3044.6 L 4188.39 3045.21 L 4188.39 3047.25 M 4189.74 3044.39 L 4189.74 3048.69 M 4189.74 3045 L 4190.15 3044.6 L 4190.55 3044.39 L 4191.17 3044.39 L 4191.58 3044.6 L 4191.99 3045 L 4192.19 3045.62 L 4192.19 3046.03 L 4191.99 3046.64 L 4191.58 3047.05 L 4191.17 3047.25 L 4190.55 3047.25 L 4190.15 3047.05 L 4189.74 3046.64 M 4193.54 3044.39 L 4193.54 3046.44 L 4193.75 3047.05 L 4194.15 3047.25 L 4194.77 3047.25 L 4195.18 3047.05 L 4195.79 3046.44 M 4195.79 3044.39 L 4195.79 3047.25 M 4197.75 3042.96 L 4197.75 3046.44 L 4197.96 3047.05 L 4198.37 3047.25 L 4198.78 3047.25 M 4197.14 3044.39 L 4198.57 3044.39" fill="none"  stroke-width="0.2" c_note="note_name" /></g><g c_partid="part_pcbtext" c_etype="" c_origin="4160.5,3074" c_rotation="0" c_mirror="0" id="gge153" locked="0" layerid="3" c_shapetype="group" ><path c_fontsize="4.5" c_fontfamily="" c_text="H1" d="M 4160.5 3069.46 L 4160.5 3073.75 M 4163.36 3069.46 L 4163.36 3073.75 M 4160.5 3071.5 L 4163.36 3071.5 M 4164.71 3070.28 L 4165.12 3070.07 L 4165.74 3069.46 L 4165.74 3073.75" fill="none"  stroke-width="0.2" c_note="note_pre" /></g><g c_partid="part_pcbtext" c_etype="" c_origin="4221.5,3047" c_rotation="0" c_mirror="0" id="gge216" locked="0" layerid="3" c_shapetype="group" display="none"><path c_fontsize="4.5" c_fontfamily="" c_text="Led Interface" d="M 4221.5 3042.46 L 4221.5 3046.75 M 4221.5 3046.75 L 4223.95 3046.75 M 4225.3 3045.12 L 4227.76 3045.12 L 4227.76 3044.71 L 4227.55 3044.3 L 4227.35 3044.1 L 4226.94 3043.89 L 4226.33 3043.89 L 4225.92 3044.1 L 4225.51 3044.5 L 4225.3 3045.12 L 4225.3 3045.53 L 4225.51 3046.14 L 4225.92 3046.55 L 4226.33 3046.75 L 4226.94 3046.75 L 4227.35 3046.55 L 4227.76 3046.14 M 4231.56 3042.46 L 4231.56 3046.75 M 4231.56 3044.5 L 4231.15 3044.1 L 4230.75 3043.89 L 4230.13 3043.89 L 4229.72 3044.1 L 4229.31 3044.5 L 4229.11 3045.12 L 4229.11 3045.53 L 4229.31 3046.14 L 4229.72 3046.55 L 4230.13 3046.75 L 4230.75 3046.75 L 4231.15 3046.55 L 4231.56 3046.14 M 4236.06 3042.46 L 4236.06 3046.75 M 4237.41 3043.89 L 4237.41 3046.75 M 4237.41 3044.71 L 4238.03 3044.1 L 4238.44 3043.89 L 4239.05 3043.89 L 4239.46 3044.1 L 4239.66 3044.71 L 4239.66 3046.75 M 4241.63 3042.46 L 4241.63 3045.94 L 4241.83 3046.55 L 4242.24 3046.75 L 4242.65 3046.75 M 4241.01 3043.89 L 4242.45 3043.89 M 4244 3045.12 L 4246.45 3045.12 L 4246.45 3044.71 L 4246.25 3044.3 L 4246.05 3044.1 L 4245.64 3043.89 L 4245.02 3043.89 L 4244.61 3044.1 L 4244.2 3044.5 L 4244 3045.12 L 4244 3045.53 L 4244.2 3046.14 L 4244.61 3046.55 L 4245.02 3046.75 L 4245.64 3046.75 L 4246.05 3046.55 L 4246.45 3046.14 M 4247.8 3043.89 L 4247.8 3046.75 M 4247.8 3045.12 L 4248.01 3044.5 L 4248.42 3044.1 L 4248.83 3043.89 L 4249.44 3043.89 M 4252.43 3042.46 L 4252.02 3042.46 L 4251.61 3042.66 L 4251.4 3043.28 L 4251.4 3046.75 M 4250.79 3043.89 L 4252.22 3043.89 M 4256.23 3043.89 L 4256.23 3046.75 M 4256.23 3044.5 L 4255.82 3044.1 L 4255.41 3043.89 L 4254.8 3043.89 L 4254.39 3044.1 L 4253.98 3044.5 L 4253.78 3045.12 L 4253.78 3045.53 L 4253.98 3046.14 L 4254.39 3046.55 L 4254.8 3046.75 L 4255.41 3046.75 L 4255.82 3046.55 L 4256.23 3046.14 M 4260.04 3044.5 L 4259.63 3044.1 L 4259.22 3043.89 L 4258.6 3043.89 L 4258.2 3044.1 L 4257.79 3044.5 L 4257.58 3045.12 L 4257.58 3045.53 L 4257.79 3046.14 L 4258.2 3046.55 L 4258.6 3046.75 L 4259.22 3046.75 L 4259.63 3046.55 L 4260.04 3046.14 M 4261.39 3045.12 L 4263.84 3045.12 L 4263.84 3044.71 L 4263.64 3044.3 L 4263.43 3044.1 L 4263.02 3043.89 L 4262.41 3043.89 L 4262 3044.1 L 4261.59 3044.5 L 4261.39 3045.12 L 4261.39 3045.53 L 4261.59 3046.14 L 4262 3046.55 L 4262.41 3046.75 L 4263.02 3046.75 L 4263.43 3046.55 L 4263.84 3046.14" fill="none"  stroke-width="0.2" c_note="note_name" /></g><g c_partid="part_pcbtext" c_etype="" c_origin="4253.5,3074.5" c_rotation="0" c_mirror="0" id="gge222" locked="0" layerid="3" c_shapetype="group" ><path c_fontsize="4.5" c_fontfamily="" c_text="H2" d="M 4253.5 3069.96 L 4253.5 3074.25 M 4256.36 3069.96 L 4256.36 3074.25 M 4253.5 3072 L 4256.36 3072 M 4257.92 3070.98 L 4257.92 3070.78 L 4258.12 3070.37 L 4258.33 3070.16 L 4258.74 3069.96 L 4259.55 3069.96 L 4259.96 3070.16 L 4260.17 3070.37 L 4260.37 3070.78 L 4260.37 3071.19 L 4260.17 3071.6 L 4259.76 3072.21 L 4257.71 3074.25 L 4260.58 3074.25" fill="none"  stroke-width="0.2" c_note="note_pre" /></g><g c_partid="part_pcbtext" c_etype="" c_origin="4092,3060" c_rotation="0" c_mirror="0" id="gge396" locked="0" layerid="3" c_shapetype="group" display="none"><path c_fontsize="4.5" c_fontfamily="" c_text="Arduino_Nano_Header" d="M 4093.64 3055.46 L 4092 3059.75 M 4093.64 3055.46 L 4095.27 3059.75 M 4092.61 3058.32 L 4094.66 3058.32 M 4096.62 3056.89 L 4096.62 3059.75 M 4096.62 3058.12 L 4096.83 3057.5 L 4097.24 3057.1 L 4097.65 3056.89 L 4098.26 3056.89 M 4102.06 3055.46 L 4102.06 3059.75 M 4102.06 3057.5 L 4101.65 3057.1 L 4101.25 3056.89 L 4100.63 3056.89 L 4100.22 3057.1 L 4099.81 3057.5 L 4099.61 3058.12 L 4099.61 3058.53 L 4099.81 3059.14 L 4100.22 3059.55 L 4100.63 3059.75 L 4101.25 3059.75 L 4101.65 3059.55 L 4102.06 3059.14 M 4103.41 3056.89 L 4103.41 3058.94 L 4103.62 3059.55 L 4104.03 3059.75 L 4104.64 3059.75 L 4105.05 3059.55 L 4105.66 3058.94 M 4105.66 3056.89 L 4105.66 3059.75 M 4107.01 3055.46 L 4107.22 3055.66 L 4107.42 3055.46 L 4107.22 3055.25 L 4107.01 3055.46 M 4107.22 3056.89 L 4107.22 3059.75 M 4108.77 3056.89 L 4108.77 3059.75 M 4108.77 3057.71 L 4109.39 3057.1 L 4109.8 3056.89 L 4110.41 3056.89 L 4110.82 3057.1 L 4111.02 3057.71 L 4111.02 3059.75 M 4113.4 3056.89 L 4112.99 3057.1 L 4112.58 3057.5 L 4112.37 3058.12 L 4112.37 3058.53 L 4112.58 3059.14 L 4112.99 3059.55 L 4113.4 3059.75 L 4114.01 3059.75 L 4114.42 3059.55 L 4114.83 3059.14 L 4115.03 3058.53 L 4115.03 3058.12 L 4114.83 3057.5 L 4114.42 3057.1 L 4114.01 3056.89 L 4113.4 3056.89 M 4116.38 3061.19 L 4120.06 3061.19 M 4121.41 3055.46 L 4121.41 3059.75 M 4121.41 3055.46 L 4124.28 3059.75 M 4124.28 3055.46 L 4124.28 3059.75 M 4128.08 3056.89 L 4128.08 3059.75 M 4128.08 3057.5 L 4127.67 3057.1 L 4127.26 3056.89 L 4126.65 3056.89 L 4126.24 3057.1 L 4125.83 3057.5 L 4125.63 3058.12 L 4125.63 3058.53 L 4125.83 3059.14 L 4126.24 3059.55 L 4126.65 3059.75 L 4127.26 3059.75 L 4127.67 3059.55 L 4128.08 3059.14 M 4129.43 3056.89 L 4129.43 3059.75 M 4129.43 3057.71 L 4130.05 3057.1 L 4130.45 3056.89 L 4131.07 3056.89 L 4131.48 3057.1 L 4131.68 3057.71 L 4131.68 3059.75 M 4134.05 3056.89 L 4133.65 3057.1 L 4133.24 3057.5 L 4133.03 3058.12 L 4133.03 3058.53 L 4133.24 3059.14 L 4133.65 3059.55 L 4134.05 3059.75 L 4134.67 3059.75 L 4135.08 3059.55 L 4135.49 3059.14 L 4135.69 3058.53 L 4135.69 3058.12 L 4135.49 3057.5 L 4135.08 3057.1 L 4134.67 3056.89 L 4134.05 3056.89 M 4137.04 3061.19 L 4140.72 3061.19 M 4142.07 3055.46 L 4142.07 3059.75 M 4144.94 3055.46 L 4144.94 3059.75 M 4142.07 3057.5 L 4144.94 3057.5 M 4146.29 3058.12 L 4148.74 3058.12 L 4148.74 3057.71 L 4148.54 3057.3 L 4148.33 3057.1 L 4147.92 3056.89 L 4147.31 3056.89 L 4146.9 3057.1 L 4146.49 3057.5 L 4146.29 3058.12 L 4146.29 3058.53 L 4146.49 3059.14 L 4146.9 3059.55 L 4147.31 3059.75 L 4147.92 3059.75 L 4148.33 3059.55 L 4148.74 3059.14 M 4152.55 3056.89 L 4152.55 3059.75 M 4152.55 3057.5 L 4152.14 3057.1 L 4151.73 3056.89 L 4151.11 3056.89 L 4150.7 3057.1 L 4150.3 3057.5 L 4150.09 3058.12 L 4150.09 3058.53 L 4150.3 3059.14 L 4150.7 3059.55 L 4151.11 3059.75 L 4151.73 3059.75 L 4152.14 3059.55 L 4152.55 3059.14 M 4156.35 3055.46 L 4156.35 3059.75 M 4156.35 3057.5 L 4155.94 3057.1 L 4155.53 3056.89 L 4154.92 3056.89 L 4154.51 3057.1 L 4154.1 3057.5 L 4153.9 3058.12 L 4153.9 3058.53 L 4154.1 3059.14 L 4154.51 3059.55 L 4154.92 3059.75 L 4155.53 3059.75 L 4155.94 3059.55 L 4156.35 3059.14 M 4157.7 3058.12 L 4160.15 3058.12 L 4160.15 3057.71 L 4159.95 3057.3 L 4159.75 3057.1 L 4159.34 3056.89 L 4158.72 3056.89 L 4158.31 3057.1 L 4157.9 3057.5 L 4157.7 3058.12 L 4157.7 3058.53 L 4157.9 3059.14 L 4158.31 3059.55 L 4158.72 3059.75 L 4159.34 3059.75 L 4159.75 3059.55 L 4160.15 3059.14 M 4161.5 3056.89 L 4161.5 3059.75 M 4161.5 3058.12 L 4161.71 3057.5 L 4162.12 3057.1 L 4162.53 3056.89 L 4163.14 3056.89" fill="none"  stroke-width="0.2" c_note="note_name" /></g><g c_partid="part_pcbtext" c_etype="" c_origin="4069,3065" c_rotation="0" c_mirror="0" id="gge402" locked="0" layerid="3" c_shapetype="group" ><path c_fontsize="4.5" c_fontfamily="" c_text="J1" d="M 4071.05 3060.46 L 4071.05 3063.73 L 4070.84 3064.35 L 4070.64 3064.55 L 4070.23 3064.75 L 4069.82 3064.75 L 4069.41 3064.55 L 4069.2 3064.35 L 4069 3063.73 L 4069 3063.32 M 4072.4 3061.28 L 4072.8 3061.07 L 4073.42 3060.46 L 4073.42 3064.75" fill="none"  stroke-width="0.2" c_note="note_pre" /></g><g c_partid="part_pcbtext" c_etype="" c_origin="4181,3194" c_rotation="0" c_mirror="0" id="gge966" locked="0" layerid="3" c_shapetype="group" display="none"><path c_fontsize="4.5" c_fontfamily="" c_text="Switch Inputs" d="M 4183.86 3190.07 L 4183.45 3189.66 L 4182.84 3189.46 L 4182.02 3189.46 L 4181.41 3189.66 L 4181 3190.07 L 4181 3190.48 L 4181.2 3190.89 L 4181.41 3191.1 L 4181.82 3191.3 L 4183.05 3191.71 L 4183.45 3191.91 L 4183.66 3192.12 L 4183.86 3192.53 L 4183.86 3193.14 L 4183.45 3193.55 L 4182.84 3193.75 L 4182.02 3193.75 L 4181.41 3193.55 L 4181 3193.14 M 4185.21 3190.89 L 4186.03 3193.75 M 4186.85 3190.89 L 4186.03 3193.75 M 4186.85 3190.89 L 4187.67 3193.75 M 4188.49 3190.89 L 4187.67 3193.75 M 4189.84 3189.46 L 4190.04 3189.66 L 4190.25 3189.46 L 4190.04 3189.25 L 4189.84 3189.46 M 4190.04 3190.89 L 4190.04 3193.75 M 4192.21 3189.46 L 4192.21 3192.94 L 4192.41 3193.55 L 4192.82 3193.75 L 4193.23 3193.75 M 4191.6 3190.89 L 4193.03 3190.89 M 4197.04 3191.5 L 4196.63 3191.1 L 4196.22 3190.89 L 4195.6 3190.89 L 4195.2 3191.1 L 4194.79 3191.5 L 4194.58 3192.12 L 4194.58 3192.53 L 4194.79 3193.14 L 4195.2 3193.55 L 4195.6 3193.75 L 4196.22 3193.75 L 4196.63 3193.55 L 4197.04 3193.14 M 4198.39 3189.46 L 4198.39 3193.75 M 4198.39 3191.71 L 4199 3191.1 L 4199.41 3190.89 L 4200.02 3190.89 L 4200.43 3191.1 L 4200.64 3191.71 L 4200.64 3193.75 M 4205.14 3189.46 L 4205.14 3193.75 M 4206.49 3190.89 L 4206.49 3193.75 M 4206.49 3191.71 L 4207.1 3191.1 L 4207.51 3190.89 L 4208.12 3190.89 L 4208.53 3191.1 L 4208.74 3191.71 L 4208.74 3193.75 M 4210.09 3190.89 L 4210.09 3195.19 M 4210.09 3191.5 L 4210.5 3191.1 L 4210.9 3190.89 L 4211.52 3190.89 L 4211.93 3191.1 L 4212.34 3191.5 L 4212.54 3192.12 L 4212.54 3192.53 L 4212.34 3193.14 L 4211.93 3193.55 L 4211.52 3193.75 L 4210.9 3193.75 L 4210.5 3193.55 L 4210.09 3193.14 M 4213.89 3190.89 L 4213.89 3192.94 L 4214.1 3193.55 L 4214.5 3193.75 L 4215.12 3193.75 L 4215.53 3193.55 L 4216.14 3192.94 M 4216.14 3190.89 L 4216.14 3193.75 M 4218.1 3189.46 L 4218.1 3192.94 L 4218.31 3193.55 L 4218.72 3193.75 L 4219.13 3193.75 M 4217.49 3190.89 L 4218.92 3190.89 M 4222.73 3191.5 L 4222.52 3191.1 L 4221.91 3190.89 L 4221.3 3190.89 L 4220.68 3191.1 L 4220.48 3191.5 L 4220.68 3191.91 L 4221.09 3192.12 L 4222.11 3192.32 L 4222.52 3192.53 L 4222.73 3192.94 L 4222.73 3193.14 L 4222.52 3193.55 L 4221.91 3193.75 L 4221.3 3193.75 L 4220.68 3193.55 L 4220.48 3193.14" fill="none"  stroke-width="0.2" c_note="note_name" /></g><g c_partid="part_pcbtext" c_etype="" c_origin="4181,3201" c_rotation="0" c_mirror="0" id="gge972" locked="0" layerid="3" c_shapetype="group" ><path c_fontsize="4.5" c_fontfamily="" c_text="P1" d="M 4181 3196.46 L 4181 3200.75 M 4181 3196.46 L 4182.84 3196.46 L 4183.45 3196.66 L 4183.66 3196.87 L 4183.86 3197.28 L 4183.86 3197.89 L 4183.66 3198.3 L 4183.45 3198.5 L 4182.84 3198.71 L 4181 3198.71 M 4185.21 3197.28 L 4185.62 3197.07 L 4186.24 3196.46 L 4186.24 3200.75" fill="none"  stroke-width="0.2" c_note="note_pre" /></g><g c_partid="part_pcbtext" c_etype="" c_origin="4248,3077" c_rotation="0" c_mirror="0" id="gge1140" locked="0" layerid="3" c_shapetype="group" display="none"><path c_fontsize="4.5" c_fontfamily="" c_text="1k" d="M 4248 3073.28 L 4248.41 3073.07 L 4249.02 3072.46 L 4249.02 3076.75 M 4250.37 3072.46 L 4250.37 3076.75 M 4252.42 3073.89 L 4250.37 3075.94 M 4251.19 3075.12 L 4252.62 3076.75" fill="none"  stroke-width="0.2" c_note="note_name" /></g><g c_partid="part_pcbtext" c_etype="" c_origin="4248,3084" c_rotation="0" c_mirror="0" id="gge1146" locked="0" layerid="3" c_shapetype="group" ><path c_fontsize="4.5" c_fontfamily="" c_text="R1" d="M 4248 3079.46 L 4248 3083.75 M 4248 3079.46 L 4249.84 3079.46 L 4250.45 3079.66 L 4250.66 3079.87 L 4250.86 3080.28 L 4250.86 3080.69 L 4250.66 3081.1 L 4250.45 3081.3 L 4249.84 3081.5 L 4248 3081.5 M 4249.43 3081.5 L 4250.86 3083.75 M 4252.21 3080.28 L 4252.62 3080.07 L 4253.24 3079.46 L 4253.24 3083.75" fill="none"  stroke-width="0.2" c_note="note_pre" /></g><g c_partid="part_pcbtext" c_etype="" c_origin="4248.5,3096.5" c_rotation="0" c_mirror="0" id="gge1224" locked="0" layerid="3" c_shapetype="group" display="none"><path c_fontsize="4.5" c_fontfamily="" c_text="1k" d="M 4248.5 3092.78 L 4248.91 3092.57 L 4249.52 3091.96 L 4249.52 3096.25 M 4250.87 3091.96 L 4250.87 3096.25 M 4252.92 3093.39 L 4250.87 3095.44 M 4251.69 3094.62 L 4253.12 3096.25" fill="none"  stroke-width="0.2" c_note="note_name" /></g><g c_partid="part_pcbtext" c_etype="" c_origin="4248.5,3103.5" c_rotation="0" c_mirror="0" id="gge1230" locked="0" layerid="3" c_shapetype="group" ><path c_fontsize="4.5" c_fontfamily="" c_text="R2" d="M 4248.5 3098.96 L 4248.5 3103.25 M 4248.5 3098.96 L 4250.34 3098.96 L 4250.95 3099.16 L 4251.16 3099.37 L 4251.36 3099.78 L 4251.36 3100.19 L 4251.16 3100.6 L 4250.95 3100.8 L 4250.34 3101 L 4248.5 3101 M 4249.93 3101 L 4251.36 3103.25 M 4252.92 3099.98 L 4252.92 3099.78 L 4253.12 3099.37 L 4253.33 3099.16 L 4253.74 3098.96 L 4254.55 3098.96 L 4254.96 3099.16 L 4255.17 3099.37 L 4255.37 3099.78 L 4255.37 3100.19 L 4255.17 3100.6 L 4254.76 3101.21 L 4252.71 3103.25 L 4255.58 3103.25" fill="none"  stroke-width="0.2" c_note="note_pre" /></g><g c_partid="part_pcbtext" c_etype="" c_origin="4249,3117" c_rotation="0" c_mirror="0" id="gge1308" locked="0" layerid="3" c_shapetype="group" display="none"><path c_fontsize="4.5" c_fontfamily="" c_text="1k" d="M 4249 3113.28 L 4249.41 3113.07 L 4250.02 3112.46 L 4250.02 3116.75 M 4251.37 3112.46 L 4251.37 3116.75 M 4253.42 3113.89 L 4251.37 3115.94 M 4252.19 3115.12 L 4253.62 3116.75" fill="none"  stroke-width="0.2" c_note="note_name" /></g><g c_partid="part_pcbtext" c_etype="" c_origin="4249,3124" c_rotation="0" c_mirror="0" id="gge1314" locked="0" layerid="3" c_shapetype="group" ><path c_fontsize="4.5" c_fontfamily="" c_text="R3" d="M 4249 3119.46 L 4249 3123.75 M 4249 3119.46 L 4250.84 3119.46 L 4251.45 3119.66 L 4251.66 3119.87 L 4251.86 3120.28 L 4251.86 3120.69 L 4251.66 3121.1 L 4251.45 3121.3 L 4250.84 3121.5 L 4249 3121.5 M 4250.43 3121.5 L 4251.86 3123.75 M 4253.62 3119.46 L 4255.87 3119.46 L 4254.65 3121.1 L 4255.26 3121.1 L 4255.67 3121.3 L 4255.87 3121.5 L 4256.08 3122.12 L 4256.08 3122.53 L 4255.87 3123.14 L 4255.46 3123.55 L 4254.85 3123.75 L 4254.24 3123.75 L 4253.62 3123.55 L 4253.42 3123.35 L 4253.21 3122.94" fill="none"  stroke-width="0.2" c_note="note_pre" /></g><g c_partid="part_pcbtext" c_etype="" c_origin="4177.5,3102" c_rotation="180" c_mirror="0" id="gge1392" locked="0" layerid="3" c_shapetype="group" display="none"><path c_fontsize="4.5" c_fontfamily="" c_text=".330K" d="M 4177.3 3103.27 L 4177.5 3103.06 L 4177.3 3102.86 L 4177.09 3103.06 L 4177.3 3103.27 M 4175.33 3106.54 L 4173.08 3106.54 L 4174.31 3104.9 L 4173.7 3104.9 L 4173.29 3104.7 L 4173.08 3104.5 L 4172.88 3103.88 L 4172.88 3103.47 L 4173.08 3102.86 L 4173.49 3102.45 L 4174.1 3102.25 L 4174.72 3102.25 L 4175.33 3102.45 L 4175.54 3102.65 L 4175.74 3103.06 M 4171.12 3106.54 L 4168.87 3106.54 L 4170.1 3104.9 L 4169.48 3104.9 L 4169.07 3104.7 L 4168.87 3104.5 L 4168.66 3103.88 L 4168.66 3103.47 L 4168.87 3102.86 L 4169.28 3102.45 L 4169.89 3102.25 L 4170.5 3102.25 L 4171.12 3102.45 L 4171.32 3102.65 L 4171.53 3103.06 M 4166.09 3106.54 L 4166.7 3106.34 L 4167.11 3105.72 L 4167.31 3104.7 L 4167.31 3104.09 L 4167.11 3103.06 L 4166.7 3102.45 L 4166.09 3102.25 L 4165.68 3102.25 L 4165.06 3102.45 L 4164.65 3103.06 L 4164.45 3104.09 L 4164.45 3104.7 L 4164.65 3105.72 L 4165.06 3106.34 L 4165.68 3106.54 L 4166.09 3106.54 M 4163.1 3106.54 L 4163.1 3102.25 M 4160.24 3106.54 L 4163.1 3103.68 M 4162.08 3104.7 L 4160.24 3102.25" fill="none"  stroke-width="0.2" c_note="note_name" /></g><g c_partid="part_pcbtext" c_etype="" c_origin="4173.5,3101" c_rotation="0" c_mirror="0" id="gge1398" locked="0" layerid="3" c_shapetype="group" ><path c_fontsize="4.5" c_fontfamily="" c_text="R4" d="M 4173.5 3096.46 L 4173.5 3100.75 M 4173.5 3096.46 L 4175.34 3096.46 L 4175.95 3096.66 L 4176.16 3096.87 L 4176.36 3097.28 L 4176.36 3097.69 L 4176.16 3098.1 L 4175.95 3098.3 L 4175.34 3098.5 L 4173.5 3098.5 M 4174.93 3098.5 L 4176.36 3100.75 M 4179.76 3096.46 L 4177.71 3099.32 L 4180.78 3099.32 M 4179.76 3096.46 L 4179.76 3100.75" fill="none"  stroke-width="0.2" c_note="note_pre" /></g><g c_partid="part_pcbtext" c_etype="" c_origin="4178,3123" c_rotation="180" c_mirror="0" id="gge1476" locked="0" layerid="3" c_shapetype="group" display="none"><path c_fontsize="4.5" c_fontfamily="" c_text=".330K" d="M 4177.8 3124.27 L 4178 3124.06 L 4177.8 3123.86 L 4177.59 3124.06 L 4177.8 3124.27 M 4175.83 3127.54 L 4173.58 3127.54 L 4174.81 3125.9 L 4174.2 3125.9 L 4173.79 3125.7 L 4173.58 3125.5 L 4173.38 3124.88 L 4173.38 3124.47 L 4173.58 3123.86 L 4173.99 3123.45 L 4174.6 3123.25 L 4175.22 3123.25 L 4175.83 3123.45 L 4176.04 3123.65 L 4176.24 3124.06 M 4171.62 3127.54 L 4169.37 3127.54 L 4170.6 3125.9 L 4169.98 3125.9 L 4169.57 3125.7 L 4169.37 3125.5 L 4169.16 3124.88 L 4169.16 3124.47 L 4169.37 3123.86 L 4169.78 3123.45 L 4170.39 3123.25 L 4171 3123.25 L 4171.62 3123.45 L 4171.82 3123.65 L 4172.03 3124.06 M 4166.59 3127.54 L 4167.2 3127.34 L 4167.61 3126.72 L 4167.81 3125.7 L 4167.81 3125.09 L 4167.61 3124.06 L 4167.2 3123.45 L 4166.59 3123.25 L 4166.18 3123.25 L 4165.56 3123.45 L 4165.15 3124.06 L 4164.95 3125.09 L 4164.95 3125.7 L 4165.15 3126.72 L 4165.56 3127.34 L 4166.18 3127.54 L 4166.59 3127.54 M 4163.6 3127.54 L 4163.6 3123.25 M 4160.74 3127.54 L 4163.6 3124.68 M 4162.58 3125.7 L 4160.74 3123.25" fill="none"  stroke-width="0.2" c_note="note_name" /></g><g c_partid="part_pcbtext" c_etype="" c_origin="4173,3122.5" c_rotation="0" c_mirror="0" id="gge1482" locked="0" layerid="3" c_shapetype="group" ><path c_fontsize="4.5" c_fontfamily="" c_text="R5" d="M 4173 3117.96 L 4173 3122.25 M 4173 3117.96 L 4174.84 3117.96 L 4175.45 3118.16 L 4175.66 3118.37 L 4175.86 3118.78 L 4175.86 3119.19 L 4175.66 3119.6 L 4175.45 3119.8 L 4174.84 3120 L 4173 3120 M 4174.43 3120 L 4175.86 3122.25 M 4179.67 3117.96 L 4177.62 3117.96 L 4177.42 3119.8 L 4177.62 3119.6 L 4178.24 3119.39 L 4178.85 3119.39 L 4179.46 3119.6 L 4179.87 3120 L 4180.08 3120.62 L 4180.08 3121.03 L 4179.87 3121.64 L 4179.46 3122.05 L 4178.85 3122.25 L 4178.24 3122.25 L 4177.62 3122.05 L 4177.42 3121.85 L 4177.21 3121.44" fill="none"  stroke-width="0.2" c_note="note_pre" /></g><g c_partid="part_pcbtext" c_etype="" c_origin="4177,3144" c_rotation="180" c_mirror="0" id="gge1560" locked="0" layerid="3" c_shapetype="group" display="none"><path c_fontsize="4.5" c_fontfamily="" c_text=".330K" d="M 4176.8 3145.27 L 4177 3145.06 L 4176.8 3144.86 L 4176.59 3145.06 L 4176.8 3145.27 M 4174.83 3148.54 L 4172.58 3148.54 L 4173.81 3146.9 L 4173.2 3146.9 L 4172.79 3146.7 L 4172.58 3146.5 L 4172.38 3145.88 L 4172.38 3145.47 L 4172.58 3144.86 L 4172.99 3144.45 L 4173.6 3144.25 L 4174.22 3144.25 L 4174.83 3144.45 L 4175.04 3144.65 L 4175.24 3145.06 M 4170.62 3148.54 L 4168.37 3148.54 L 4169.6 3146.9 L 4168.98 3146.9 L 4168.57 3146.7 L 4168.37 3146.5 L 4168.16 3145.88 L 4168.16 3145.47 L 4168.37 3144.86 L 4168.78 3144.45 L 4169.39 3144.25 L 4170 3144.25 L 4170.62 3144.45 L 4170.82 3144.65 L 4171.03 3145.06 M 4165.59 3148.54 L 4166.2 3148.34 L 4166.61 3147.72 L 4166.81 3146.7 L 4166.81 3146.09 L 4166.61 3145.06 L 4166.2 3144.45 L 4165.59 3144.25 L 4165.18 3144.25 L 4164.56 3144.45 L 4164.15 3145.06 L 4163.95 3146.09 L 4163.95 3146.7 L 4164.15 3147.72 L 4164.56 3148.34 L 4165.18 3148.54 L 4165.59 3148.54 M 4162.6 3148.54 L 4162.6 3144.25 M 4159.74 3148.54 L 4162.6 3145.68 M 4161.58 3146.7 L 4159.74 3144.25" fill="none"  stroke-width="0.2" c_note="note_name" /></g><g c_partid="part_pcbtext" c_etype="" c_origin="4172.5,3144.5" c_rotation="0" c_mirror="0" id="gge1566" locked="0" layerid="3" c_shapetype="group" ><path c_fontsize="4.5" c_fontfamily="" c_text="R7" d="M 4172.5 3139.96 L 4172.5 3144.25 M 4172.5 3139.96 L 4174.34 3139.96 L 4174.95 3140.16 L 4175.16 3140.37 L 4175.36 3140.78 L 4175.36 3141.19 L 4175.16 3141.6 L 4174.95 3141.8 L 4174.34 3142 L 4172.5 3142 M 4173.93 3142 L 4175.36 3144.25 M 4179.58 3139.96 L 4177.53 3144.25 M 4176.71 3139.96 L 4179.58 3139.96" fill="none"  stroke-width="0.2" c_note="note_pre" /></g><g c_partid="part_pcbtext" c_etype="" c_origin="4245.158,3140.911" c_rotation="0" c_mirror="0" id="gge1644" locked="0" layerid="3" c_shapetype="group" display="none"><path c_fontsize="4.5" c_fontfamily="" c_text="On Time Control 100K" d="M 4246.3875 3136.3707 L 4245.9775 3136.5707 L 4245.5675 3136.9807 L 4245.3575 3137.3907 L 4245.1575 3138.0107 L 4245.1575 3139.0307 L 4245.3575 3139.6407 L 4245.5675 3140.0507 L 4245.9775 3140.4607 L 4246.3875 3140.6607 L 4247.2075 3140.6607 L 4247.6075 3140.4607 L 4248.0175 3140.0507 L 4248.2275 3139.6407 L 4248.4275 3139.0307 L 4248.4275 3138.0107 L 4248.2275 3137.3907 L 4248.0175 3136.9807 L 4247.6075 3136.5707 L 4247.2075 3136.3707 L 4246.3875 3136.3707 M 4249.7775 3137.8007 L 4249.7775 3140.6607 M 4249.7775 3138.6207 L 4250.3975 3138.0107 L 4250.8075 3137.8007 L 4251.4175 3137.8007 L 4251.8275 3138.0107 L 4252.0275 3138.6207 L 4252.0275 3140.6607 M 4257.9575 3136.3707 L 4257.9575 3140.6607 M 4256.5275 3136.3707 L 4259.3975 3136.3707 M 4260.7475 3136.3707 L 4260.9475 3136.5707 L 4261.1575 3136.3707 L 4260.9475 3136.1607 L 4260.7475 3136.3707 M 4260.9475 3137.8007 L 4260.9475 3140.6607 M 4262.5075 3137.8007 L 4262.5075 3140.6607 M 4262.5075 3138.6207 L 4263.1175 3138.0107 L 4263.5275 3137.8007 L 4264.1375 3137.8007 L 4264.5475 3138.0107 L 4264.7575 3138.6207 L 4264.7575 3140.6607 M 4264.7575 3138.6207 L 4265.3675 3138.0107 L 4265.7775 3137.8007 L 4266.3875 3137.8007 L 4266.7975 3138.0107 L 4267.0075 3138.6207 L 4267.0075 3140.6607 M 4268.3575 3139.0307 L 4270.8075 3139.0307 L 4270.8075 3138.6207 L 4270.6075 3138.2107 L 4270.3975 3138.0107 L 4269.9875 3137.8007 L 4269.3775 3137.8007 L 4268.9675 3138.0107 L 4268.5575 3138.4107 L 4268.3575 3139.0307 L 4268.3575 3139.4407 L 4268.5575 3140.0507 L 4268.9675 3140.4607 L 4269.3775 3140.6607 L 4269.9875 3140.6607 L 4270.3975 3140.4607 L 4270.8075 3140.0507 M 4278.3775 3137.3907 L 4278.1675 3136.9807 L 4277.7575 3136.5707 L 4277.3575 3136.3707 L 4276.5375 3136.3707 L 4276.1275 3136.5707 L 4275.7175 3136.9807 L 4275.5075 3137.3907 L 4275.3075 3138.0107 L 4275.3075 3139.0307 L 4275.5075 3139.6407 L 4275.7175 3140.0507 L 4276.1275 3140.4607 L 4276.5375 3140.6607 L 4277.3575 3140.6607 L 4277.7575 3140.4607 L 4278.1675 3140.0507 L 4278.3775 3139.6407 M 4280.7475 3137.8007 L 4280.3375 3138.0107 L 4279.9275 3138.4107 L 4279.7275 3139.0307 L 4279.7275 3139.4407 L 4279.9275 3140.0507 L 4280.3375 3140.4607 L 4280.7475 3140.6607 L 4281.3575 3140.6607 L 4281.7675 3140.4607 L 4282.1775 3140.0507 L 4282.3875 3139.4407 L 4282.3875 3139.0307 L 4282.1775 3138.4107 L 4281.7675 3138.0107 L 4281.3575 3137.8007 L 4280.7475 3137.8007 M 4283.7375 3137.8007 L 4283.7375 3140.6607 M 4283.7375 3138.6207 L 4284.3475 3138.0107 L 4284.7575 3137.8007 L 4285.3675 3137.8007 L 4285.7775 3138.0107 L 4285.9875 3138.6207 L 4285.9875 3140.6607 M 4287.9475 3136.3707 L 4287.9475 3139.8507 L 4288.1575 3140.4607 L 4288.5575 3140.6607 L 4288.9675 3140.6607 M 4287.3375 3137.8007 L 4288.7675 3137.8007 M 4290.3175 3137.8007 L 4290.3175 3140.6607 M 4290.3175 3139.0307 L 4290.5275 3138.4107 L 4290.9375 3138.0107 L 4291.3475 3137.8007 L 4291.9575 3137.8007 M 4294.3275 3137.8007 L 4293.9175 3138.0107 L 4293.5075 3138.4107 L 4293.3075 3139.0307 L 4293.3075 3139.4407 L 4293.5075 3140.0507 L 4293.9175 3140.4607 L 4294.3275 3140.6607 L 4294.9475 3140.6607 L 4295.3575 3140.4607 L 4295.7575 3140.0507 L 4295.9675 3139.4407 L 4295.9675 3139.0307 L 4295.7575 3138.4107 L 4295.3575 3138.0107 L 4294.9475 3137.8007 L 4294.3275 3137.8007 M 4297.3175 3136.3707 L 4297.3175 3140.6607 M 4301.8175 3137.1907 L 4302.2275 3136.9807 L 4302.8375 3136.3707 L 4302.8375 3140.6607 M 4305.4175 3136.3707 L 4304.8075 3136.5707 L 4304.3975 3137.1907 L 4304.1875 3138.2107 L 4304.1875 3138.8207 L 4304.3975 3139.8507 L 4304.8075 3140.4607 L 4305.4175 3140.6607 L 4305.8275 3140.6607 L 4306.4375 3140.4607 L 4306.8475 3139.8507 L 4307.0575 3138.8207 L 4307.0575 3138.2107 L 4306.8475 3137.1907 L 4306.4375 3136.5707 L 4305.8275 3136.3707 L 4305.4175 3136.3707 M 4309.6275 3136.3707 L 4309.0175 3136.5707 L 4308.6075 3137.1907 L 4308.4075 3138.2107 L 4308.4075 3138.8207 L 4308.6075 3139.8507 L 4309.0175 3140.4607 L 4309.6275 3140.6607 L 4310.0375 3140.6607 L 4310.6575 3140.4607 L 4311.0575 3139.8507 L 4311.2675 3138.8207 L 4311.2675 3138.2107 L 4311.0575 3137.1907 L 4310.6575 3136.5707 L 4310.0375 3136.3707 L 4309.6275 3136.3707 M 4312.6175 3136.3707 L 4312.6175 3140.6607 M 4315.4775 3136.3707 L 4312.6175 3139.2307 M 4313.6375 3138.2107 L 4315.4775 3140.6607" fill="none"  stroke-width="0.2" c_note="note_name" /></g><g c_partid="part_pcbtext" c_etype="" c_origin="4245.158,3147.911" c_rotation="0" c_mirror="0" id="gge1650" locked="0" layerid="3" c_shapetype="group" ><path c_fontsize="4.5" c_fontfamily="" c_text="RP1" d="M 4245.1575 3143.3707 L 4245.1575 3147.6607 M 4245.1575 3143.3707 L 4246.9975 3143.3707 L 4247.6075 3143.5707 L 4247.8175 3143.7807 L 4248.0175 3144.1907 L 4248.0175 3144.6007 L 4247.8175 3145.0107 L 4247.6075 3145.2107 L 4246.9975 3145.4107 L 4245.1575 3145.4107 M 4246.5875 3145.4107 L 4248.0175 3147.6607 M 4249.3675 3143.3707 L 4249.3675 3147.6607 M 4249.3675 3143.3707 L 4251.2075 3143.3707 L 4251.8275 3143.5707 L 4252.0275 3143.7807 L 4252.2375 3144.1907 L 4252.2375 3144.8007 L 4252.0275 3145.2107 L 4251.8275 3145.4107 L 4251.2075 3145.6207 L 4249.3675 3145.6207 M 4253.5875 3144.1907 L 4253.9975 3143.9807 L 4254.6075 3143.3707 L 4254.6075 3147.6607" fill="none"  stroke-width="0.2" c_note="note_pre" /></g><g c_partid="part_pcbtext" c_etype="" c_origin="4246.158,3189.911" c_rotation="0" c_mirror="0" id="gge1740" locked="0" layerid="3" c_shapetype="group" display="none"><path c_fontsize="4.5" c_fontfamily="" c_text="Off Time Control 100K" d="M 4247.3875 3185.3707 L 4246.9775 3185.5707 L 4246.5675 3185.9807 L 4246.3575 3186.3907 L 4246.1575 3187.0107 L 4246.1575 3188.0307 L 4246.3575 3188.6407 L 4246.5675 3189.0507 L 4246.9775 3189.4607 L 4247.3875 3189.6607 L 4248.2075 3189.6607 L 4248.6075 3189.4607 L 4249.0175 3189.0507 L 4249.2275 3188.6407 L 4249.4275 3188.0307 L 4249.4275 3187.0107 L 4249.2275 3186.3907 L 4249.0175 3185.9807 L 4248.6075 3185.5707 L 4248.2075 3185.3707 L 4247.3875 3185.3707 M 4252.4175 3185.3707 L 4252.0075 3185.3707 L 4251.5975 3185.5707 L 4251.3975 3186.1907 L 4251.3975 3189.6607 M 4250.7775 3186.8007 L 4252.2075 3186.8007 M 4255.4075 3185.3707 L 4254.9975 3185.3707 L 4254.5875 3185.5707 L 4254.3775 3186.1907 L 4254.3775 3189.6607 M 4253.7675 3186.8007 L 4255.1975 3186.8007 M 4261.3375 3185.3707 L 4261.3375 3189.6607 M 4259.9075 3185.3707 L 4262.7675 3185.3707 M 4264.1175 3185.3707 L 4264.3175 3185.5707 L 4264.5275 3185.3707 L 4264.3175 3185.1607 L 4264.1175 3185.3707 M 4264.3175 3186.8007 L 4264.3175 3189.6607 M 4265.8775 3186.8007 L 4265.8775 3189.6607 M 4265.8775 3187.6207 L 4266.4875 3187.0107 L 4266.8975 3186.8007 L 4267.5075 3186.8007 L 4267.9175 3187.0107 L 4268.1275 3187.6207 L 4268.1275 3189.6607 M 4268.1275 3187.6207 L 4268.7375 3187.0107 L 4269.1475 3186.8007 L 4269.7575 3186.8007 L 4270.1675 3187.0107 L 4270.3775 3187.6207 L 4270.3775 3189.6607 M 4271.7275 3188.0307 L 4274.1775 3188.0307 L 4274.1775 3187.6207 L 4273.9775 3187.2107 L 4273.7675 3187.0107 L 4273.3575 3186.8007 L 4272.7475 3186.8007 L 4272.3375 3187.0107 L 4271.9275 3187.4107 L 4271.7275 3188.0307 L 4271.7275 3188.4407 L 4271.9275 3189.0507 L 4272.3375 3189.4607 L 4272.7475 3189.6607 L 4273.3575 3189.6607 L 4273.7675 3189.4607 L 4274.1775 3189.0507 M 4281.7475 3186.3907 L 4281.5475 3185.9807 L 4281.1375 3185.5707 L 4280.7275 3185.3707 L 4279.9075 3185.3707 L 4279.4975 3185.5707 L 4279.0875 3185.9807 L 4278.8875 3186.3907 L 4278.6775 3187.0107 L 4278.6775 3188.0307 L 4278.8875 3188.6407 L 4279.0875 3189.0507 L 4279.4975 3189.4607 L 4279.9075 3189.6607 L 4280.7275 3189.6607 L 4281.1375 3189.4607 L 4281.5475 3189.0507 L 4281.7475 3188.6407 M 4284.1175 3186.8007 L 4283.7075 3187.0107 L 4283.3075 3187.4107 L 4283.0975 3188.0307 L 4283.0975 3188.4407 L 4283.3075 3189.0507 L 4283.7075 3189.4607 L 4284.1175 3189.6607 L 4284.7375 3189.6607 L 4285.1475 3189.4607 L 4285.5575 3189.0507 L 4285.7575 3188.4407 L 4285.7575 3188.0307 L 4285.5575 3187.4107 L 4285.1475 3187.0107 L 4284.7375 3186.8007 L 4284.1175 3186.8007 M 4287.1075 3186.8007 L 4287.1075 3189.6607 M 4287.1075 3187.6207 L 4287.7175 3187.0107 L 4288.1275 3186.8007 L 4288.7475 3186.8007 L 4289.1575 3187.0107 L 4289.3575 3187.6207 L 4289.3575 3189.6607 M 4291.3175 3185.3707 L 4291.3175 3188.8507 L 4291.5275 3189.4607 L 4291.9375 3189.6607 L 4292.3475 3189.6607 M 4290.7075 3186.8007 L 4292.1375 3186.8007 M 4293.6975 3186.8007 L 4293.6975 3189.6607 M 4293.6975 3188.0307 L 4293.8975 3187.4107 L 4294.3075 3187.0107 L 4294.7175 3186.8007 L 4295.3275 3186.8007 M 4297.7075 3186.8007 L 4297.2975 3187.0107 L 4296.8875 3187.4107 L 4296.6775 3188.0307 L 4296.6775 3188.4407 L 4296.8875 3189.0507 L 4297.2975 3189.4607 L 4297.7075 3189.6607 L 4298.3175 3189.6607 L 4298.7275 3189.4607 L 4299.1375 3189.0507 L 4299.3375 3188.4407 L 4299.3375 3188.0307 L 4299.1375 3187.4107 L 4298.7275 3187.0107 L 4298.3175 3186.8007 L 4297.7075 3186.8007 M 4300.6875 3185.3707 L 4300.6875 3189.6607 M 4305.1875 3186.1907 L 4305.5975 3185.9807 L 4306.2075 3185.3707 L 4306.2075 3189.6607 M 4308.7875 3185.3707 L 4308.1775 3185.5707 L 4307.7675 3186.1907 L 4307.5575 3187.2107 L 4307.5575 3187.8207 L 4307.7675 3188.8507 L 4308.1775 3189.4607 L 4308.7875 3189.6607 L 4309.1975 3189.6607 L 4309.8075 3189.4607 L 4310.2175 3188.8507 L 4310.4275 3187.8207 L 4310.4275 3187.2107 L 4310.2175 3186.1907 L 4309.8075 3185.5707 L 4309.1975 3185.3707 L 4308.7875 3185.3707 M 4313.0075 3185.3707 L 4312.3875 3185.5707 L 4311.9775 3186.1907 L 4311.7775 3187.2107 L 4311.7775 3187.8207 L 4311.9775 3188.8507 L 4312.3875 3189.4607 L 4313.0075 3189.6607 L 4313.4075 3189.6607 L 4314.0275 3189.4607 L 4314.4375 3188.8507 L 4314.6375 3187.8207 L 4314.6375 3187.2107 L 4314.4375 3186.1907 L 4314.0275 3185.5707 L 4313.4075 3185.3707 L 4313.0075 3185.3707 M 4315.9875 3185.3707 L 4315.9875 3189.6607 M 4318.8575 3185.3707 L 4315.9875 3188.2307 M 4317.0075 3187.2107 L 4318.8575 3189.6607" fill="none"  stroke-width="0.2" c_note="note_name" /></g><g c_partid="part_pcbtext" c_etype="" c_origin="4246.158,3196.911" c_rotation="0" c_mirror="0" id="gge1746" locked="0" layerid="3" c_shapetype="group" ><path c_fontsize="4.5" c_fontfamily="" c_text="RP2" d="M 4246.1575 3192.3707 L 4246.1575 3196.6607 M 4246.1575 3192.3707 L 4247.9975 3192.3707 L 4248.6075 3192.5707 L 4248.8175 3192.7807 L 4249.0175 3193.1907 L 4249.0175 3193.6007 L 4248.8175 3194.0107 L 4248.6075 3194.2107 L 4247.9975 3194.4107 L 4246.1575 3194.4107 M 4247.5875 3194.4107 L 4249.0175 3196.6607 M 4250.3675 3192.3707 L 4250.3675 3196.6607 M 4250.3675 3192.3707 L 4252.2075 3192.3707 L 4252.8275 3192.5707 L 4253.0275 3192.7807 L 4253.2375 3193.1907 L 4253.2375 3193.8007 L 4253.0275 3194.2107 L 4252.8275 3194.4107 L 4252.2075 3194.6207 L 4250.3675 3194.6207 M 4254.7875 3193.3907 L 4254.7875 3193.1907 L 4254.9975 3192.7807 L 4255.1975 3192.5707 L 4255.6075 3192.3707 L 4256.4275 3192.3707 L 4256.8375 3192.5707 L 4257.0375 3192.7807 L 4257.2475 3193.1907 L 4257.2475 3193.6007 L 4257.0375 3194.0107 L 4256.6275 3194.6207 L 4254.5875 3196.6607 L 4257.4475 3196.6607" fill="none"  stroke-width="0.2" c_note="note_pre" /></g><path d="M 4245.4975 3163.9689 A 5.32868 5.32868 0 1 0 4245.5975 3163.9689" locked="0"  fill="none" stroke-width="0.2" c_helper_type="arc2" net="" layerid="3" id="gge1680" /><path d="M 4246.4975 3212.9689 A 5.32868 5.32868 0 1 0 4246.5975 3212.9689" locked="0"  fill="none" stroke-width="0.2" c_helper_type="arc2" net="" layerid="3" id="gge1776" /><circle cx="4068" cy="3078.5" r="2.5" stroke-width="0.2" fill="none" layerid="3" id="gge408" locked="0"  /><polyline points="4047.5 3045 4281 3045 4282 3257 4047.559 3257.638 4047.5 3045" stroke-width="0.2"  stroke-linecap="round" fill="none" layerid="10" net="" id="gge1941" locked="0" /></svg>